<?xml version="1.0" encoding="utf-8"?>
<!-- Generator: Adobe Illustrator 19.2.1, SVG Export Plug-In . SVG Version: 6.00 Build 0)  -->
<svg version="1.1" xmlns="http://www.w3.org/2000/svg" xmlns:xlink="http://www.w3.org/1999/xlink" x="0px" y="0px"
	 viewBox="0 0 378.2 179.7" style="enable-background:new 0 0 378.2 179.7;" xml:space="preserve">
<style type="text/css">
	.st0{opacity:0.3;}
	.st1{fill:none;stroke:#888A8C;stroke-width:3;stroke-miterlimit:10;}
	.st2{fill:none;stroke:#000000;stroke-width:0.5;stroke-miterlimit:10;}
	.st3{fill:none;stroke:#000000;stroke-width:3;stroke-miterlimit:10;}
	.st4{fill:none;stroke:#000000;stroke-width:0.251;stroke-linecap:round;stroke-miterlimit:10;}
	.st5{fill:none;stroke:#000000;stroke-linecap:round;stroke-miterlimit:10;}
	.st6{fill:none;stroke:#000000;stroke-linecap:round;stroke-miterlimit:10;stroke-dasharray:9.899685e-02,3.9599;}
	.st7{fill:#231F20;}
	.st8{fill:#888A8C;}
	.st9{fill:none;stroke:#888A8C;stroke-width:0.25;stroke-miterlimit:10;}
	.st10{fill:none;stroke:#888A8C;stroke-miterlimit:10;}
	.st11{fill:none;stroke:#231F20;stroke-miterlimit:10;}
</style>
<g id="Layer_2">
	<g class="st0">
		<g>
			<line class="st1" x1="134" y1="25.8" x2="294" y2="25.9"/>
		</g>
	</g>
	<g class="st0">
		<g>
			<line class="st1" x1="134" y1="46.1" x2="294" y2="46.2"/>
		</g>
	</g>
	<g class="st0">
		<g>
			<line class="st1" x1="134" y1="66.4" x2="294" y2="66.6"/>
		</g>
	</g>
	<g class="st0">
		<g>
			<line class="st1" x1="134" y1="86.7" x2="294" y2="86.9"/>
		</g>
	</g>
	<g class="st0">
		<g>
			<line class="st1" x1="134" y1="107.1" x2="294" y2="107.2"/>
		</g>
	</g>
	<g class="st0">
		<g>
			<line class="st1" x1="134" y1="127.4" x2="294" y2="127.6"/>
		</g>
	</g>
	<g>
		<g>
			<g>
				<line class="st2" x1="298.1" y1="146.8" x2="131" y2="146.8"/>
			</g>
		</g>
		<g>
			<g>
				<g>
					<polygon points="296.5,144.8 296.1,145.1 297.9,146.8 296.1,148.5 296.5,148.9 298.7,146.8 					"/>
				</g>
			</g>
		</g>
	</g>
	<g>
		<g>
			<line class="st3" x1="159.1" y1="25.8" x2="269.1" y2="25.9"/>
		</g>
	</g>
	<g>
		<g>
			<line class="st3" x1="148.7" y1="86.8" x2="203.7" y2="86.9"/>
		</g>
	</g>
	<g>
		<g>
			<line class="st3" x1="224.1" y1="46.1" x2="279.1" y2="46.2"/>
		</g>
	</g>
	<g>
		<g>
			<line class="st3" x1="133.1" y1="66.4" x2="158.1" y2="66.6"/>
		</g>
	</g>
	<g>
		<g>
			<line class="st3" x1="189.1" y1="107.1" x2="239.1" y2="107.2"/>
		</g>
	</g>
	<g>
		<g>
			<line class="st3" x1="270.1" y1="127.4" x2="295.1" y2="127.6"/>
		</g>
	</g>
	<g>
		<g>
			<path d="M278.2,143.2c-0.3,0.3-0.7,0.4-1.1,0.4c-0.7,0-0.9-0.3-0.9-1c0-0.9,0-2,0-2.9l-0.7-0.1c0-0.1,0-0.2,0.1-0.3
				c0.1-0.1,0.5-0.1,0.7-0.1l0-0.8c0.2-0.2,0.5-0.3,0.7-0.3c0,0.5,0,0.8,0,1.2c0.4,0,0.8,0,1.2,0c0,0.1,0,0.1,0,0.2
				c0,0.4-0.2,0.4-0.5,0.4c-0.2,0-0.5,0-0.7-0.1v1.8c0,1.3,0.1,1.4,0.5,1.4c0.3,0,0.6-0.1,0.8-0.2
				C278.4,142.9,278.3,143.1,278.2,143.2z"/>
		</g>
		<g>
			<path d="M280.6,143.5c-0.3,0-0.5,0-0.8,0c-0.4,0-0.7,0-1.1,0c-0.1-0.2,0-0.3,0.2-0.3l0.6-0.2v-3.1l-0.8-0.1
				c-0.1-0.1,0-0.3,0.2-0.3l1.4-0.3v3.8l0.8,0.2C281,143.4,280.8,143.5,280.6,143.5z M279.7,138c-0.3,0-0.5-0.2-0.5-0.6
				s0.3-0.6,0.6-0.6c0.3,0,0.5,0.3,0.5,0.5C280.4,137.8,280.1,138,279.7,138z"/>
		</g>
		<g>
			<path d="M288.5,143.5c-0.3,0-0.6,0-1,0s-0.6,0-0.9,0c-0.1-0.1,0-0.3,0.2-0.3l0.5-0.2v-2.1c0-0.8-0.2-1.1-1-1.1
				c-0.4,0-0.7,0.3-0.9,0.5c0,0.2,0,0.3,0,0.4v2.2l0.7,0.2c0,0.2-0.2,0.3-0.4,0.3c-0.3,0-0.6,0-1,0c-0.3,0-0.6,0-0.9,0
				c-0.1-0.2,0-0.3,0.2-0.3l0.5-0.2v-2c0-0.7-0.1-1.1-0.8-1.1c-0.4,0-0.6,0.2-1,0.5v2.6l0.7,0.2c0,0.2-0.2,0.3-0.4,0.3
				c-0.3,0-0.5,0-0.8,0s-0.6,0-0.9,0c-0.1-0.1,0-0.3,0.2-0.3l0.5-0.2v-3.1l-0.7-0.1c-0.1-0.1,0-0.3,0.2-0.3l1.3-0.3v0.7
				c0.4-0.4,0.9-0.7,1.4-0.7c0.6,0,1,0.2,1.1,0.7c0.4-0.4,0.9-0.7,1.5-0.7c0.9,0,1.3,0.5,1.3,1.5v2.2l0.8,0.2
				C288.9,143.4,288.7,143.5,288.5,143.5z"/>
		</g>
		<g>
			<path d="M292.5,141H290c0,0.1,0,0.2,0,0.3c0,1.1,0.5,1.6,1.4,1.6c0.4,0,0.8-0.1,1.1-0.4c0,0,0.1,0.1,0.1,0.2
				c0,0.4-0.7,0.8-1.7,0.8c-0.8,0-1.7-0.6-1.7-1.9c0-1.5,1-2.5,2-2.5c0.8,0,1.4,0.5,1.4,1.3C292.6,140.6,292.6,140.9,292.5,141z
				 M290.1,140.6l1.7,0c0.1-0.5-0.3-0.9-0.8-0.9C290.6,139.7,290.2,140,290.1,140.6z"/>
		</g>
	</g>
	<g>
		<g>
			<path d="M161.5,169.1c0,0.2-0.1,0.3-0.1,0.4c0,0.1,0,0.2,0,0.3c0,0.1,0,0.2,0.1,0.3c0.1,0.1,0.2,0.1,0.3,0.1l0,0.2H160l0-0.2
				c0.1,0,0.2,0,0.2-0.1c0.1,0,0.1-0.1,0.1-0.2s0.1-0.2,0.1-0.3c0-0.1,0.1-0.3,0.1-0.6l0.7-3.4c0.1-0.3,0.1-0.5,0.1-0.7
				c0-0.1,0-0.2-0.1-0.3c-0.1-0.1-0.2-0.1-0.3-0.1l0-0.2h1.8l0,0.2c-0.1,0-0.2,0-0.2,0.1c0,0-0.1,0.1-0.1,0.1s-0.1,0.2-0.1,0.3
				c0,0.1-0.1,0.3-0.2,0.6L161.5,169.1z"/>
		</g>
		<g>
			<path d="M163.7,165.4v-0.5h2.8v0.5H163.7z"/>
		</g>
	</g>
	<g>
		<g>
			<path d="M262.3,168.3c0,0.2-0.1,0.3-0.1,0.4c0,0.1,0,0.2,0,0.3c0,0.1,0,0.2,0.1,0.3c0.1,0.1,0.2,0.1,0.3,0.1l0,0.2h-1.8l0-0.2
				c0.1,0,0.2,0,0.2-0.1c0.1,0,0.1-0.1,0.1-0.2s0.1-0.2,0.1-0.3c0-0.1,0.1-0.3,0.1-0.6l0.7-3.4c0.1-0.3,0.1-0.5,0.1-0.7
				c0-0.1,0-0.2-0.1-0.3c-0.1-0.1-0.2-0.1-0.3-0.1l0-0.2h1.8l0,0.2c-0.1,0-0.2,0-0.2,0.1c0,0-0.1,0.1-0.1,0.1s-0.1,0.2-0.1,0.3
				c0,0.1-0.1,0.3-0.2,0.6L262.3,168.3z"/>
		</g>
		<g>
			<path d="M266,164.6v1.2h-0.5v-1.2h-1.1v-0.5h1.1V163h0.5v1.2h1.1v0.5H266z"/>
		</g>
	</g>
	<g>
		<g>
			<line class="st4" x1="162.8" y1="142.8" x2="162.8" y2="150.2"/>
		</g>
	</g>
	<g>
		<g>
			<line class="st4" x1="263.2" y1="142.8" x2="263.2" y2="150.2"/>
		</g>
	</g>
	<g>
		<g>
			<g>
				<line class="st5" x1="162.8" y1="22.5" x2="162.8" y2="22.6"/>
			</g>
		</g>
		<g>
			<g>
				<line class="st6" x1="162.8" y1="26.5" x2="162.8" y2="138.2"/>
			</g>
		</g>
		<g>
			<g>
				<line class="st5" x1="162.8" y1="140.2" x2="162.8" y2="140.2"/>
			</g>
		</g>
	</g>
	<g>
		<g>
			<g>
				<line class="st5" x1="263.2" y1="22.5" x2="263.2" y2="22.6"/>
			</g>
		</g>
		<g>
			<g>
				<line class="st6" x1="263.2" y1="26.5" x2="263.2" y2="138.2"/>
			</g>
		</g>
		<g>
			<g>
				<line class="st5" x1="263.2" y1="140.2" x2="263.2" y2="140.2"/>
			</g>
		</g>
	</g>
</g>
<g id="Layer_1">
	<g>
		<path class="st7" d="M22.8,9.2c-0.3,0-0.7,0-1.2,0c-0.4,0-0.9,0-1.1,0c-0.1-0.1,0-0.3,0.2-0.4l0.8-0.2l-0.7-1.9h-2.2l-0.6,2l1,0.2
			c0,0.2-0.2,0.4-0.4,0.3c-0.3,0-0.7,0-1.1,0c-0.3,0-0.7,0-1,0c-0.1-0.2,0-0.3,0.2-0.4l0.5-0.1l2-5.6c0.1-0.3,0.3-0.5,0.6-0.5
			c0.1,0,0.3,0,0.4,0l2.3,6.1l0.8,0.2C23.2,9.1,23,9.2,22.8,9.2z M19.6,3.5l-0.9,2.7h1.8L19.6,3.5z"/>
		<path class="st7" d="M25.5,9.2c-0.3,0-0.6,0-0.9,0c-0.5,0-0.8,0-1.3,0c-0.1-0.2,0-0.3,0.2-0.4l0.7-0.2V2.4l-0.8-0.1
			c-0.1-0.1,0-0.3,0.2-0.4L25,1.6v7.1l0.9,0.2C25.9,9.1,25.7,9.2,25.5,9.2z"/>
		<path class="st7" d="M28.3,9.2c-0.3,0-0.6,0-0.9,0c-0.5,0-0.8,0-1.3,0c-0.1-0.2,0-0.3,0.2-0.4l0.7-0.2V2.4l-0.8-0.1
			c-0.1-0.1,0-0.3,0.2-0.4l1.5-0.3v7.1l0.9,0.2C28.7,9.1,28.5,9.2,28.3,9.2z"/>
		<path class="st7" d="M32.8,6.5h-2.8c0,0.1,0,0.2,0,0.3c0,1.2,0.6,1.8,1.6,1.8c0.5,0,0.9-0.2,1.2-0.4c0,0,0.1,0.1,0.1,0.2
			c0,0.4-0.8,0.9-1.8,0.9c-0.9,0-1.9-0.6-1.9-2.2c0-1.7,1.1-2.7,2.2-2.7c0.9,0,1.5,0.6,1.5,1.4C32.9,6.1,32.9,6.4,32.8,6.5z
			 M30.1,6.1l1.9,0c0.1-0.6-0.3-1-0.9-1C30.7,5,30.3,5.4,30.1,6.1z"/>
		<path class="st7" d="M38.5,9.2c-0.4,0-0.7,0-1.1,0s-0.6,0-1,0c-0.1-0.2,0-0.3,0.2-0.4l0.6-0.2V6.3c0-0.7-0.1-1.2-0.9-1.2
			c-0.4,0-0.7,0.2-1.2,0.6v2.9l0.8,0.2c0,0.2-0.2,0.3-0.4,0.3c-0.3,0-0.6,0-0.9,0c-0.3,0-0.7,0-1,0c0-0.2,0-0.3,0.2-0.4l0.5-0.2V5.2
			l-0.8-0.1c-0.1-0.2,0-0.3,0.2-0.4l1.5-0.3v0.8c0.4-0.4,0.9-0.8,1.6-0.8c1.2,0,1.4,0.7,1.4,1.7v2.5l0.8,0.2
			C38.9,9.1,38.7,9.2,38.5,9.2z"/>
		<path class="st7" d="M40.9,7c-0.8,0-1.1,0-1.4,0.2c-0.2-0.5,0-0.8,0.9-0.8c0.7,0,1,0,1.4-0.2C42,6.7,41.7,7,40.9,7z"/>
		<path class="st7" d="M45.7,5.6c-0.2-0.1-0.4-0.1-0.5-0.1c-0.3,0-0.6,0.2-1,0.6v2.6c0,0,0.8,0.1,1.1,0.2c0,0.2-0.2,0.3-0.4,0.3
			c-0.4,0-0.8,0-1.2,0c-0.4,0-0.8,0-1.2,0c0-0.1,0-0.3,0.2-0.3l0.7-0.2V5.2l-0.8-0.1c-0.1-0.2,0-0.3,0.2-0.4l1.5-0.3v1.3
			C44.5,5,45,4.4,45.5,4.4c0.3,0,0.5,0.1,0.5,0.5C45.9,5.2,45.8,5.4,45.7,5.6z"/>
		<path class="st7" d="M50.2,6.5h-2.8c0,0.1,0,0.2,0,0.3c0,1.2,0.6,1.8,1.6,1.8c0.5,0,0.9-0.2,1.2-0.4c0,0,0.1,0.1,0.1,0.2
			c0,0.4-0.8,0.9-1.8,0.9c-0.9,0-1.9-0.6-1.9-2.2c0-1.7,1.1-2.7,2.2-2.7c0.9,0,1.5,0.6,1.5,1.4C50.3,6.1,50.2,6.4,50.2,6.5z
			 M47.5,6.1l1.9,0c0.1-0.6-0.3-1-0.9-1C48.1,5,47.6,5.4,47.5,6.1z"/>
		<path class="st7" d="M52.9,9.2c-0.3,0-0.6,0-0.9,0c-0.5,0-0.8,0-1.3,0c-0.1-0.2,0-0.3,0.2-0.4l0.7-0.2V2.4l-0.8-0.1
			c-0.1-0.1,0-0.3,0.2-0.4l1.5-0.3v7.1l0.9,0.2C53.3,9.1,53.1,9.2,52.9,9.2z"/>
		<path class="st7" d="M57.1,9.4c-0.4,0-0.6-0.2-0.8-0.6C56,9.2,55.6,9.4,55,9.4c-0.6,0-1.2-0.5-1.2-1.2c0-0.6,0.4-1,1.2-1.1
			l1.3-0.2c0,0,0-0.4,0-0.5c0-0.8-0.2-1.2-0.6-1.2c-0.6,0-1,0.2-1,0.9c-0.5,0-0.7-0.1-0.7-0.3c0-0.2,0.1-0.4,0.5-0.7
			c0.5-0.3,1-0.5,1.6-0.5c0.9,0,1.2,0.7,1.2,1.5c0,0.3,0,0.7,0,1c0,0.3,0,0.8,0,1.2c0,0.4,0.2,0.6,0.7,0.7
			C57.6,9.2,57.4,9.4,57.1,9.4z M56.2,7.3l-1,0.2c-0.4,0.1-0.5,0.3-0.5,0.5c0,0.4,0.4,0.7,0.7,0.7c0.3,0,0.6-0.1,0.9-0.3
			C56.2,8.2,56.2,7.3,56.2,7.3z"/>
		<path class="st7" d="M61.1,8.9c-0.3,0.3-0.8,0.5-1.3,0.5c-0.7,0-1-0.3-1-1.1c0-1,0-2.2,0-3.2L58.1,5c0-0.1,0-0.3,0.1-0.3
			c0.1-0.1,0.6-0.1,0.7-0.1l0-0.9c0.2-0.2,0.6-0.3,0.8-0.4c0,0.5,0,0.9,0,1.3c0.5,0,0.9,0,1.4,0c0,0.1,0,0.1,0,0.2
			c0,0.4-0.2,0.5-0.6,0.5c-0.3,0-0.5,0-0.8-0.1v2c0,1.4,0.1,1.5,0.6,1.5c0.3,0,0.6-0.1,0.9-0.2C61.3,8.6,61.2,8.8,61.1,8.9z"/>
		<path class="st7" d="M63.8,9.2c-0.4,0-0.6,0-0.9,0c-0.5,0-0.8,0-1.2,0c-0.1-0.2,0-0.3,0.2-0.4l0.6-0.2V5.2l-0.9-0.1
			c-0.1-0.2,0-0.3,0.2-0.4l1.5-0.3v4.2l0.9,0.2C64.2,9.1,64,9.2,63.8,9.2z M62.8,3.2c-0.4,0-0.6-0.2-0.6-0.6c0-0.4,0.3-0.7,0.7-0.7
			c0.3,0,0.6,0.3,0.6,0.6C63.5,2.9,63.2,3.2,62.8,3.2z"/>
		<path class="st7" d="M66.7,9.4c-1.5,0-2-0.9-2-2.2c0-1.5,0.9-2.7,2.5-2.7c1.2,0,1.9,0.7,1.9,2.1C69.1,8.2,68.3,9.4,66.7,9.4z
			 M66.9,5.1c-0.8,0-1.3,0.6-1.3,1.8c0,1.3,0.6,1.9,1.4,1.9c0.9,0,1.3-0.7,1.3-1.8C68.3,5.9,67.8,5.1,66.9,5.1z"/>
		<path class="st7" d="M74.8,9.2c-0.4,0-0.7,0-1.1,0s-0.6,0-1,0c-0.1-0.2,0-0.3,0.2-0.4l0.6-0.2V6.3c0-0.7-0.1-1.2-0.9-1.2
			c-0.4,0-0.7,0.2-1.2,0.6v2.9l0.8,0.2c0,0.2-0.2,0.3-0.4,0.3c-0.3,0-0.6,0-0.9,0c-0.3,0-0.7,0-1,0c0-0.2,0-0.3,0.2-0.4l0.5-0.2V5.2
			l-0.8-0.1c-0.1-0.2,0-0.3,0.2-0.4l1.5-0.3v0.8c0.4-0.4,0.9-0.8,1.6-0.8c1.2,0,1.4,0.7,1.4,1.7v2.5l0.8,0.2
			C75.2,9.1,75,9.2,74.8,9.2z"/>
		<path class="st7" d="M77.1,9.4c-1,0-1.5-0.3-1.5-1c0-0.5,0.3-0.6,0.8-0.5c0,0.7,0.2,1,1,1c0.6,0,0.8-0.3,0.8-0.7
			c0-0.4-0.2-0.6-1.2-0.9c-0.5-0.2-1.1-0.5-1.1-1.3c0-0.8,0.7-1.4,1.7-1.4c0.6,0,0.9,0.1,1.3,0.2l-0.1,0.6c-0.1,0.4-0.2,0.5-0.6,0.4
			l0-0.6C78,5.1,77.8,5,77.4,5c-0.6,0-0.8,0.3-0.8,0.6c0,0.4,0.4,0.7,1,0.9c0.8,0.3,1.3,0.6,1.3,1.4C78.9,8.9,78.1,9.4,77.1,9.4z"/>
		<path class="st7" d="M22.3,28.8c0,0.3-0.1,0.4-0.5,0.4c-0.3,0-0.8,0-1.3,0c-0.4,0-0.8,0-1,0c0-0.1,0-0.3,0.3-0.4l0.8-0.2l-1.1-2.3
			l-1.9,2.3l0.9,0.2c0,0.2-0.2,0.3-0.5,0.3c-0.3,0-0.6,0-0.9,0c-0.3,0-0.6,0-0.9,0c-0.1-0.2,0-0.3,0.2-0.4l0.5-0.1l2.3-2.8l-1.3-2.6
			l-0.9-0.1c0-0.3,0.1-0.5,0.5-0.5h2.3c0,0.3-0.2,0.4-0.5,0.5l-0.5,0l0.9,1.9l1.6-1.9l-0.7-0.1c0-0.2,0.1-0.4,0.5-0.4h1.8
			c0.1,0.5-0.4,0.7-1,0.6L20,25.7l1.4,3L22.3,28.8z"/>
		<path class="st7" d="M27.9,25.2c0,0.4-0.3,0.6-0.8,0.6c0-0.5-0.1-0.7-0.5-0.7c-0.5,0-1.1,1.1-1.1,2.1s0.4,1.4,1,1.4
			c0.4,0,0.9-0.2,1.2-0.4c0.1,0,0.1,0.1,0.1,0.2c0,0.4-0.8,0.9-1.7,0.9c-0.8,0-1.3-0.4-1.3-1.8c0-1.5,0.9-3.1,2.2-3.1
			C27.7,24.5,27.9,24.9,27.9,25.2z"/>
		<path class="st7" d="M30.9,24.5c1,0,1.4,0.7,1.4,2c0,1.6-1,2.9-2.3,2.9c-0.9,0-1.4-0.7-1.4-1.9C28.6,25.8,29.6,24.5,30.9,24.5z
			 M30.3,28.7c0.7,0,1.2-0.8,1.2-2c0-0.8-0.3-1.5-0.9-1.5c-0.8,0-1.2,0.8-1.2,2C29.4,28.1,29.7,28.7,30.3,28.7z"/>
		<path class="st7" d="M34.5,25.1c0,0.2,0,0.8-0.2,1.1l0,0c0.5-1.1,1.2-1.7,1.9-1.7c0.5,0,0.7,0.3,0.7,0.9c0,0.5-0.4,2-0.4,2.6
			c0,0.4,0.1,0.5,0.2,0.5c0.2,0,0.5-0.1,0.6-0.3c0.3,0.2-0.5,1.1-1.2,1.1c-0.3,0-0.5-0.2-0.5-0.9c0-0.5,0.4-2.1,0.4-2.5
			c0-0.5-0.1-0.6-0.4-0.6c-0.3,0-0.8,0.6-1.1,1.1c-0.5,1-0.6,1.8-0.6,2.7l-1,0.1c0.3-1.4,0.6-3.1,0.6-3.5c0-0.5-0.1-0.6-0.2-0.6
			c-0.2,0-0.4,0.1-0.6,0.2c-0.1-0.2-0.1-0.3,0.5-0.7c0.3-0.2,0.7-0.3,0.8-0.3C34.4,24.5,34.5,24.6,34.5,25.1z"/>
		<path class="st7" d="M39.6,25.3c-0.2,1-0.3,2-0.3,2.5c0,0.6,0,0.8,0.3,0.8c0.2,0,0.5-0.2,0.8-0.5c0.2,0.2,0.1,0.5-0.3,0.9
			c-0.4,0.3-0.7,0.4-1.1,0.4c-0.5,0-0.7-0.3-0.6-1.1c0-0.5,0.2-2.1,0.4-3.1l-0.7-0.1c-0.1-0.2,0-0.4,0.3-0.4c0.1,0,0.3,0,0.4,0
			l0.2-1.1c0.2-0.1,0.5-0.2,0.8-0.2l-0.2,1.4c0.2,0,1,0,1.2,0c0.2,0.3,0,0.7-0.4,0.7C40.3,25.3,39.8,25.3,39.6,25.3z"/>
		<path class="st7" d="M44.6,29.4c-0.3,0-0.5-0.3-0.5-0.6c0-0.3,0-0.7,0.1-1.1l0,0c-0.2,0.4-0.8,1.7-1.7,1.7c-0.5,0-1-0.7-1-1.7
			c0-1.9,1.1-3.2,2.7-3.2c0.2,0,0.4,0,0.5,0.1c0.1-0.4,0.2-0.5,0.4-0.5c0.2,0,0.3,0,0.4,0.2c-0.4,1.1-0.7,2.4-0.7,3.3
			c0,0.9,0.1,1.1,0.3,1.1c0.2,0,0.5-0.2,0.6-0.3C46,28.6,45.1,29.4,44.6,29.4z M43.7,25.2c-0.8,0-1.4,0.9-1.4,2.2
			c0,0.8,0.2,1.2,0.5,1.2c0.5,0,1.2-0.9,1.5-2.5c0.1-0.3,0.1-0.7,0.1-0.7C44.3,25.3,44,25.2,43.7,25.2z"/>
		<path class="st7" d="M47.9,25.1c0,0.4-0.5,2.5-0.5,2.9c0,0.5,0.1,0.6,0.2,0.6c0.2,0,0.5-0.2,0.7-0.3c0.4,0.3-0.6,1.1-1.2,1.1
			c-0.3,0-0.5-0.2-0.5-0.6c0-0.6,0.5-2.9,0.5-3.2c0-0.2-0.1-0.3-0.2-0.3c-0.2,0-0.4,0.1-0.6,0.2c-0.1-0.1-0.1-0.3,0.2-0.5
			c0.3-0.2,0.6-0.4,1-0.4C47.7,24.5,47.9,24.7,47.9,25.1z M48.2,22.5c0,0.4-0.2,0.7-0.6,0.7c-0.3,0-0.5-0.2-0.5-0.5
			c0-0.5,0.3-0.7,0.6-0.7C48,21.9,48.2,22.1,48.2,22.5z"/>
		<path class="st7" d="M50.5,25.1c0,0.2,0,0.8-0.2,1.1l0,0c0.5-1.1,1.2-1.7,1.9-1.7c0.5,0,0.7,0.3,0.7,0.9c0,0.5-0.4,2-0.4,2.6
			c0,0.4,0.1,0.5,0.2,0.5c0.2,0,0.5-0.1,0.6-0.3c0.3,0.2-0.5,1.1-1.2,1.1c-0.3,0-0.5-0.2-0.5-0.9c0-0.5,0.4-2.1,0.4-2.5
			c0-0.5-0.1-0.6-0.4-0.6c-0.3,0-0.8,0.6-1.1,1.1c-0.5,1-0.6,1.8-0.6,2.7l-1,0.1c0.3-1.4,0.6-3.1,0.6-3.5c0-0.5-0.1-0.6-0.2-0.6
			c-0.2,0-0.4,0.1-0.6,0.2c-0.1-0.2-0.1-0.3,0.5-0.7c0.3-0.2,0.7-0.3,0.8-0.3C50.4,24.5,50.5,24.6,50.5,25.1z"/>
		<path class="st7" d="M57.1,25.2c0,0.3-0.3,0.5-0.6,0.5c-0.1-0.4-0.4-0.6-0.8-0.6c-0.4,0-0.5,0.2-0.5,0.5c0,0.2,0.2,0.5,0.7,1
			c0.6,0.6,0.9,0.9,0.9,1.4c0,0.7-0.9,1.4-1.6,1.4c-0.6,0-1.2-0.2-1.2-0.7c0-0.3,0.2-0.6,0.5-0.6c0.1,0.4,0.5,0.8,1,0.8
			c0.4,0,0.6-0.2,0.6-0.5c0-0.2-0.2-0.5-0.8-1.1c-0.6-0.6-0.7-0.8-0.7-1.3c0-0.6,0.7-1.4,1.5-1.4C56.8,24.5,57.1,24.7,57.1,25.2z"/>
		<path class="st7" d="M65.3,22.7c0,0.5-0.4,0.7-1,0.6l-2,3.4L62,28.7l1.1,0.2c0,0.2-0.2,0.4-0.6,0.4c-0.3,0-0.7,0-1.2,0
			c-0.4,0-0.9,0-1.2,0c-0.1-0.1,0-0.4,0.2-0.4l0.8-0.2l0.2-2L60,23.2l-0.5,0c0-0.2,0.1-0.4,0.5-0.4h1.7c0,0.4-0.1,0.5-0.8,0.5
			l1.1,2.7l1.6-2.7l-0.9-0.1c0-0.2,0.1-0.4,0.5-0.4H65.3z"/>
		<path class="st7" d="M22.3,48.8c0,0.3-0.1,0.4-0.5,0.4c-0.3,0-0.8,0-1.3,0c-0.4,0-0.8,0-1,0c0-0.1,0-0.3,0.3-0.4l0.8-0.2l-1.1-2.3
			l-1.9,2.3l0.9,0.2c0,0.2-0.2,0.3-0.5,0.3c-0.3,0-0.6,0-0.9,0c-0.3,0-0.6,0-0.9,0c-0.1-0.2,0-0.3,0.2-0.4l0.5-0.1l2.3-2.8l-1.3-2.6
			l-0.9-0.1c0-0.3,0.1-0.5,0.5-0.5h2.3c0,0.3-0.2,0.4-0.5,0.5l-0.5,0l0.9,1.9l1.6-1.9l-0.7-0.1c0-0.2,0.1-0.4,0.5-0.4h1.8
			c0.1,0.5-0.4,0.7-1,0.6L20,45.7l1.4,3L22.3,48.8z"/>
		<path class="st7" d="M27,44.5c1,0,1.4,0.7,1.4,2c0,1.6-1,2.9-2.3,2.9c-0.9,0-1.4-0.7-1.4-1.9C24.8,45.8,25.8,44.5,27,44.5z
			 M26.5,48.7c0.7,0,1.2-0.8,1.2-2c0-0.8-0.3-1.5-0.9-1.5c-0.8,0-1.2,0.8-1.2,2C25.6,48.1,25.9,48.7,26.5,48.7z"/>
		<path class="st7" d="M30.8,45.5c0,0.7-0.2,1.5-0.2,2.1s0.2,0.9,0.6,0.9c0.6,0,1.3-1.1,1.3-2.5c0-0.7-0.2-1-0.6-1.2
			c0.1-0.2,0.4-0.4,0.7-0.4c0.5,0,0.7,0.4,0.7,1.1c0,2.1-1.4,3.8-2.6,3.8c-0.6,0-0.9-0.5-0.9-1.4c0-0.8,0.2-1.4,0.2-2.1
			c0-0.5-0.1-0.8-0.3-0.8c-0.2,0-0.4,0.1-0.5,0.2c-0.1-0.1-0.1-0.3,0.3-0.6c0.3-0.2,0.5-0.2,0.7-0.2C30.5,44.5,30.8,44.7,30.8,45.5z
			"/>
		<path class="st7" d="M37.1,45.3c0,0.8-0.5,1.4-2.3,1.9c0,0.9,0.3,1.4,0.9,1.4c0.5,0,0.9-0.2,1.1-0.4c0.1,0,0.1,0.1,0.1,0.2
			c0,0.5-0.8,0.9-1.7,0.9c-0.8,0-1.2-0.6-1.2-1.8c0-1.6,1.1-3.1,2.1-3.1C36.9,44.5,37.1,44.8,37.1,45.3z M36.4,45.5
			c0-0.2-0.1-0.4-0.5-0.4c-0.4,0-0.9,0.8-1,1.6C36.2,46.2,36.4,45.9,36.4,45.5z"/>
		<path class="st7" d="M41.3,45c0,0.3-0.1,0.5-0.4,0.6c-0.1-0.1-0.3-0.1-0.5-0.1c-0.7,0-1.5,2.4-1.4,3.7l-1,0.2
			c0.3-1.3,0.5-2.9,0.5-3.4c0-0.5,0-0.6-0.2-0.6c-0.2,0-0.4,0-0.6,0.2c-0.1-0.1-0.1-0.3,0.5-0.7c0.3-0.2,0.7-0.3,0.8-0.3
			c0.2,0,0.3,0.2,0.3,0.6c0,0.4-0.1,0.9-0.2,1.2l0,0c0.3-0.8,0.8-1.8,1.4-1.8C41,44.5,41.3,44.6,41.3,45z"/>
		<path class="st7" d="M42.5,48.2c0,0.3,0.1,0.4,0.3,0.4c0.1,0,0.4-0.1,0.6-0.3c0.1,0.2,0,0.4-0.4,0.7c-0.3,0.2-0.6,0.3-0.9,0.3
			c-0.3,0-0.5-0.2-0.5-0.7c0-1,0.6-5,0.7-5.8c0-0.4-0.1-0.5-0.3-0.5c-0.2,0-0.4,0-0.6,0c-0.1-0.1,0-0.2,0.1-0.3
			c0.2-0.1,1.2-0.3,1.4-0.3c0.2,0,0.2,0.1,0.2,0.5C43.2,42.8,42.5,47.6,42.5,48.2z"/>
		<path class="st7" d="M47.3,49.4c-0.3,0-0.5-0.3-0.5-0.6c0-0.3,0-0.7,0.1-1.1l0,0c-0.2,0.4-0.8,1.7-1.7,1.7c-0.5,0-1-0.7-1-1.7
			c0-1.9,1.1-3.2,2.7-3.2c0.2,0,0.4,0,0.5,0.1c0.1-0.4,0.2-0.5,0.4-0.5c0.2,0,0.3,0,0.4,0.2c-0.4,1.1-0.7,2.4-0.7,3.3
			c0,0.9,0.1,1.1,0.3,1.1c0.2,0,0.5-0.2,0.6-0.3C48.7,48.6,47.8,49.4,47.3,49.4z M46.4,45.2c-0.8,0-1.4,0.9-1.4,2.2
			c0,0.8,0.2,1.2,0.5,1.2c0.5,0,1.2-0.9,1.5-2.5c0.1-0.3,0.1-0.7,0.1-0.7C46.9,45.3,46.7,45.2,46.4,45.2z"/>
		<path class="st7" d="M50,49.3l-0.2,2l1.2,0.2c0,0.3-0.1,0.4-0.4,0.4c-0.3,0-0.9,0-1.5,0c-0.5,0-0.9,0-1.1,0
			c-0.1-0.2,0-0.4,0.3-0.4c0,0,0.5-0.1,0.8-0.2c0.3-1.7,0.7-5.1,0.7-5.7c0-0.4-0.1-0.4-0.2-0.4c-0.1,0-0.5,0.1-0.7,0.2
			c-0.1-0.1-0.1-0.4,0.4-0.7c0.3-0.2,0.6-0.3,0.9-0.3c0.4,0,0.4,0.1,0.4,0.5c0,0.4-0.1,0.9-0.2,1.3l0.1,0c0.5-1.2,1.2-1.8,1.8-1.8
			s0.9,0.6,0.9,1.7c0,1.8-1,3.2-2.5,3.2C50.4,49.4,50.2,49.3,50,49.3z M50.1,48.6c0.3,0.1,0.5,0.1,0.7,0.1c0.8,0,1.4-1.1,1.4-2.2
			c0-0.8-0.1-1.3-0.5-1.3c-0.3,0-0.8,0.5-1.1,1.1C50.4,47.2,50.2,47.7,50.1,48.6z"/>
		<path class="st7" d="M56.8,45.2c0,0.3-0.3,0.5-0.6,0.5c-0.1-0.4-0.4-0.6-0.8-0.6c-0.4,0-0.5,0.2-0.5,0.5c0,0.2,0.2,0.5,0.7,1
			c0.6,0.6,0.9,0.9,0.9,1.4c0,0.7-0.9,1.4-1.6,1.4c-0.6,0-1.2-0.2-1.2-0.7c0-0.3,0.2-0.6,0.5-0.6c0.1,0.4,0.5,0.8,1,0.8
			c0.4,0,0.6-0.2,0.6-0.5c0-0.2-0.2-0.5-0.8-1.1c-0.6-0.6-0.7-0.8-0.7-1.3c0-0.6,0.7-1.4,1.5-1.4C56.5,44.5,56.8,44.7,56.8,45.2z"/>
		<path class="st7" d="M65,42.7c0,0.5-0.4,0.7-1,0.6l-2,3.4l-0.2,1.9l1.1,0.2c0,0.2-0.2,0.4-0.6,0.4c-0.3,0-0.7,0-1.2,0
			c-0.4,0-0.9,0-1.2,0c-0.1-0.1,0-0.4,0.2-0.4l0.8-0.2l0.2-2l-1.4-3.5l-0.5,0c0-0.2,0.1-0.4,0.5-0.4h1.7c0,0.4-0.1,0.5-0.8,0.5
			l1.1,2.7l1.6-2.7l-0.9-0.1c0-0.2,0.1-0.4,0.5-0.4H65z"/>
		<path class="st7" d="M22.3,68.8c0,0.3-0.1,0.4-0.5,0.4c-0.3,0-0.8,0-1.3,0c-0.4,0-0.8,0-1,0c0-0.1,0-0.3,0.3-0.4l0.8-0.2l-1.1-2.3
			l-1.9,2.3l0.9,0.2c0,0.2-0.2,0.3-0.5,0.3c-0.3,0-0.6,0-0.9,0c-0.3,0-0.6,0-0.9,0c-0.1-0.2,0-0.3,0.2-0.4l0.5-0.1l2.3-2.8l-1.3-2.6
			l-0.9-0.1c0-0.3,0.1-0.5,0.5-0.5h2.3c0,0.3-0.2,0.4-0.5,0.5l-0.5,0l0.9,1.9l1.6-1.9l-0.7-0.1c0-0.2,0.1-0.4,0.5-0.4h1.8
			c0.1,0.5-0.4,0.7-1,0.6L20,65.7l1.4,3L22.3,68.8z"/>
		<path class="st7" d="M27.7,64.5c0.7,0,1,0.7,1,1.7c0,1.9-1.2,3.2-2.6,3.2c-0.5,0-0.9-0.1-1.3-0.2c0.3-1.7,0.8-5.7,0.8-6.3
			c0-0.4-0.1-0.5-0.3-0.5c-0.1,0-0.5,0-0.7,0c-0.1-0.1-0.1-0.2,0.1-0.3c0.2-0.1,1.2-0.3,1.4-0.3c0.2,0,0.2,0.1,0.2,0.6
			c0,0.4-0.3,2.5-0.4,3.1C26,65.8,26,66,25.9,66.3l0.1,0C26.4,65.1,27.1,64.5,27.7,64.5z M26.4,68.8c0.8,0,1.5-1,1.5-2.2
			c0-0.9-0.2-1.3-0.5-1.3c-0.7,0-1.7,2.2-1.7,3.4C25.9,68.7,26.1,68.8,26.4,68.8z"/>
		<path class="st7" d="M32.5,65.3c0,0.8-0.5,1.4-2.3,1.9c0,0.9,0.3,1.4,0.9,1.4c0.5,0,0.9-0.2,1.1-0.4c0.1,0,0.1,0.1,0.1,0.2
			c0,0.5-0.8,0.9-1.7,0.9c-0.8,0-1.2-0.6-1.2-1.8c0-1.6,1.1-3.1,2.1-3.1C32.3,64.5,32.5,64.8,32.5,65.3z M31.8,65.5
			c0-0.2-0.1-0.4-0.5-0.4c-0.4,0-0.9,0.8-1,1.6C31.6,66.2,31.8,65.9,31.8,65.5z"/>
		<path class="st7" d="M36.3,61.6c0.7,0,0.9,0.3,0.9,0.5c0,0.2-0.1,0.4-0.3,0.6c-0.3-0.3-0.5-0.4-0.9-0.4c-0.5,0-1,0.7-1.2,2.5
			c0.2,0,0.3,0,0.6,0c0.2,0,0.3,0,0.4,0c0.2,0.5,0,0.7-0.6,0.6c-0.2,0-0.2,0-0.4,0c-0.1,1.5-0.2,2.6-0.5,4C34,70.9,33.2,72,32.1,72
			c-0.6,0-0.9-0.2-0.9-0.5c0-0.2,0.1-0.4,0.4-0.5c0.2,0.3,0.4,0.4,0.8,0.4c0.5,0,0.9-0.5,1.1-1.8c0.2-1,0.3-2.3,0.5-4.2
			c0,0-0.5,0-0.7,0c-0.1-0.4,0-0.6,0.8-0.6C34.3,62.7,35.1,61.6,36.3,61.6z"/>
		<path class="st7" d="M38.5,64.5c1,0,1.4,0.7,1.4,2c0,1.6-1,2.9-2.3,2.9c-0.9,0-1.4-0.7-1.4-1.9C36.2,65.8,37.3,64.5,38.5,64.5z
			 M38,68.7c0.7,0,1.2-0.8,1.2-2c0-0.8-0.3-1.5-0.9-1.5c-0.8,0-1.2,0.8-1.2,2C37,68.1,37.4,68.7,38,68.7z"/>
		<path class="st7" d="M44.1,65c0,0.3-0.1,0.5-0.4,0.6c-0.1-0.1-0.3-0.1-0.5-0.1c-0.7,0-1.5,2.4-1.4,3.7l-1,0.2
			c0.3-1.3,0.5-2.9,0.5-3.4c0-0.5,0-0.6-0.2-0.6c-0.2,0-0.4,0-0.6,0.2c-0.1-0.1-0.1-0.3,0.5-0.7c0.3-0.2,0.7-0.3,0.8-0.3
			c0.2,0,0.3,0.2,0.3,0.6c0,0.4-0.1,0.9-0.2,1.2l0,0c0.3-0.8,0.8-1.8,1.4-1.8C43.8,64.5,44.1,64.6,44.1,65z"/>
		<path class="st7" d="M47.4,65.3c0,0.8-0.5,1.4-2.3,1.9c0,0.9,0.3,1.4,0.9,1.4c0.5,0,0.9-0.2,1.1-0.4c0.1,0,0.1,0.1,0.1,0.2
			c0,0.5-0.8,0.9-1.7,0.9c-0.8,0-1.2-0.6-1.2-1.8c0-1.6,1.1-3.1,2.1-3.1C47.1,64.5,47.4,64.8,47.4,65.3z M46.6,65.5
			c0-0.2-0.1-0.4-0.5-0.4c-0.4,0-0.9,0.8-1,1.6C46.5,66.2,46.6,65.9,46.6,65.5z"/>
		<path class="st7" d="M55.6,62.7c0,0.5-0.4,0.7-1,0.6l-2,3.4l-0.2,1.9l1.1,0.2c0,0.2-0.2,0.4-0.6,0.4c-0.3,0-0.7,0-1.2,0
			c-0.4,0-0.9,0-1.2,0c-0.1-0.1,0-0.4,0.2-0.4l0.8-0.2l0.2-2l-1.4-3.5l-0.5,0c0-0.2,0.1-0.4,0.5-0.4h1.7c0,0.4-0.1,0.5-0.8,0.5
			l1.1,2.7l1.6-2.7l-0.9-0.1c0-0.2,0.1-0.4,0.5-0.4H55.6z"/>
		<path class="st7" d="M22.3,88.8c0,0.3-0.1,0.4-0.5,0.4c-0.3,0-0.8,0-1.3,0c-0.4,0-0.8,0-1,0c0-0.1,0-0.3,0.3-0.4l0.8-0.2l-1.1-2.3
			l-1.9,2.3l0.9,0.2c0,0.2-0.2,0.3-0.5,0.3c-0.3,0-0.6,0-0.9,0c-0.3,0-0.6,0-0.9,0c-0.1-0.2,0-0.3,0.2-0.4l0.5-0.1l2.3-2.8l-1.3-2.6
			l-0.9-0.1c0-0.3,0.1-0.5,0.5-0.5h2.3c0,0.3-0.2,0.4-0.5,0.5l-0.5,0l0.9,1.9l1.6-1.9l-0.7-0.1c0-0.2,0.1-0.4,0.5-0.4h1.8
			c0.1,0.5-0.4,0.7-1,0.6L20,85.7l1.4,3L22.3,88.8z"/>
		<path class="st7" d="M27,84.5c1,0,1.4,0.7,1.4,2c0,1.6-1,2.9-2.3,2.9c-0.9,0-1.4-0.7-1.4-1.9C24.8,85.8,25.8,84.5,27,84.5z
			 M26.5,88.7c0.7,0,1.2-0.8,1.2-2c0-0.8-0.3-1.5-0.9-1.5c-0.8,0-1.2,0.8-1.2,2C25.6,88.1,25.9,88.7,26.5,88.7z"/>
		<path class="st7" d="M30.8,85.5c0,0.7-0.2,1.5-0.2,2.1s0.2,0.9,0.6,0.9c0.6,0,1.3-1.1,1.3-2.5c0-0.7-0.2-1-0.6-1.2
			c0.1-0.2,0.4-0.4,0.7-0.4c0.5,0,0.7,0.4,0.7,1.1c0,2.1-1.4,3.8-2.6,3.8c-0.6,0-0.9-0.5-0.9-1.4c0-0.8,0.2-1.4,0.2-2.1
			c0-0.5-0.1-0.8-0.3-0.8c-0.2,0-0.4,0.1-0.5,0.2c-0.1-0.1-0.1-0.3,0.3-0.6c0.3-0.2,0.5-0.2,0.7-0.2C30.5,84.5,30.8,84.7,30.8,85.5z
			"/>
		<path class="st7" d="M37.1,85.3c0,0.8-0.5,1.4-2.3,1.9c0,0.9,0.3,1.4,0.9,1.4c0.5,0,0.9-0.2,1.1-0.4c0.1,0,0.1,0.1,0.1,0.2
			c0,0.5-0.8,0.9-1.7,0.9c-0.8,0-1.2-0.6-1.2-1.8c0-1.6,1.1-3.1,2.1-3.1C36.9,84.5,37.1,84.8,37.1,85.3z M36.4,85.5
			c0-0.2-0.1-0.4-0.5-0.4c-0.4,0-0.9,0.8-1,1.6C36.2,86.2,36.4,85.9,36.4,85.5z"/>
		<path class="st7" d="M41.3,85c0,0.3-0.1,0.5-0.4,0.6c-0.1-0.1-0.3-0.1-0.5-0.1c-0.7,0-1.5,2.4-1.4,3.7l-1,0.2
			c0.3-1.3,0.5-2.9,0.5-3.4c0-0.5,0-0.6-0.2-0.6c-0.2,0-0.4,0-0.6,0.2c-0.1-0.1-0.1-0.3,0.5-0.7c0.3-0.2,0.7-0.3,0.8-0.3
			c0.2,0,0.3,0.2,0.3,0.6c0,0.4-0.1,0.9-0.2,1.2l0,0c0.3-0.8,0.8-1.8,1.4-1.8C41,84.5,41.3,84.6,41.3,85z"/>
		<path class="st7" d="M42.5,88.2c0,0.3,0.1,0.4,0.3,0.4c0.1,0,0.4-0.1,0.6-0.3c0.1,0.2,0,0.4-0.4,0.7c-0.3,0.2-0.6,0.3-0.9,0.3
			c-0.3,0-0.5-0.2-0.5-0.7c0-1,0.6-5,0.7-5.8c0-0.4-0.1-0.5-0.3-0.5c-0.2,0-0.4,0-0.6,0c-0.1-0.1,0-0.2,0.1-0.3
			c0.2-0.1,1.2-0.3,1.4-0.3c0.2,0,0.2,0.1,0.2,0.5C43.2,82.8,42.5,87.6,42.5,88.2z"/>
		<path class="st7" d="M47.3,89.4c-0.3,0-0.5-0.3-0.5-0.6c0-0.3,0-0.7,0.1-1.1l0,0c-0.2,0.4-0.8,1.7-1.7,1.7c-0.5,0-1-0.7-1-1.7
			c0-1.9,1.1-3.2,2.7-3.2c0.2,0,0.4,0,0.5,0.1c0.1-0.4,0.2-0.5,0.4-0.5c0.2,0,0.3,0,0.4,0.2c-0.4,1.1-0.7,2.4-0.7,3.3
			c0,0.9,0.1,1.1,0.3,1.1c0.2,0,0.5-0.2,0.6-0.3C48.7,88.6,47.8,89.4,47.3,89.4z M46.4,85.2c-0.8,0-1.4,0.9-1.4,2.2
			c0,0.8,0.2,1.2,0.5,1.2c0.5,0,1.2-0.9,1.5-2.5c0.1-0.3,0.1-0.7,0.1-0.7C46.9,85.3,46.7,85.2,46.4,85.2z"/>
		<path class="st7" d="M50,89.3l-0.2,2l1.2,0.2c0,0.3-0.1,0.4-0.4,0.4c-0.3,0-0.9,0-1.5,0c-0.5,0-0.9,0-1.1,0
			c-0.1-0.2,0-0.4,0.3-0.4c0,0,0.5-0.1,0.8-0.2c0.3-1.7,0.7-5.1,0.7-5.7c0-0.4-0.1-0.4-0.2-0.4c-0.1,0-0.5,0.1-0.7,0.2
			c-0.1-0.1-0.1-0.4,0.4-0.7c0.3-0.2,0.6-0.3,0.9-0.3c0.4,0,0.4,0.1,0.4,0.5c0,0.4-0.1,0.9-0.2,1.3l0.1,0c0.5-1.2,1.2-1.8,1.8-1.8
			s0.9,0.6,0.9,1.7c0,1.8-1,3.2-2.5,3.2C50.4,89.4,50.2,89.3,50,89.3z M50.1,88.6c0.3,0.1,0.5,0.1,0.7,0.1c0.8,0,1.4-1.1,1.4-2.2
			c0-0.8-0.1-1.3-0.5-1.3c-0.3,0-0.8,0.5-1.1,1.1C50.4,87.2,50.2,87.7,50.1,88.6z"/>
		<path class="st7" d="M55,89.3l-0.2,2l1.2,0.2c0,0.3-0.1,0.4-0.4,0.4c-0.3,0-0.9,0-1.5,0c-0.5,0-0.9,0-1.1,0
			c-0.1-0.2,0-0.4,0.3-0.4c0,0,0.5-0.1,0.8-0.2c0.3-1.7,0.7-5.1,0.7-5.7c0-0.4-0.1-0.4-0.2-0.4c-0.1,0-0.5,0.1-0.7,0.2
			c-0.1-0.1-0.1-0.4,0.4-0.7c0.3-0.2,0.6-0.3,0.9-0.3c0.4,0,0.4,0.1,0.4,0.5c0,0.4-0.1,0.9-0.2,1.3l0.1,0c0.5-1.2,1.2-1.8,1.8-1.8
			s0.9,0.6,0.9,1.7c0,1.8-1,3.2-2.5,3.2C55.4,89.4,55.2,89.3,55,89.3z M55.1,88.6c0.3,0.1,0.5,0.1,0.7,0.1c0.8,0,1.4-1.1,1.4-2.2
			c0-0.8-0.1-1.3-0.5-1.3c-0.3,0-0.8,0.5-1.1,1.1C55.4,87.2,55.2,87.7,55.1,88.6z"/>
		<path class="st7" d="M62,85.3c0,0.8-0.5,1.4-2.3,1.9c0,0.9,0.3,1.4,0.9,1.4c0.5,0,0.9-0.2,1.1-0.4c0.1,0,0.1,0.1,0.1,0.2
			c0,0.5-0.8,0.9-1.7,0.9c-0.8,0-1.2-0.6-1.2-1.8c0-1.6,1.1-3.1,2.1-3.1C61.8,84.5,62,84.8,62,85.3z M61.2,85.5
			c0-0.2-0.1-0.4-0.5-0.4c-0.4,0-0.9,0.8-1,1.6C61.1,86.2,61.2,85.9,61.2,85.5z"/>
		<path class="st7" d="M66.5,89.1c-0.3,0.2-0.5,0.3-0.7,0.3c-0.3,0-0.5-0.3-0.5-0.7c0-0.4,0.1-0.8,0.2-1l-0.1,0
			c-0.2,0.6-1,1.8-1.7,1.8c-0.6,0-1-0.6-1-1.8c0-1.6,1.1-3.1,2.7-3.1c0.1,0,0.3,0,0.4,0.1c0,0,0.2-1.4,0.2-1.7c0-0.4,0-0.6-0.3-0.6
			s-0.4,0-0.6,0c-0.1-0.1,0-0.2,0.1-0.3c0.3-0.1,1.1-0.3,1.4-0.3c0.2,0,0.2,0.1,0.2,0.5c0,0.7-0.7,4.8-0.7,5.6
			c0,0.7,0.1,0.8,0.2,0.8c0.2,0,0.5-0.2,0.6-0.3C67,88.5,66.9,88.8,66.5,89.1z M64.9,85.1c-0.9,0-1.5,0.9-1.5,2.2
			c0,0.8,0.2,1.2,0.5,1.2c0.3,0,0.8-0.5,1.1-1.2c0.2-0.5,0.4-1.2,0.5-2.1C65.4,85.2,65.2,85.1,64.9,85.1z"/>
		<path class="st7" d="M72.2,84.5c0.7,0,1,0.7,1,1.7c0,1.9-1.2,3.2-2.6,3.2c-0.5,0-0.9-0.1-1.3-0.2c0.3-1.7,0.8-5.7,0.8-6.3
			c0-0.4-0.1-0.5-0.3-0.5c-0.1,0-0.5,0-0.7,0C69,82.2,69,82.1,69.2,82c0.2-0.1,1.2-0.3,1.4-0.3c0.2,0,0.2,0.1,0.2,0.6
			c0,0.4-0.3,2.5-0.4,3.1c-0.1,0.5-0.1,0.6-0.2,0.9l0.1,0C70.9,85.1,71.6,84.5,72.2,84.5z M70.9,88.8c0.8,0,1.5-1,1.5-2.2
			c0-0.9-0.2-1.3-0.5-1.3c-0.7,0-1.7,2.2-1.7,3.4C70.3,88.7,70.5,88.8,70.9,88.8z"/>
		<path class="st7" d="M77,84.8c0.2-0.2,0.5-0.3,1-0.3c-0.2,1-0.6,3.4-0.6,4.2c0,2.1-1,3.3-2.6,3.3c-0.8,0-1.2-0.2-1.2-0.7
			c0-0.2,0.2-0.5,0.4-0.7c0.2,0.4,0.5,0.8,1.1,0.8c1.1,0,1.5-0.8,1.5-2.3c0-0.3,0.1-1,0.3-1.3l-0.1,0c-0.4,1-1.2,1.7-1.9,1.7
			c-0.5,0-0.7-0.3-0.7-0.9c0-0.9,0.4-2,0.4-2.6c0-0.5,0-0.6-0.3-0.6c-0.2,0-0.4,0.1-0.6,0.2c-0.1-0.1-0.1-0.3,0.4-0.6
			c0.4-0.3,0.7-0.3,0.9-0.3c0.4,0,0.4,0.3,0.4,0.9c0,0.5-0.4,2.1-0.4,2.5c0,0.5,0.1,0.7,0.4,0.7c0.3,0,0.9-0.5,1.1-1.1
			C76.9,86.7,77.2,85.7,77,84.8z"/>
		<path class="st7" d="M86.3,82.7c0,0.5-0.4,0.7-1,0.6l-2,3.4l-0.2,1.9l1.1,0.2c0,0.2-0.2,0.4-0.6,0.4c-0.3,0-0.7,0-1.2,0
			c-0.4,0-0.9,0-1.2,0c-0.1-0.1,0-0.4,0.2-0.4l0.8-0.2l0.2-2L81,83.2l-0.5,0c0-0.2,0.1-0.4,0.5-0.4h1.7c0,0.4-0.1,0.5-0.8,0.5
			l1.1,2.7l1.6-2.7l-0.9-0.1c0-0.2,0.1-0.4,0.5-0.4H86.3z"/>
		<path class="st7" d="M22.3,108.8c0,0.3-0.1,0.4-0.5,0.4c-0.3,0-0.8,0-1.3,0c-0.4,0-0.8,0-1,0c0-0.1,0-0.3,0.3-0.4l0.8-0.2
			l-1.1-2.3l-1.9,2.3l0.9,0.2c0,0.2-0.2,0.3-0.5,0.3c-0.3,0-0.6,0-0.9,0c-0.3,0-0.6,0-0.9,0c-0.1-0.2,0-0.3,0.2-0.4l0.5-0.1l2.3-2.8
			l-1.3-2.6l-0.9-0.1c0-0.3,0.1-0.5,0.5-0.5h2.3c0,0.3-0.2,0.4-0.5,0.5l-0.5,0l0.9,1.9l1.6-1.9l-0.7-0.1c0-0.2,0.1-0.4,0.5-0.4h1.8
			c0.1,0.5-0.4,0.7-1,0.6l-1.9,2.3l1.4,3L22.3,108.8z"/>
		<path class="st7" d="M28.6,109.1c-0.3,0.2-0.5,0.3-0.7,0.3c-0.3,0-0.5-0.3-0.5-0.7c0-0.4,0.1-0.8,0.2-1l-0.1,0
			c-0.2,0.6-1,1.8-1.7,1.8c-0.6,0-1-0.6-1-1.8c0-1.6,1.1-3.1,2.7-3.1c0.1,0,0.3,0,0.4,0.1c0,0,0.2-1.4,0.2-1.7c0-0.4,0-0.6-0.3-0.6
			s-0.4,0-0.6,0c-0.1-0.1,0-0.2,0.1-0.3c0.3-0.1,1.1-0.3,1.4-0.3c0.2,0,0.2,0.1,0.2,0.5c0,0.7-0.7,4.8-0.7,5.6
			c0,0.7,0.1,0.8,0.2,0.8c0.2,0,0.5-0.2,0.6-0.3C29.1,108.5,29,108.8,28.6,109.1z M27,105.1c-0.9,0-1.5,0.9-1.5,2.2
			c0,0.8,0.2,1.2,0.5,1.2c0.3,0,0.8-0.5,1.1-1.2c0.2-0.5,0.4-1.2,0.5-2.1C27.5,105.2,27.3,105.1,27,105.1z"/>
		<path class="st7" d="M32.4,108.8c0-0.3,0-0.8,0.1-1.1l0,0c-0.5,1-1.1,1.7-1.9,1.7c-0.5,0-0.7-0.3-0.7-0.9c0-0.9,0.4-2.1,0.4-2.7
			c0-0.4-0.1-0.5-0.2-0.5c-0.3,0-0.5,0.1-0.7,0.2c-0.1-0.1-0.1-0.3,0.4-0.6c0.4-0.3,0.7-0.3,0.9-0.3c0.4,0,0.4,0.4,0.4,0.9
			c0,0.5-0.4,2.1-0.4,2.5c0,0.5,0.1,0.7,0.4,0.7c0.3,0,0.8-0.6,1.1-1.2c0.4-0.8,0.7-1.8,0.5-2.7c0.2-0.2,0.6-0.3,1-0.3
			c-0.2,1-0.6,3-0.6,3.5c0,0.5,0.1,0.6,0.3,0.6c0.2,0,0.4-0.1,0.5-0.2c0.2,0.1,0.1,0.3-0.4,0.7c-0.2,0.2-0.7,0.3-0.8,0.3
			C32.4,109.4,32.4,109.2,32.4,108.8z"/>
		<path class="st7" d="M38.2,105c0,0.3-0.1,0.5-0.4,0.6c-0.1-0.1-0.3-0.1-0.5-0.1c-0.7,0-1.5,2.4-1.4,3.7l-1,0.2
			c0.3-1.3,0.5-2.9,0.5-3.4c0-0.5,0-0.6-0.2-0.6c-0.2,0-0.4,0-0.6,0.2c-0.1-0.1-0.1-0.3,0.5-0.7c0.3-0.2,0.7-0.3,0.8-0.3
			c0.2,0,0.3,0.2,0.3,0.6c0,0.4-0.1,0.9-0.2,1.2l0,0c0.3-0.8,0.8-1.8,1.4-1.8C37.9,104.5,38.2,104.6,38.2,105z"/>
		<path class="st7" d="M39.9,105.1c0,0.4-0.5,2.5-0.5,2.9c0,0.5,0.1,0.6,0.2,0.6c0.2,0,0.5-0.2,0.7-0.3c0.4,0.3-0.6,1.1-1.2,1.1
			c-0.3,0-0.5-0.2-0.5-0.6c0-0.6,0.5-2.9,0.5-3.2c0-0.2-0.1-0.3-0.2-0.3c-0.2,0-0.4,0.1-0.6,0.2c-0.1-0.1-0.1-0.3,0.2-0.5
			c0.3-0.2,0.6-0.4,1-0.4C39.8,104.5,39.9,104.7,39.9,105.1z M40.3,102.5c0,0.4-0.2,0.7-0.6,0.7c-0.3,0-0.5-0.2-0.5-0.5
			c0-0.5,0.3-0.7,0.6-0.7C40.1,101.9,40.3,102.1,40.3,102.5z"/>
		<path class="st7" d="M42.6,105.1c0,0.2,0,0.8-0.2,1.1l0,0c0.5-1.1,1.2-1.7,1.9-1.7c0.5,0,0.7,0.3,0.7,0.9c0,0.5-0.4,2-0.4,2.6
			c0,0.4,0.1,0.5,0.2,0.5c0.2,0,0.5-0.1,0.6-0.3c0.3,0.2-0.5,1.1-1.2,1.1c-0.3,0-0.5-0.2-0.5-0.9c0-0.5,0.4-2.1,0.4-2.5
			c0-0.5-0.1-0.6-0.4-0.6c-0.3,0-0.8,0.6-1.1,1.1c-0.5,1-0.6,1.8-0.6,2.7l-1,0.1c0.3-1.4,0.6-3.1,0.6-3.5c0-0.5-0.1-0.6-0.2-0.6
			c-0.2,0-0.4,0.1-0.6,0.2c-0.1-0.2-0.1-0.3,0.5-0.7c0.3-0.2,0.7-0.3,0.8-0.3C42.5,104.5,42.6,104.6,42.6,105.1z"/>
		<path class="st7" d="M49.5,108.7c0.2,2.1-1,3.3-2.5,3.3c-0.9,0-1.5-0.5-1.5-1c0-0.4,0.4-0.7,0.8-0.7c0,0.1,0,0.2,0,0.2
			c0,0.4,0.3,0.8,1.1,0.8c0.8,0,1.4-1,1.3-2.4c0-0.3,0-0.9,0.1-1.3l-0.1,0c-0.5,1.1-1.1,1.7-1.7,1.7c-0.7,0-0.9-1-0.9-1.7
			c0-1.8,1.1-3.2,2.5-3.2c0.6,0,1,0.1,1.3,0.3C49.5,106.7,49.5,108,49.5,108.7z M49.1,105.4c-0.1-0.1-0.4-0.2-0.8-0.2
			c-0.7,0-1.3,1.1-1.3,2.2c0,0.7,0.2,1.2,0.4,1.2C48.1,108.6,48.8,107,49.1,105.4z"/>
		<path class="st7" d="M58.2,102.7c0,0.5-0.4,0.7-1,0.6l-2,3.4l-0.2,1.9l1.1,0.2c0,0.2-0.2,0.4-0.6,0.4c-0.3,0-0.7,0-1.2,0
			c-0.4,0-0.9,0-1.2,0c-0.1-0.1,0-0.4,0.2-0.4l0.8-0.2l0.2-2l-1.4-3.5l-0.5,0c0-0.2,0.1-0.4,0.5-0.4h1.7c0,0.4-0.1,0.5-0.8,0.5
			l1.1,2.7l1.6-2.7l-0.9-0.1c0-0.2,0.1-0.4,0.5-0.4H58.2z"/>
		<path class="st8" d="M22.3,128.8c0,0.3-0.1,0.4-0.5,0.4c-0.3,0-0.8,0-1.3,0c-0.4,0-0.8,0-1,0c0-0.1,0-0.3,0.3-0.4l0.8-0.2
			l-1.1-2.3l-1.9,2.3l0.9,0.2c0,0.2-0.2,0.3-0.5,0.3c-0.3,0-0.6,0-0.9,0c-0.3,0-0.6,0-0.9,0c-0.1-0.2,0-0.3,0.2-0.4l0.5-0.1l2.3-2.8
			l-1.3-2.6l-0.9-0.1c0-0.3,0.1-0.5,0.5-0.5h2.3c0,0.3-0.2,0.4-0.5,0.5l-0.5,0l0.9,1.9l1.6-1.9l-0.7-0.1c0-0.2,0.1-0.4,0.5-0.4h1.8
			c0.1,0.5-0.4,0.7-1,0.6l-1.9,2.3l1.4,3L22.3,128.8z"/>
		<path class="st8" d="M27.8,129.4c-0.3,0-0.5-0.3-0.5-0.6c0-0.3,0-0.7,0.1-1.1l0,0c-0.2,0.4-0.8,1.7-1.7,1.7c-0.5,0-1-0.7-1-1.7
			c0-1.9,1.1-3.2,2.7-3.2c0.2,0,0.4,0,0.5,0.1c0.1-0.4,0.2-0.5,0.4-0.5c0.2,0,0.3,0,0.4,0.2c-0.4,1.1-0.7,2.4-0.7,3.3
			c0,0.9,0.1,1.1,0.3,1.1c0.2,0,0.5-0.2,0.6-0.3C29.3,128.6,28.4,129.4,27.8,129.4z M26.9,125.2c-0.8,0-1.4,0.9-1.4,2.2
			c0,0.8,0.2,1.2,0.5,1.2c0.5,0,1.2-0.9,1.5-2.5c0.1-0.3,0.1-0.7,0.1-0.7C27.5,125.3,27.3,125.2,26.9,125.2z"/>
		<path class="st8" d="M32.6,121.6c0.7,0,0.9,0.3,0.9,0.5c0,0.2-0.1,0.4-0.3,0.6c-0.3-0.3-0.5-0.4-0.9-0.4c-0.5,0-1,0.7-1.2,2.5
			c0.2,0,0.3,0,0.6,0c0.2,0,0.3,0,0.4,0c0.2,0.5,0,0.7-0.6,0.6c-0.2,0-0.2,0-0.4,0c-0.1,1.5-0.2,2.6-0.5,4c-0.3,1.6-1.1,2.7-2.2,2.7
			c-0.6,0-0.9-0.2-0.9-0.5c0-0.2,0.1-0.4,0.4-0.5c0.2,0.3,0.4,0.4,0.8,0.4c0.5,0,0.9-0.5,1.1-1.8c0.2-1,0.3-2.3,0.5-4.2
			c0,0-0.5,0-0.7,0c-0.1-0.4,0-0.6,0.8-0.6C30.5,122.7,31.4,121.6,32.6,121.6z"/>
		<path class="st8" d="M34,125.3c-0.2,1-0.3,2-0.3,2.5c0,0.6,0,0.8,0.3,0.8c0.2,0,0.5-0.2,0.8-0.5c0.2,0.2,0.1,0.5-0.3,0.9
			c-0.4,0.3-0.7,0.4-1.1,0.4c-0.5,0-0.7-0.3-0.6-1.1c0-0.5,0.2-2.1,0.4-3.1l-0.7-0.1c-0.1-0.2,0-0.4,0.3-0.4c0.1,0,0.3,0,0.4,0
			l0.2-1.1c0.2-0.1,0.5-0.2,0.8-0.2l-0.2,1.4c0.2,0,1,0,1.2,0c0.2,0.3,0,0.7-0.4,0.7C34.6,125.3,34.1,125.3,34,125.3z"/>
		<path class="st8" d="M38.9,125.3c0,0.8-0.5,1.4-2.3,1.9c0,0.9,0.3,1.4,0.9,1.4c0.5,0,0.9-0.2,1.1-0.4c0.1,0,0.1,0.1,0.1,0.2
			c0,0.5-0.8,0.9-1.7,0.9c-0.8,0-1.2-0.6-1.2-1.8c0-1.6,1.1-3.1,2.1-3.1C38.7,124.5,38.9,124.8,38.9,125.3z M38.2,125.5
			c0-0.2-0.1-0.4-0.5-0.4c-0.4,0-0.9,0.8-1,1.6C38.1,126.2,38.2,125.9,38.2,125.5z"/>
		<path class="st8" d="M43.1,125c0,0.3-0.1,0.5-0.4,0.6c-0.1-0.1-0.3-0.1-0.5-0.1c-0.7,0-1.5,2.4-1.4,3.7l-1,0.2
			c0.3-1.3,0.5-2.9,0.5-3.4c0-0.5,0-0.6-0.2-0.6c-0.2,0-0.4,0-0.6,0.2c-0.1-0.1-0.1-0.3,0.5-0.7c0.3-0.2,0.7-0.3,0.8-0.3
			c0.2,0,0.3,0.2,0.3,0.6c0,0.4-0.1,0.9-0.2,1.2l0,0c0.3-0.8,0.8-1.8,1.4-1.8C42.8,124.5,43.1,124.6,43.1,125z"/>
		<path class="st8" d="M50.8,122.7c0,0.5-0.4,0.7-1,0.6l-2,3.4l-0.2,1.9l1.1,0.2c0,0.2-0.2,0.4-0.6,0.4c-0.3,0-0.7,0-1.2,0
			c-0.4,0-0.9,0-1.2,0c-0.1-0.1,0-0.4,0.2-0.4l0.8-0.2l0.2-2l-1.4-3.5l-0.5,0c0-0.2,0.1-0.4,0.5-0.4h1.7c0,0.4-0.1,0.5-0.8,0.5
			l1.1,2.7l1.6-2.7l-0.9-0.1c0-0.2,0.1-0.4,0.5-0.4H50.8z"/>
	</g>
	<g>
		<path class="st7" d="M307.9,8.9c-0.6,0.3-1.3,0.5-2.2,0.5c-1.8,0-3-1.1-3-3.2c0-2.2,1.5-3.5,3.6-3.5c0.7,0,1.3,0.1,1.7,0.3l-0.2,1
			c-0.1,0.4-0.3,0.5-0.6,0.4l0.1-1c-0.2-0.1-0.7-0.2-1.1-0.2c-1.4,0-2.5,0.8-2.5,2.5c0,2.2,1,3,2.3,3c0.6,0,1.1-0.1,1.4-0.2l0.2-0.7
			c0.1-0.2,0.2-0.4,0.6-0.3L307.9,8.9z"/>
		<path class="st7" d="M313.7,9.2c-0.2,0-0.5,0-0.9,0c-0.5,0-0.9,0-1.2,0c-0.1-0.2,0-0.3,0.2-0.4c0,0,0.3-0.1,0.6-0.2V6.4
			c0-1-0.2-1.2-0.9-1.2c-0.4,0-0.6,0.1-1.2,0.6v2.9l0.8,0.2c0,0.4-0.4,0.3-0.4,0.3c-0.3,0-0.6,0-0.9,0c-0.4,0-0.7,0-1,0
			c0-0.1,0-0.3,0.2-0.3l0.6-0.2V2.3l-0.8-0.1c-0.1-0.1,0-0.3,0.2-0.4l1.5-0.3v3.6c0.7-0.6,1-0.8,1.6-0.8c0.9,0,1.3,0.5,1.3,1.7
			c0,0,0-0.5,0,2.5l0.8,0.2C314.1,9.2,313.7,9.2,313.7,9.2z"/>
		<path class="st7" d="M317.9,9.4c-0.4,0-0.6-0.2-0.8-0.6c-0.3,0.4-0.8,0.6-1.4,0.6c-0.6,0-1.2-0.5-1.2-1.2c0-0.6,0.3-1,1.2-1.1
			l1.3-0.2c0,0,0-0.4,0-0.5c0-0.8-0.2-1.2-0.6-1.2c-0.6,0-1,0.2-1,0.9c-0.5,0-0.7-0.1-0.7-0.3c0-0.2,0.1-0.4,0.5-0.7
			c0.5-0.3,1-0.5,1.6-0.5c0.9,0,1.2,0.7,1.2,1.5c0,0.3,0,0.7,0,1c0,0.3,0,0.8,0,1.2c0,0.4,0.2,0.6,0.7,0.7
			C318.4,9.2,318.2,9.4,317.9,9.4z M317,7.3l-1,0.2c-0.4,0.1-0.5,0.3-0.5,0.5c0,0.4,0.4,0.7,0.7,0.7c0.3,0,0.6-0.1,0.9-0.3
			C317,8.2,317,7.3,317,7.3z"/>
		<path class="st7" d="M324,9.2c-0.4,0-0.7,0-1.1,0s-0.6,0-1,0c-0.1-0.2,0-0.3,0.2-0.4l0.6-0.2V6.3c0-0.7-0.1-1.2-0.9-1.2
			c-0.4,0-0.7,0.2-1.2,0.6v2.9l0.8,0.2c0,0.2-0.2,0.3-0.4,0.3c-0.3,0-0.6,0-0.9,0c-0.3,0-0.7,0-1,0c0-0.2,0-0.3,0.2-0.4l0.5-0.2V5.2
			l-0.8-0.1c-0.1-0.2,0-0.3,0.2-0.4l1.5-0.3v0.8c0.4-0.4,0.9-0.8,1.6-0.8c1.2,0,1.4,0.7,1.4,1.7v2.5l0.8,0.2
			C324.4,9.1,324.2,9.2,324,9.2z"/>
		<path class="st7" d="M329,5.2c-0.2,0-0.2,0-0.4,0c0.2,0.3,0.4,0.5,0.4,0.9c0,1.1-0.8,1.9-2.1,1.9c-0.1,0-0.3,0-0.5-0.1
			c-0.2,0.3-0.3,0.5-0.3,0.6c0,0.2,0.3,0.4,1.4,0.4c1.2,0,1.9,0.4,1.9,1.1c0,1-1.3,2-2.7,2c-1.2,0-1.9-0.4-1.9-1.2
			c0-0.6,0.3-1,0.9-1.4c-0.4-0.2-0.5-0.4-0.5-0.6c0-0.3,0.1-0.5,0.7-1C325.4,7.5,325,7,325,6.4c0-1.2,0.9-1.9,2.1-1.9
			c0.2,0,0.5,0.1,0.6,0.1c0.1,0,0.5,0,0.9,0c0.4,0,0.6,0,0.8,0c0,0.1,0,0.1,0,0.2C329.5,5.1,329.2,5.2,329,5.2z M327.2,9.6
			c-0.5,0-0.7,0-1-0.1c-0.3,0.2-0.5,0.6-0.5,0.9c0,0.6,0.5,1,1.3,1c0.8,0,1.5-0.5,1.5-1C328.5,9.9,328.2,9.6,327.2,9.6z M326.9,5
			c-0.6,0-1,0.5-1,1.2c0,0.7,0.5,1.3,1.1,1.3c0.7,0,1-0.6,1-1.1C328,5.6,327.7,5,326.9,5z"/>
		<path class="st7" d="M333.8,6.5H331c0,0.1,0,0.2,0,0.3c0,1.2,0.6,1.8,1.6,1.8c0.5,0,0.9-0.2,1.2-0.4c0,0,0.1,0.1,0.1,0.2
			c0,0.4-0.8,0.9-1.8,0.9c-0.9,0-1.9-0.6-1.9-2.2c0-1.7,1.1-2.7,2.2-2.7c0.9,0,1.5,0.6,1.5,1.4C333.9,6.1,333.8,6.4,333.8,6.5z
			 M331.1,6.1l1.9,0c0.1-0.6-0.3-1-0.9-1C331.7,5,331.2,5.4,331.1,6.1z"/>
		<path class="st7" d="M339.1,9.2l-1.2,0.2V8.7c-0.4,0.5-0.8,0.7-1.4,0.7c-1,0-1.8-0.8-1.8-2.2c0-1.7,1.1-2.7,2.4-2.7
			c0.3,0,0.6,0,0.8,0.1V2.4l-0.9-0.1c-0.1-0.2,0-0.3,0.3-0.4l1.5-0.3v6.9l0.9,0.1C339.6,9,339.4,9.1,339.1,9.2z M337.8,5.4
			c-0.3-0.2-0.6-0.3-1-0.3c-0.8,0-1.3,0.5-1.3,1.8c0,1.1,0.5,1.9,1.3,1.9c0.3,0,0.8-0.2,1-0.5V5.4z"/>
		<path class="st7" d="M322.8,48.9c-0.3,0.3-0.5,0.4-0.8,0.4c-0.5,0-0.6-0.2-1.2-1.9l-0.4,0.3c-0.4,0.3-0.6,0.6-0.6,1.1
			c0,0.2,0,0.3,0.1,0.4c-0.1,0-0.3,0.1-0.4,0.1c-0.4,0-0.6-0.1-0.6-0.6c0-0.4,0.4-0.9,1.1-1.4l0.6-0.4c-0.5-1.5-0.6-1.6-0.8-1.6
			c-0.3,0-0.3,0.1-0.6,0.3c-0.2-0.1-0.2-0.3,0.1-0.7c0.3-0.3,0.5-0.3,0.8-0.3c0.4,0,0.5,0.1,1,1.9l0.4-0.3c0.4-0.3,0.5-0.5,0.5-1
			c0-0.1,0-0.3-0.1-0.4c0.1-0.2,0.4-0.3,0.6-0.3c0.2,0,0.4,0.2,0.4,0.5c0,0.4-0.3,0.9-1,1.5c0,0-0.3,0.2-0.6,0.5
			c0.5,1.4,0.6,1.7,0.9,1.7c0.2,0,0.4-0.1,0.6-0.3C323.1,48.5,323.1,48.6,322.8,48.9z"/>
		<path class="st7" d="M322.8,88.9c-0.3,0.3-0.5,0.4-0.8,0.4c-0.5,0-0.6-0.2-1.2-1.9l-0.4,0.3c-0.4,0.3-0.6,0.6-0.6,1.1
			c0,0.2,0,0.3,0.1,0.4c-0.1,0-0.3,0.1-0.4,0.1c-0.4,0-0.6-0.1-0.6-0.6c0-0.4,0.4-0.9,1.1-1.4l0.6-0.4c-0.5-1.5-0.6-1.6-0.8-1.6
			c-0.3,0-0.3,0.1-0.6,0.3c-0.2-0.1-0.2-0.3,0.1-0.7c0.3-0.3,0.5-0.3,0.8-0.3c0.4,0,0.5,0.1,1,1.9l0.4-0.3c0.4-0.3,0.5-0.5,0.5-1
			c0-0.1,0-0.3-0.1-0.4c0.1-0.2,0.4-0.3,0.6-0.3c0.2,0,0.4,0.2,0.4,0.5c0,0.4-0.3,0.9-1,1.5c0,0-0.3,0.2-0.6,0.5
			c0.5,1.4,0.6,1.7,0.9,1.7c0.2,0,0.4-0.1,0.6-0.3C323.1,88.5,323.1,88.6,322.8,88.9z"/>
		<path class="st7" d="M322.8,108.9c-0.3,0.3-0.5,0.4-0.8,0.4c-0.5,0-0.6-0.2-1.2-1.9l-0.4,0.3c-0.4,0.3-0.6,0.6-0.6,1.1
			c0,0.2,0,0.3,0.1,0.4c-0.1,0-0.3,0.1-0.4,0.1c-0.4,0-0.6-0.1-0.6-0.6c0-0.4,0.4-0.9,1.1-1.4l0.6-0.4c-0.5-1.5-0.6-1.6-0.8-1.6
			c-0.3,0-0.3,0.1-0.6,0.3c-0.2-0.1-0.2-0.3,0.1-0.7c0.3-0.3,0.5-0.3,0.8-0.3c0.4,0,0.5,0.1,1,1.9l0.4-0.3c0.4-0.3,0.5-0.5,0.5-1
			c0-0.1,0-0.3-0.1-0.4c0.1-0.2,0.4-0.3,0.6-0.3c0.2,0,0.4,0.2,0.4,0.5c0,0.4-0.3,0.9-1,1.5c0,0-0.3,0.2-0.6,0.5
			c0.5,1.4,0.6,1.7,0.9,1.7c0.2,0,0.4-0.1,0.6-0.3C323.1,108.5,323.1,108.6,322.8,108.9z"/>
	</g>
	<g>
		<path class="st7" d="M358.3,3.2l-0.4,0.1v6c-0.1,0.1-0.3,0.1-0.4,0.1c-0.2,0-0.4-0.1-0.7-0.5l-3.3-4.4v4.2l1,0.2
			c0,0.2-0.2,0.4-0.4,0.4c-0.3,0-0.7,0-1.1,0c-0.4,0-0.8,0-1,0c-0.1-0.2,0-0.3,0.2-0.4l0.6-0.2V3.3l-0.8-0.1c-0.1-0.2,0-0.5,0.5-0.5
			h0.9l3.9,5.1V3.3l-0.8-0.1c-0.1-0.3,0.1-0.5,0.5-0.5h1.8C358.7,3,358.6,3.2,358.3,3.2z"/>
		<path class="st7" d="M362.7,6.5H360c0,0.1,0,0.2,0,0.3c0,1.2,0.6,1.8,1.6,1.8c0.5,0,0.9-0.2,1.2-0.4c0,0,0.1,0.1,0.1,0.2
			c0,0.4-0.8,0.9-1.8,0.9c-0.9,0-1.9-0.6-1.9-2.2c0-1.7,1.1-2.7,2.2-2.7c0.9,0,1.5,0.6,1.5,1.4C362.8,6.1,362.8,6.4,362.7,6.5z
			 M360,6.1l1.9,0c0.1-0.6-0.3-1-0.9-1C360.6,5,360.2,5.4,360,6.1z"/>
		<path class="st7" d="M369.8,5.2l-1.2,3.4c-0.2,0.6-0.4,0.8-0.8,0.8l-1.2-3.2L366,8.5c-0.2,0.6-0.4,0.8-0.8,0.9l-1.6-4.3l-0.5,0
			c-0.1-0.3,0-0.5,0.5-0.5h1.8c0,0.4-0.1,0.5-0.9,0.5l1,2.9l1.3-3.5h0.3l1.2,3.5l0.9-3L368.5,5c0-0.3,0.2-0.4,0.6-0.4h1.4
			C370.6,5,370.3,5.3,369.8,5.2z"/>
		<path class="st7" d="M362.8,48.9c-0.3,0.3-0.5,0.4-0.8,0.4c-0.5,0-0.6-0.2-1.2-1.9l-0.4,0.3c-0.4,0.3-0.6,0.6-0.6,1.1
			c0,0.2,0,0.3,0.1,0.4c-0.1,0-0.3,0.1-0.4,0.1c-0.4,0-0.6-0.1-0.6-0.6c0-0.4,0.4-0.9,1.1-1.4l0.6-0.4c-0.5-1.5-0.6-1.6-0.8-1.6
			c-0.3,0-0.3,0.1-0.6,0.3c-0.2-0.1-0.2-0.3,0.2-0.7c0.3-0.3,0.5-0.3,0.8-0.3c0.4,0,0.5,0.1,1,1.9l0.4-0.3c0.4-0.3,0.5-0.5,0.5-1
			c0-0.1-0.1-0.3-0.1-0.4c0.1-0.2,0.4-0.3,0.6-0.3c0.2,0,0.5,0.2,0.5,0.5c0,0.4-0.3,0.9-1,1.5c0,0-0.3,0.2-0.6,0.5
			c0.5,1.4,0.6,1.7,0.9,1.7c0.2,0,0.4-0.1,0.6-0.3C363.1,48.5,363.1,48.6,362.8,48.9z"/>
		<path class="st7" d="M362.8,108.9c-0.3,0.3-0.5,0.4-0.8,0.4c-0.5,0-0.6-0.2-1.2-1.9l-0.4,0.3c-0.4,0.3-0.6,0.6-0.6,1.1
			c0,0.2,0,0.3,0.1,0.4c-0.1,0-0.3,0.1-0.4,0.1c-0.4,0-0.6-0.1-0.6-0.6c0-0.4,0.4-0.9,1.1-1.4l0.6-0.4c-0.5-1.5-0.6-1.6-0.8-1.6
			c-0.3,0-0.3,0.1-0.6,0.3c-0.2-0.1-0.2-0.3,0.2-0.7c0.3-0.3,0.5-0.3,0.8-0.3c0.4,0,0.5,0.1,1,1.9l0.4-0.3c0.4-0.3,0.5-0.5,0.5-1
			c0-0.1-0.1-0.3-0.1-0.4c0.1-0.2,0.4-0.3,0.6-0.3c0.2,0,0.5,0.2,0.5,0.5c0,0.4-0.3,0.9-1,1.5c0,0-0.3,0.2-0.6,0.5
			c0.5,1.4,0.6,1.7,0.9,1.7c0.2,0,0.4-0.1,0.6-0.3C363.1,108.5,363.1,108.6,362.8,108.9z"/>
	</g>
	<g>
		<path class="st7" d="M200.5,9.2c-0.3,0-0.8,0-1.2,0c-0.4,0-0.8,0-1.1,0c-0.1-0.1,0-0.4,0.3-0.4l0.6-0.1l-1.3-2.1l-1.5,2.1l0.9,0.2
			c0,0.3-0.2,0.4-0.4,0.4c-0.3,0-0.6,0-1,0c-0.3,0-0.7,0-1,0c-0.1-0.2,0-0.4,0.2-0.4l0.5-0.1l1.9-2.7l-1.7-2.7l-0.7-0.1
			c0-0.3,0.1-0.5,0.4-0.5h2.4c0.1,0.4-0.3,0.5-0.9,0.5l1.2,1.8l1.3-1.9l-0.7-0.1c0-0.2,0.2-0.4,0.5-0.4h1.8c0.2,0.5-0.2,0.7-0.9,0.6
			l-1.6,2.3l1.9,3l0.8,0.1C201,9,200.9,9.2,200.5,9.2z"/>
		<path class="st7" d="M207.3,5.2L206,8.6c-0.2,0.4-0.3,0.7-0.8,0.8l-1.8-4.3l-0.5,0c-0.1-0.3,0-0.5,0.5-0.5h1.7
			c0,0.4-0.3,0.5-0.7,0.5l1.2,3l1.1-3L206,4.9c0-0.4,0.4-0.4,0.6-0.4h1.3C208,5.1,207.7,5.2,207.3,5.2z"/>
		<path class="st7" d="M211.7,6.5h-2.8c0,0.1,0,0.2,0,0.3c0,1.2,0.6,1.8,1.6,1.8c0.5,0,0.9-0.2,1.2-0.4c0,0,0.1,0.1,0.1,0.2
			c0,0.4-0.8,0.9-1.8,0.9c-0.9,0-1.9-0.6-1.9-2.2c0-1.7,1.1-2.7,2.2-2.7c0.9,0,1.5,0.6,1.5,1.4C211.8,6.1,211.7,6.4,211.7,6.5z
			 M209,6.1l1.9,0c0.1-0.6-0.3-1-0.9-1C209.6,5,209.1,5.4,209,6.1z"/>
		<path class="st7" d="M215.5,5.6c-0.2-0.1-0.4-0.1-0.5-0.1c-0.3,0-0.6,0.2-1,0.6v2.6c0,0,0.8,0.1,1.1,0.2c0,0.2-0.2,0.3-0.4,0.3
			c-0.4,0-0.8,0-1.2,0c-0.4,0-0.8,0-1.2,0c0-0.1,0-0.3,0.2-0.3l0.7-0.2V5.2l-0.8-0.1c-0.1-0.2,0-0.3,0.2-0.4l1.5-0.3v1.3
			c0.3-0.7,0.8-1.3,1.3-1.3c0.3,0,0.5,0.1,0.5,0.5C215.8,5.2,215.6,5.4,215.5,5.6z"/>
		<path class="st7" d="M217.8,9.4c-1,0-1.5-0.3-1.5-1c0-0.5,0.3-0.6,0.8-0.5c0,0.7,0.2,1,1,1c0.6,0,0.8-0.3,0.8-0.7
			c0-0.4-0.2-0.6-1.2-0.9c-0.5-0.2-1.1-0.5-1.1-1.3c0-0.8,0.7-1.4,1.7-1.4c0.6,0,0.9,0.1,1.3,0.2l-0.1,0.6c-0.1,0.4-0.2,0.5-0.6,0.4
			l0-0.6c-0.1-0.1-0.3-0.1-0.7-0.1c-0.6,0-0.8,0.3-0.8,0.6c0,0.4,0.4,0.7,1,0.9c0.8,0.3,1.3,0.6,1.3,1.4
			C219.7,8.9,218.8,9.4,217.8,9.4z"/>
		<path class="st7" d="M225.2,9.2l-1.3,0.2V8.5c-0.3,0.4-0.8,0.9-1.6,0.9c-1,0-1.4-0.5-1.4-1.6V5.2l-0.8-0.1c-0.1-0.1,0-0.3,0.2-0.4
			l1.5-0.3v2.9c0,1,0.2,1.4,1,1.4c0.4,0,0.8-0.3,1.1-0.6V5.2l-0.8-0.1c-0.1-0.1,0-0.3,0.2-0.4l1.5-0.3v4.1l0.9,0.1
			C225.7,9,225.6,9.1,225.2,9.2z"/>
		<path class="st7" d="M227.6,9.4c-1,0-1.5-0.3-1.5-1c0-0.5,0.3-0.6,0.8-0.5c0,0.7,0.2,1,1,1c0.6,0,0.8-0.3,0.8-0.7
			c0-0.4-0.2-0.6-1.2-0.9c-0.5-0.2-1.1-0.5-1.1-1.3c0-0.8,0.7-1.4,1.7-1.4c0.6,0,0.9,0.1,1.3,0.2l-0.1,0.6c-0.1,0.4-0.2,0.5-0.6,0.4
			l0-0.6C228.5,5.1,228.3,5,228,5c-0.6,0-0.8,0.3-0.8,0.6c0,0.4,0.4,0.7,1,0.9c0.8,0.3,1.3,0.6,1.3,1.4
			C229.5,8.9,228.6,9.4,227.6,9.4z"/>
		<path class="st7" d="M236.9,3.3l-1.7,3.3v2l1,0.2c0,0.2-0.2,0.4-0.5,0.4c-0.3,0-0.7,0-1.2,0c-0.4,0-0.9,0-1.2,0
			c0-0.1,0-0.3,0.2-0.4l0.7-0.2v-2l-1.9-3.4l-0.6,0c-0.1-0.2,0.1-0.5,0.5-0.5h1.8c0,0.3-0.1,0.5-0.7,0.5l1.5,2.7l1.4-2.7l-0.8-0.1
			c-0.1-0.2,0.2-0.4,0.4-0.4h1.9C237.9,3.2,237.6,3.4,236.9,3.3z"/>
	</g>
	<g>
		<path class="st7" d="M96.2,9.4c-1.1,0-1.9-0.4-1.9-1.2c0-0.4,0.4-0.7,0.8-0.7c0,0.9,0.4,1.3,1.4,1.3c0.8,0,1.3-0.6,1.3-1.1
			c0-0.6-0.3-1-1.7-1.5c-1-0.4-1.5-0.9-1.5-1.6c0-1.2,1.1-1.9,2.3-1.9c0.6,0,1.3,0.1,1.6,0.2l-0.1,1.1c0,0.4-0.3,0.5-0.6,0.5l0-0.9
			c-0.3-0.1-0.7-0.2-1.2-0.2c-0.6,0-1.2,0.4-1.2,1c0,0.6,0.5,1,1.4,1.3c1.2,0.4,1.8,0.8,1.8,1.9C98.7,8.5,97.5,9.4,96.2,9.4z"/>
		<path class="st7" d="M103.5,5.2c-0.6,1.6-2,4.9-2,4.9c-0.5,1.3-1.2,1.9-2,1.9c-0.4,0-0.7-0.2-0.7-0.6c0-0.1,0-0.2,0.1-0.4
			c0.2,0.1,0.5,0.2,0.7,0.2c0.5,0,1-0.4,1.7-2.1l-1.7-4l-0.5,0c-0.1-0.2,0-0.5,0.5-0.5h1.6c0,0.4-0.2,0.5-0.7,0.5l1.2,2.8l1.1-2.9
			l-0.6-0.1c0-0.2,0.1-0.3,0.6-0.3h1.3C104.3,5,103.9,5.2,103.5,5.2z"/>
		<path class="st7" d="M112.3,9.2c-0.4,0-0.7,0-1.1,0s-0.6,0-1,0c-0.1-0.2,0-0.3,0.2-0.4l0.6-0.2V6.4c0-0.8-0.2-1.2-1.1-1.2
			c-0.4,0-0.8,0.3-1,0.5c0,0.2,0,0.3,0,0.5v2.5l0.8,0.2c0,0.2-0.2,0.3-0.4,0.3c-0.4,0-0.7,0-1.1,0s-0.6,0-1,0
			c-0.1-0.2,0-0.3,0.2-0.4l0.6-0.2V6.4c0-0.7-0.1-1.2-0.9-1.2c-0.4,0-0.7,0.2-1.2,0.6v2.9l0.8,0.2c0,0.2-0.2,0.3-0.4,0.3
			c-0.3,0-0.6,0-0.9,0s-0.7,0-1,0c-0.1-0.2,0-0.3,0.2-0.3l0.5-0.2V5.2l-0.8-0.1c-0.1-0.1,0-0.3,0.2-0.4l1.5-0.3v0.8
			c0.5-0.4,0.9-0.8,1.6-0.8c0.7,0,1.1,0.3,1.2,0.8c0.5-0.4,1-0.8,1.6-0.8c1,0,1.4,0.5,1.4,1.7v2.5l0.8,0.2
			C112.7,9.1,112.5,9.2,112.3,9.2z"/>
		<path class="st7" d="M115,9.4c-0.8,0-1.3-0.1-1.5-0.2V2.4l-0.8-0.1c-0.1-0.2,0-0.3,0.3-0.4l1.4-0.3v3.5c0.3-0.4,0.9-0.6,1.5-0.6
			c1.3,0,1.8,1,1.8,2.2C117.7,8.4,116.5,9.4,115,9.4z M115.3,5.2c-0.4,0-0.8,0.2-1,0.4v3.1c0.3,0.1,0.5,0.2,0.8,0.2
			c1.2,0,1.6-0.8,1.6-1.9C116.7,6,116.4,5.2,115.3,5.2z"/>
		<path class="st7" d="M120.4,9.4c-1.5,0-2-0.9-2-2.2c0-1.5,0.9-2.7,2.5-2.7c1.2,0,1.9,0.7,1.9,2.1C122.9,8.2,122,9.4,120.4,9.4z
			 M120.6,5.1c-0.8,0-1.3,0.6-1.3,1.8c0,1.3,0.6,1.9,1.4,1.9c0.9,0,1.3-0.7,1.3-1.8C122,5.9,121.5,5.1,120.6,5.1z"/>
		<path class="st7" d="M125.6,9.2c-0.3,0-0.6,0-0.9,0c-0.5,0-0.8,0-1.3,0c-0.1-0.2,0-0.3,0.2-0.4l0.7-0.2V2.4l-0.8-0.1
			c-0.1-0.1,0-0.3,0.2-0.4l1.5-0.3v7.1l0.9,0.2C126,9.1,125.8,9.2,125.6,9.2z"/>
		<path class="st7" d="M112.7,26.4c-0.2,0.2-0.4,0.2-1.6,0.1c-0.7,0-1.5-0.1-1.8,0c-0.2-0.4,0-0.7,0.5-0.7h2.1c0.5,0,0.6,0,0.9,0
			C112.9,26,112.9,26.3,112.7,26.4z M112.7,27.9c-0.2,0.2-0.4,0.2-1.6,0.1c-0.7,0-1.5-0.1-1.8,0c-0.2-0.4,0-0.7,0.5-0.7h2.1
			c0.5,0,0.6,0,0.9,0C112.9,27.6,112.9,27.8,112.7,27.9z"/>
		<path class="st7" d="M110.6,44.8c0.1-0.1,0.3-0.1,0.6,0c0,0.3,0,0.8,0,1.7h0.6c0.5,0,0.6,0,1,0c0.1,0.2,0.1,0.4-0.1,0.6
			c-0.2,0.2-0.6,0.2-1.5,0.1c0,1.1,0.1,1.4,0,1.7c-0.1,0.2-0.5,0.2-0.7,0.1v-1.8c-0.6,0-1.2,0-1.5,0c-0.2-0.4,0-0.7,0.5-0.7h1v-0.7
			C110.5,45,110.5,44.9,110.6,44.8L110.6,44.8z"/>
		<path class="st7" d="M110.9,70.1c-0.1,0.4-0.2,1.5-0.3,1.8c0,0-0.2,0-0.3,0c-0.3-0.1-0.4-0.2-0.2-1l1.3-8.3c0.1-0.4,0.1-0.7,0.1-1
			c0.1,0,0.2,0,0.3,0c0.3,0.1,0.4,0.3,0.2,1.2L110.9,70.1z"/>
		<path class="st7" d="M113,87.3c-0.1,0.1-0.3,0.2-0.7,0.2h-2.7c-0.2,0-0.5,0-0.6,0.1c-0.2-0.4,0-0.7,0.5-0.7l2.7,0
			c0.5,0,0.5,0,0.8,0C113.2,86.9,113.1,87.2,113,87.3z"/>
		<path class="st7" d="M111.2,103.4c0,0.3,0,0.8,0,1.7h0.6c0.5,0,0.6,0,1,0c0.1,0.2,0.1,0.4-0.1,0.6c-0.2,0.2-0.6,0.2-1.5,0.1
			c0,1.1,0.1,1.4,0,1.7c-0.1,0.2-0.5,0.2-0.7,0.1v-1.8c-0.6,0-1.2,0-1.5,0c-0.2-0.4,0-0.7,0.5-0.7h1v-0.7c0-0.7,0-0.8,0.1-1
			C110.7,103.3,111,103.3,111.2,103.4z M113.1,108.8c-0.1,0.1-0.3,0.2-0.7,0.2h-2.7c-0.2,0-0.5,0-0.6,0.1c-0.2-0.4,0-0.7,0.5-0.7
			h2.7c0.5,0,0.5,0,0.8,0C113.2,108.5,113.2,108.7,113.1,108.8z"/>
	</g>
	<g>
		<path class="st7" d="M4.5,29.4c-0.4,0-0.6-0.2-0.8-0.6c-0.4,0.4-0.8,0.6-1.4,0.6c-0.6,0-1.3-0.5-1.3-1.2c0-0.6,0.4-1,1.3-1.1
			l1.3-0.2c0,0,0-0.4,0-0.5c0-0.8-0.2-1.2-0.7-1.2c-0.6,0-1,0.2-1.1,0.9c-0.5,0-0.8-0.1-0.8-0.3c0-0.2,0.1-0.4,0.5-0.7
			c0.5-0.3,1-0.5,1.6-0.5c1,0,1.3,0.7,1.2,1.5c0,0.3,0,0.7,0,1c0,0.3,0,0.8,0,1.2c0,0.4,0.2,0.6,0.7,0.7C5.1,29.2,4.8,29.4,4.5,29.4
			z M3.6,27.3l-1.1,0.2C2.1,27.6,2,27.8,2,28.1c0,0.4,0.4,0.7,0.7,0.7c0.3,0,0.6-0.1,0.9-0.3C3.6,28.2,3.6,27.3,3.6,27.3z"/>
		<path class="st7" d="M3.1,49.4c-0.9,0-1.3-0.1-1.6-0.2v-6.8l-0.9-0.1c-0.1-0.2,0-0.3,0.3-0.4l1.5-0.3v3.5c0.3-0.4,0.9-0.6,1.5-0.6
			c1.4,0,1.9,1,1.9,2.2C5.8,48.4,4.6,49.4,3.1,49.4z M3.4,45.2c-0.4,0-0.8,0.2-1,0.4v3.1c0.3,0.1,0.5,0.2,0.9,0.2
			c1.2,0,1.6-0.8,1.6-1.9C4.9,46,4.5,45.2,3.4,45.2z"/>
		<path class="st7" d="M3.1,69.4c-1.3,0-2-0.9-2-2.2c0-1.5,0.9-2.7,2.4-2.7c0.5,0,1.5,0.2,1.5,0.8c0,0.4-0.4,0.6-0.8,0.6
			c-0.1-0.5-0.4-0.8-0.9-0.8c-0.8,0-1.2,0.7-1.2,1.7c0,1.2,0.6,1.8,1.6,1.8c0.5,0,1-0.2,1.3-0.4c0,0,0.1,0.1,0.1,0.2
			C4.9,68.9,4.1,69.4,3.1,69.4z"/>
		<path class="st7" d="M5.7,89.2l-1.3,0.2v-0.6C4,89.2,3.6,89.4,3,89.4c-1.1,0-1.9-0.8-1.9-2.2c0-1.7,1.1-2.7,2.5-2.7
			c0.3,0,0.6,0,0.8,0.1v-2.2l-0.9-0.1c-0.1-0.2,0-0.3,0.3-0.4l1.5-0.3v6.9l0.9,0.1C6.2,89,6.1,89.1,5.7,89.2z M4.4,85.4
			c-0.3-0.2-0.6-0.3-1-0.3c-0.9,0-1.4,0.5-1.4,1.8c0,1.1,0.5,1.9,1.4,1.9c0.4,0,0.8-0.2,1-0.5V85.4z"/>
		<path class="st7" d="M4.8,106.5H2c0,0.1,0,0.2,0,0.3c0,1.2,0.6,1.8,1.6,1.8c0.5,0,0.9-0.2,1.3-0.4c0.1,0,0.1,0.1,0.1,0.2
			c0,0.4-0.8,0.9-1.9,0.9c-0.9,0-2-0.6-2-2.2c0-1.7,1.1-2.7,2.3-2.7c0.9,0,1.6,0.6,1.6,1.4C4.9,106.1,4.9,106.4,4.8,106.5z
			 M2.1,106.1l2,0c0.1-0.6-0.3-1-0.9-1C2.7,105,2.2,105.4,2.1,106.1z"/>
		<path class="st8" d="M4.4,122.8c-0.2-0.4-0.6-0.7-0.9-0.7c-0.5,0-0.9,0.6-0.9,1.6v0.8c0.4,0,1.3,0,1.3,0c0.1,0.3-0.1,0.6-0.4,0.6
			c-0.3,0-0.6,0-0.9,0v3.5l1.1,0.2c0,0.2-0.2,0.4-0.4,0.4c-0.4,0-0.8,0-1.1,0c-0.5,0-0.9,0-1.3,0c-0.1-0.2,0.1-0.3,0.3-0.4l0.6-0.2
			v-3.5L0.9,125c0-0.1,0-0.3,0.1-0.3c0.1-0.1,0.4-0.1,0.7-0.1v-0.4c0-1.4,0.7-2.6,2.1-2.6c0.9,0,1.2,0.3,1.2,0.6
			C5,122.5,4.8,122.7,4.4,122.8z"/>
	</g>
	<g>
		<line class="st9" x1="1.7" y1="35.3" x2="375.7" y2="35.3"/>
	</g>
	<g>
		<line class="st10" x1="1.7" y1="14.3" x2="375.7" y2="14.3"/>
	</g>
	<g>
		<line class="st9" x1="90.8" y1="132.2" x2="90.8" y2="10.5"/>
	</g>
	<g>
		<line class="st9" x1="128.2" y1="132.2" x2="128.2" y2="10.5"/>
	</g>
	<g>
		<line class="st9" x1="301.2" y1="132.2" x2="301.2" y2="10.5"/>
	</g>
	<g>
		<line class="st9" x1="346.2" y1="132.2" x2="346.2" y2="10.5"/>
	</g>
	<g>
		<line class="st9" x1="11.8" y1="132.2" x2="11.8" y2="10.5"/>
	</g>
	<g>
		<line class="st9" x1="1.7" y1="55.8" x2="375.7" y2="55.8"/>
	</g>
	<g>
		<line class="st9" x1="1.7" y1="76.3" x2="375.7" y2="76.3"/>
	</g>
	<g>
		<line class="st9" x1="1.7" y1="96.8" x2="375.7" y2="96.8"/>
	</g>
	<g>
		<line class="st9" x1="1.7" y1="117.3" x2="375.7" y2="117.3"/>
	</g>
	<g>
		<path class="st11" d="M164.8,153.1c0,16,34.8,5,49.2,12.5c14.5-7.6,49.2,3.5,49.2-12.5"/>
	</g>
	<g>
		<path class="st7" d="M216.8,172.5c0,0.5-0.3,0.6-0.9,0.5l-1.8,3.1l-0.2,1.7l1,0.2c0,0.2-0.2,0.4-0.5,0.3c-0.3,0-0.6,0-1,0
			c-0.4,0-0.8,0-1.1,0c-0.1-0.1,0-0.3,0.2-0.4l0.7-0.1l0.2-1.8l-1.3-3.1l-0.5,0c0-0.2,0.1-0.4,0.5-0.4h1.5c0,0.3-0.1,0.5-0.7,0.5
			l1,2.4l1.4-2.4l-0.8-0.1c0-0.2,0.1-0.4,0.4-0.4H216.8z"/>
	</g>
</g>
</svg>
