<?xml version="1.0" encoding="utf-8"?>
<!-- Generator: Adobe Illustrator 19.2.1, SVG Export Plug-In . SVG Version: 6.00 Build 0)  -->
<svg version="1.1" id="Layer_2" xmlns="http://www.w3.org/2000/svg" xmlns:xlink="http://www.w3.org/1999/xlink" x="0px" y="0px"
	 viewBox="0 0 196.7 145" style="enable-background:new 0 0 196.7 145;" xml:space="preserve">
<style type="text/css">
	.st0{fill:none;stroke:#000000;stroke-width:0.5;stroke-miterlimit:10;}
	.st1{fill:none;stroke:#000000;stroke-miterlimit:10;}
	.st2{fill:none;stroke:#000000;stroke-width:3;stroke-miterlimit:10;}
	.st3{fill:none;stroke:#000000;stroke-width:0.4999;stroke-linecap:round;stroke-miterlimit:10;}
	
		.st4{fill:none;stroke:#000000;stroke-width:0.4999;stroke-linecap:round;stroke-miterlimit:10;stroke-dasharray:4.982596e-02,1.4951;}
	
		.st5{fill:none;stroke:#000000;stroke-width:0.4999;stroke-linecap:round;stroke-miterlimit:10;stroke-dasharray:4.963181e-02,1.4893;}
	.st6{fill:none;stroke:#000000;stroke-width:0.2535;stroke-linecap:round;stroke-miterlimit:10;}
	.st7{fill:none;stroke:#000000;stroke-width:0.251;stroke-linecap:round;stroke-miterlimit:10;}
</style>
<g>
	<g>
		<polyline class="st0" points="195.1,82.9 28,82.9 28,3.8 		"/>
	</g>
	<g>
		<g>
			<polygon points="193.5,80.9 193.1,81.2 194.9,82.9 193.1,84.6 193.5,84.9 195.7,82.9 			"/>
		</g>
	</g>
	<g>
		<g>
			<polygon points="30,5.4 29.7,5.8 28,4 26.3,5.8 26,5.4 28,3.2 			"/>
		</g>
	</g>
</g>
<g>
	<g>
		<polyline class="st0" points="195.1,131 28,131 28,116.6 		"/>
	</g>
	<g>
		<g>
			<polygon points="193.5,129 193.1,129.4 194.9,131 193.1,132.7 193.5,133.1 195.7,131 			"/>
		</g>
	</g>
</g>
<g>
	<line class="st0" x1="89.3" y1="11.6" x2="160.4" y2="82.8"/>
</g>
<g>
	<line class="st0" x1="133" y1="11.6" x2="61.8" y2="82.8"/>
</g>
<g>
	<line class="st1" x1="111.2" y1="33.5" x2="160.4" y2="82.8"/>
</g>
<g>
	<polyline class="st1" points="110.9,33.7 61.8,82.8 160.4,82.9 	"/>
</g>
<g>
	<line class="st2" x1="61.8" y1="122.8" x2="160.4" y2="122.9"/>
</g>
<g>
	<g>
		<line class="st3" x1="111" y1="82.9" x2="111" y2="82.9"/>
	</g>
	<g>
		<line class="st4" x1="111" y1="81.4" x2="111" y2="34.2"/>
	</g>
	<g>
		<polyline class="st3" points="111,33.5 111,33.5 111,33.5 		"/>
	</g>
	<g>
		<line class="st5" x1="109.5" y1="33.5" x2="28.7" y2="33.5"/>
	</g>
	<g>
		<line class="st3" x1="28" y1="33.5" x2="27.9" y2="33.5"/>
	</g>
</g>
<g>
	<g>
		<line class="st6" x1="117.8" y1="35.3" x2="117.8" y2="80.3"/>
	</g>
	<g>
		<g>
			<polygon points="117.1,35.8 117.8,33 118.5,35.8 			"/>
		</g>
	</g>
	<g>
		<g>
			<polygon points="117.1,79.8 117.8,82.5 118.5,79.8 			"/>
		</g>
	</g>
</g>
<g>
	<g>
		<line class="st7" x1="64.4" y1="78.3" x2="158.1" y2="78.3"/>
	</g>
	<g>
		<g>
			<polygon points="64.9,79 62.2,78.3 64.9,77.6 			"/>
		</g>
	</g>
	<g>
		<g>
			<polygon points="157.6,79 160.3,78.3 157.6,77.6 			"/>
		</g>
	</g>
</g>
<g>
	<g>
		<line class="st6" x1="117.8" y1="33.2" x2="117.8" y2="82.4"/>
	</g>
	<g>
		<g>
			<rect x="117" y="33" width="1.6" height="0.3"/>
		</g>
	</g>
	<g>
		<g>
			<rect x="117" y="82.3" width="1.6" height="0.3"/>
		</g>
	</g>
</g>
<g>
	<g>
		<line class="st7" x1="62.3" y1="78.3" x2="160.2" y2="78.3"/>
	</g>
	<g>
		<g>
			<rect x="62.2" y="77.5" width="0.3" height="1.6"/>
		</g>
	</g>
	<g>
		<g>
			<rect x="160" y="77.5" width="0.3" height="1.6"/>
		</g>
	</g>
</g>
<g>
	<path class="st6" d="M77.3,82.9c0-4.2-1.7-8.1-4.5-10.9"/>
</g>
<g>
	<path class="st6" d="M144.8,82.9c0-4.2,1.7-8.1,4.5-10.9"/>
</g>
<g>
	<circle cx="111" cy="33.5" r="2"/>
</g>
<g>
	<circle cx="61.9" cy="82.9" r="1"/>
</g>
<g>
	<circle cx="160.4" cy="82.9" r="1"/>
</g>
<g>
	<path d="M58.5,91c0,0.2-0.1,0.3-0.1,0.4c0,0.1,0,0.2,0,0.3c0,0.1,0,0.2,0.1,0.3c0.1,0.1,0.2,0.1,0.3,0.1l0,0.2H57l0-0.2
		c0.1,0,0.2,0,0.2-0.1c0.1,0,0.1-0.1,0.1-0.2s0.1-0.2,0.1-0.3c0-0.1,0.1-0.3,0.1-0.6l0.7-3.4c0.1-0.3,0.1-0.5,0.1-0.7
		c0-0.1,0-0.2-0.1-0.3c-0.1-0.1-0.2-0.1-0.3-0.1l0-0.2H60l0,0.2c-0.1,0-0.2,0-0.2,0.1c0,0-0.1,0.1-0.1,0.1s-0.1,0.2-0.1,0.3
		c0,0.1-0.1,0.3-0.2,0.6L58.5,91z"/>
	<path d="M60.7,87.3v-0.5h2.8v0.5H60.7z"/>
</g>
<g>
	<path d="M111.8,28.3c0,0.2-0.1,0.3-0.1,0.4c0,0.1,0,0.2,0,0.3c0,0.1,0,0.2,0.1,0.3c0.1,0.1,0.2,0.1,0.3,0.1l0,0.2h-1.8l0-0.2
		c0.1,0,0.2,0,0.2-0.1c0.1,0,0.1-0.1,0.1-0.2s0.1-0.2,0.1-0.3c0-0.1,0.1-0.3,0.1-0.6l0.7-3.4c0.1-0.3,0.1-0.5,0.1-0.7
		c0-0.1,0-0.2-0.1-0.3c-0.1-0.1-0.2-0.1-0.3-0.1l0-0.2h1.8l0,0.2c-0.1,0-0.2,0-0.2,0.1c0,0-0.1,0.1-0.1,0.1s-0.1,0.2-0.1,0.3
		c0,0.1-0.1,0.3-0.2,0.6L111.8,28.3z"/>
</g>
<g>
	<path d="M9.1,34.2c-0.2,0.3-0.4,0.6-0.6,0.7S8,35.1,7.8,35.1c-0.3,0-0.4-0.1-0.6-0.3S7,34.4,7,34c0-0.4,0.1-0.8,0.2-1.1
		c0.2-0.4,0.4-0.6,0.6-0.9c0.3-0.2,0.6-0.3,0.9-0.3c0.1,0,0.3,0,0.4,0c0.1,0,0.2,0.1,0.4,0.1l0.2-0.8c0-0.1,0-0.2,0-0.2s0-0.2,0-0.2
		s0-0.1,0-0.2c0,0-0.1-0.1-0.1-0.1s-0.1,0-0.3,0l0-0.2l0.9,0h0.2l-0.9,3.8c0,0.2-0.1,0.4-0.1,0.5c0,0.1,0,0.2,0,0.2
		c0,0,0.1,0.1,0.1,0.1c0.1,0,0.1,0,0.2-0.1c0.1-0.1,0.2-0.2,0.3-0.3l0.2,0.2c-0.2,0.2-0.4,0.4-0.5,0.5s-0.3,0.1-0.5,0.1
		c-0.1,0-0.3,0-0.3-0.1C9.1,34.9,9,34.7,9,34.6C9,34.5,9.1,34.3,9.1,34.2L9.1,34.2z M9.3,33c0-0.2,0.1-0.3,0.1-0.5
		c0-0.2,0-0.3-0.1-0.4C9.2,32,9,32,8.9,32c-0.2,0-0.4,0.1-0.6,0.3C8,32.5,7.9,32.7,7.8,33c-0.1,0.3-0.2,0.6-0.2,1
		c0,0.2,0,0.4,0.1,0.5c0.1,0.1,0.2,0.2,0.3,0.2c0.1,0,0.1,0,0.2,0c0.1,0,0.1-0.1,0.2-0.1c0.1-0.1,0.2-0.2,0.2-0.2s0.1-0.2,0.2-0.3
		c0.1-0.1,0.1-0.2,0.2-0.4c0.1-0.1,0.1-0.3,0.1-0.5L9.3,33z"/>
	<path d="M13.8,33.9c0,0.2-0.1,0.4-0.1,0.5c0,0.1,0,0.2,0,0.2c0,0,0.1,0.1,0.1,0.1c0.1,0,0.1,0,0.2-0.1c0.1-0.1,0.2-0.2,0.3-0.3
		l0.2,0.2c-0.2,0.2-0.4,0.4-0.5,0.5s-0.3,0.1-0.5,0.1c-0.1,0-0.3,0-0.3-0.1c-0.1-0.1-0.1-0.2-0.1-0.4c0-0.1,0-0.3,0.1-0.4l0,0
		c-0.2,0.3-0.4,0.6-0.6,0.7c-0.2,0.2-0.4,0.2-0.6,0.2c-0.2,0-0.4-0.1-0.5-0.2c-0.1-0.1-0.2-0.3-0.2-0.5c0-0.1,0-0.3,0.1-0.6l0.2-0.9
		c0.1-0.2,0.1-0.4,0.1-0.5c0-0.1,0-0.2,0-0.2s-0.1-0.1-0.1-0.1c-0.1,0-0.1,0-0.2,0.1c-0.1,0.1-0.2,0.2-0.3,0.3l-0.2-0.2
		c0.2-0.2,0.3-0.3,0.4-0.4s0.2-0.1,0.3-0.2c0.1,0,0.2,0,0.3,0c0.1,0,0.3,0,0.3,0.1s0.1,0.2,0.1,0.4c0,0.2,0,0.4-0.1,0.7L12,33.5
		c0,0.2-0.1,0.3-0.1,0.4c0,0.1,0,0.2,0,0.2s0,0.1,0,0.2c0,0.2,0,0.3,0.1,0.3c0.1,0.1,0.1,0.1,0.3,0.1c0.1,0,0.2,0,0.3-0.1
		c0.1-0.1,0.2-0.2,0.4-0.3c0.1-0.2,0.2-0.3,0.3-0.4c0.1-0.1,0.1-0.3,0.2-0.5l0.3-1.5h0.6L13.8,33.9z"/>
	<path d="M16.3,32.6c0.2-0.3,0.4-0.5,0.6-0.7c0.2-0.1,0.4-0.2,0.6-0.2c0.2,0,0.3,0,0.4,0l-0.2,0.8h-0.4c0-0.1,0-0.2-0.1-0.2
		s-0.1-0.1-0.1-0.1s-0.1,0-0.1,0c-0.1,0-0.2,0-0.3,0.1s-0.2,0.2-0.3,0.3s-0.2,0.3-0.3,0.4c-0.1,0.1-0.1,0.3-0.2,0.5L15.8,35h-0.6
		l0.5-2.2c0-0.1,0.1-0.2,0.1-0.3s0-0.1,0-0.2c0-0.1,0-0.2,0-0.2c0,0-0.1-0.1-0.1-0.1c-0.1,0-0.1,0-0.2,0.1c-0.1,0.1-0.2,0.2-0.3,0.3
		l-0.2-0.2c0.2-0.2,0.4-0.4,0.5-0.5c0.1-0.1,0.3-0.1,0.5-0.1c0.1,0,0.3,0,0.3,0.1c0.1,0.1,0.1,0.2,0.1,0.4
		C16.3,32.3,16.3,32.5,16.3,32.6L16.3,32.6z"/>
	<path d="M19.3,33.3c0,0.8,0.1,1.4,0.4,1.9c0.3,0.5,0.7,0.9,1.2,1l-0.1,0.3c-0.7-0.1-1.3-0.5-1.7-1.1c-0.4-0.6-0.6-1.3-0.6-2.1
		c0-0.9,0.2-1.6,0.6-2.2c0.4-0.6,0.9-0.9,1.7-1l0.1,0.3c-0.5,0.1-0.9,0.4-1.2,0.9C19.5,31.9,19.3,32.5,19.3,33.3z"/>
	<path d="M22.4,34c0,0.1,0,0.2-0.1,0.3c0,0.1,0,0.1,0,0.2c0,0.1,0,0.2,0.1,0.2c0.1,0,0.1,0.1,0.3,0.1l0,0.2h-1.4l0-0.2
		c0.1,0,0.2,0,0.2-0.1c0,0,0.1-0.1,0.1-0.1c0-0.1,0.1-0.1,0.1-0.2c0-0.1,0.1-0.2,0.1-0.5l0.6-2.6c0-0.2,0.1-0.4,0.1-0.6
		c0-0.1,0-0.2-0.1-0.2c-0.1,0-0.1-0.1-0.3-0.1l0-0.2h1.4l0,0.2c-0.1,0-0.1,0-0.2,0.1c0,0-0.1,0.1-0.1,0.1s-0.1,0.1-0.1,0.2
		c0,0.1-0.1,0.3-0.1,0.5L22.4,34z"/>
	<path d="M25.4,33.3c0-0.8-0.1-1.4-0.4-2c-0.3-0.5-0.7-0.8-1.2-0.9l0.1-0.3c0.7,0.1,1.3,0.4,1.7,1c0.4,0.6,0.6,1.3,0.6,2.2
		c0,0.8-0.2,1.5-0.6,2.1c-0.4,0.6-0.9,0.9-1.7,1.1l-0.1-0.3c0.5-0.1,0.9-0.5,1.2-1C25.3,34.7,25.4,34.1,25.4,33.3z"/>
</g>
<g>
	<path d="M102.4,89.6c0.2-0.3,0.4-0.5,0.6-0.7c0.2-0.2,0.4-0.2,0.6-0.2c0.2,0,0.4,0.1,0.5,0.2c0.1,0.1,0.2,0.3,0.2,0.5v0
		c0,0,0,0,0,0.1c0.2-0.3,0.4-0.5,0.6-0.6c0.2-0.1,0.4-0.2,0.6-0.2c0.2,0,0.4,0.1,0.5,0.2c0.1,0.1,0.2,0.3,0.2,0.5
		c0,0.1,0,0.3-0.1,0.6l-0.2,0.9c-0.1,0.2-0.1,0.4-0.1,0.5c0,0.1,0,0.2,0,0.2c0,0,0.1,0.1,0.1,0.1c0.1,0,0.1,0,0.2-0.1
		c0.1-0.1,0.2-0.2,0.3-0.3l0.2,0.2c-0.2,0.2-0.4,0.4-0.5,0.5c-0.1,0.1-0.3,0.1-0.5,0.1c-0.1,0-0.3-0.1-0.4-0.2
		c-0.1-0.1-0.1-0.2-0.1-0.4c0-0.1,0-0.4,0.1-0.7l0.2-0.6c0.1-0.2,0.1-0.4,0.1-0.5c0-0.1,0-0.2,0-0.2c0-0.2,0-0.3-0.1-0.3
		c-0.1-0.1-0.1-0.1-0.3-0.1c-0.1,0-0.2,0-0.3,0.1c-0.1,0.1-0.2,0.2-0.3,0.3c-0.1,0.2-0.2,0.3-0.3,0.4c-0.1,0.1-0.1,0.3-0.2,0.5
		l-0.3,1.5h-0.6l0.4-1.7c0-0.2,0.1-0.4,0.1-0.5c0-0.1,0-0.2,0-0.3c0-0.2,0-0.3-0.1-0.4c-0.1-0.1-0.1-0.1-0.3-0.1
		c-0.1,0-0.2,0-0.3,0.1c-0.1,0.1-0.2,0.2-0.4,0.3c-0.1,0.2-0.2,0.3-0.3,0.5c-0.1,0.1-0.1,0.3-0.2,0.5l-0.3,1.5h-0.6l0.5-2.2
		c0-0.2,0.1-0.4,0.1-0.5c0-0.1,0-0.2,0-0.2s-0.1-0.1-0.1-0.1c-0.1,0-0.1,0-0.2,0.1c-0.1,0.1-0.2,0.2-0.3,0.3l-0.2-0.2
		c0.2-0.2,0.4-0.4,0.5-0.5c0.1-0.1,0.3-0.1,0.5-0.1c0.1,0,0.3,0,0.3,0.1c0.1,0.1,0.1,0.2,0.1,0.4C102.5,89.4,102.4,89.5,102.4,89.6
		L102.4,89.6z"/>
	<path d="M107.6,89.7c0.1-0.2,0.1-0.4,0.1-0.5c0-0.1,0-0.2-0.1-0.2s-0.1-0.1-0.3-0.1l0-0.2l0.8,0h0.2l-0.5,2.2
		c0,0.2-0.1,0.4-0.1,0.5c0,0.1,0,0.2,0,0.2c0,0,0.1,0.1,0.1,0.1c0.1,0,0.1,0,0.2-0.1c0.1-0.1,0.2-0.2,0.3-0.3l0.2,0.2
		c-0.2,0.2-0.4,0.4-0.5,0.5s-0.3,0.1-0.5,0.1c-0.1,0-0.3-0.1-0.4-0.2c-0.1-0.1-0.1-0.2-0.1-0.4c0-0.2,0-0.4,0.1-0.7L107.6,89.7z
		 M108.7,87.4l-0.2,0.7H108l0.2-0.7H108.7z"/>
	<path d="M111.4,91.2c-0.2,0.3-0.4,0.6-0.6,0.7s-0.4,0.2-0.6,0.2c-0.3,0-0.4-0.1-0.6-0.3s-0.2-0.5-0.2-0.8c0-0.4,0.1-0.8,0.2-1.1
		c0.2-0.4,0.4-0.6,0.6-0.9c0.3-0.2,0.6-0.3,0.9-0.3c0.1,0,0.3,0,0.4,0c0.1,0,0.2,0.1,0.4,0.1l0.2-0.8c0-0.1,0-0.2,0-0.2s0-0.2,0-0.2
		s0-0.1,0-0.2c0,0-0.1-0.1-0.1-0.1s-0.1,0-0.3,0l0-0.2l0.9,0h0.2l-0.9,3.8c0,0.2-0.1,0.4-0.1,0.5c0,0.1,0,0.2,0,0.2
		c0,0,0.1,0.1,0.1,0.1c0.1,0,0.1,0,0.2-0.1c0.1-0.1,0.2-0.2,0.3-0.3l0.2,0.2c-0.2,0.2-0.4,0.4-0.5,0.5s-0.3,0.1-0.5,0.1
		c-0.1,0-0.3,0-0.3-0.1c-0.1-0.1-0.1-0.2-0.1-0.4C111.4,91.5,111.4,91.3,111.4,91.2L111.4,91.2z M111.6,90c0-0.2,0.1-0.3,0.1-0.5
		c0-0.2,0-0.3-0.1-0.4c-0.1-0.1-0.2-0.1-0.4-0.1c-0.2,0-0.4,0.1-0.6,0.3c-0.2,0.2-0.3,0.4-0.4,0.8c-0.1,0.3-0.2,0.6-0.2,1
		c0,0.2,0,0.4,0.1,0.5c0.1,0.1,0.2,0.2,0.3,0.2c0.1,0,0.1,0,0.2,0c0.1,0,0.1-0.1,0.2-0.1c0.1-0.1,0.2-0.2,0.2-0.2s0.1-0.2,0.2-0.3
		c0.1-0.1,0.1-0.2,0.2-0.4c0.1-0.1,0.1-0.3,0.1-0.5L111.6,90z"/>
	<path d="M114.3,90.3c0,0.8,0.1,1.4,0.4,1.9c0.3,0.5,0.7,0.9,1.2,1l-0.1,0.3c-0.7-0.1-1.3-0.5-1.7-1.1c-0.4-0.6-0.6-1.3-0.6-2.1
		c0-0.9,0.2-1.6,0.6-2.2c0.4-0.6,0.9-0.9,1.7-1l0.1,0.3c-0.5,0.1-0.9,0.4-1.2,0.9C114.5,88.9,114.3,89.5,114.3,90.3z"/>
	<path d="M117.4,91c0,0.1,0,0.2-0.1,0.3c0,0.1,0,0.1,0,0.2c0,0.1,0,0.2,0.1,0.2c0.1,0,0.1,0.1,0.3,0.1l0,0.2h-1.4l0-0.2
		c0.1,0,0.2,0,0.2-0.1c0,0,0.1-0.1,0.1-0.1c0-0.1,0.1-0.1,0.1-0.2c0-0.1,0.1-0.2,0.1-0.5l0.6-2.6c0-0.2,0.1-0.4,0.1-0.6
		c0-0.1,0-0.2-0.1-0.2c-0.1,0-0.1-0.1-0.3-0.1l0-0.2h1.4l0,0.2c-0.1,0-0.1,0-0.2,0.1c0,0-0.1,0.1-0.1,0.1s-0.1,0.1-0.1,0.2
		c0,0.1-0.1,0.3-0.1,0.5L117.4,91z"/>
	<path d="M120.4,90.3c0-0.8-0.1-1.4-0.4-2c-0.3-0.5-0.7-0.8-1.2-0.9l0.1-0.3c0.7,0.1,1.3,0.4,1.7,1c0.4,0.6,0.6,1.3,0.6,2.2
		c0,0.8-0.2,1.5-0.6,2.1c-0.4,0.6-0.9,0.9-1.7,1.1l-0.1-0.3c0.5-0.1,0.9-0.5,1.2-1C120.3,91.7,120.4,91.1,120.4,90.3z"/>
</g>
<g>
	<path d="M24.7,70.3l0.2,1.1h-0.6c0.4,0.3,0.6,0.7,0.6,1.3c0,0.9-0.7,1.6-2,1.6c-1.5,0-2.4-1-2.4-2.2c0-0.2,0-0.5,0.1-0.7h-2
		l-0.1,0.8c-0.2,0.1-0.3,0-0.4-0.3l-0.2-1.3h6.3l0.1-0.8C24.5,69.9,24.6,70,24.7,70.3z M21.2,71.5C21,71.8,21,72,21,72.4
		c0,0.8,0.5,1.2,1.6,1.2c1,0,1.7-0.5,1.7-1.2c0-0.3-0.2-0.7-0.4-0.9H21.2z"/>
	<path d="M24.7,65.2l0.2,1.2h-0.8c0.4,0.3,0.8,0.7,0.8,1.4c0,0.9-0.4,1.3-1.5,1.3h-2.3L21,69.8c-0.1,0.1-0.3,0-0.3-0.2l-0.3-1.3H23
		c0.9,0,1.2-0.1,1.2-0.9c0-0.3-0.3-0.7-0.5-1h-2.6L21,67.1c-0.1,0.1-0.3,0-0.3-0.2l-0.3-1.4h3.7l0.1-0.8
		C24.5,64.8,24.6,64.8,24.7,65.2z"/>
	<path d="M21.5,61.7c-0.1,0.1-0.1,0.3-0.1,0.5c0,0.3,0.2,0.6,0.5,0.9h2.4c0,0,0.1-0.7,0.2-1c0.2,0,0.3,0.2,0.3,0.4
		c0,0.4,0,0.7,0,1.1c0,0.4,0,0.7,0,1.1c-0.1,0-0.2,0-0.3-0.2l-0.2-0.6h-3.1L21,64.6c-0.1,0.1-0.3,0-0.3-0.2L20.4,63h1.1
		c-0.7-0.3-1.1-0.7-1.1-1.2c0-0.3,0.1-0.4,0.4-0.4C21,61.4,21.3,61.5,21.5,61.7z"/>
	<path d="M24.9,57.9c0,0.3-0.2,0.5-0.5,0.7c0.3,0.3,0.5,0.7,0.5,1.2c0,0.6-0.5,1.1-1.1,1.1c-0.5,0-0.9-0.3-1-1.1l-0.2-1.2
		c0,0-0.3,0-0.5,0c-0.7,0-1.1,0.2-1.1,0.6c0,0.6,0.2,0.9,0.8,0.9c0,0.5-0.1,0.7-0.3,0.7c-0.2,0-0.4-0.1-0.6-0.5
		c-0.3-0.5-0.4-0.9-0.4-1.4c0-0.8,0.7-1.1,1.4-1.1c0.3,0,0.6,0,0.9,0c0.3,0,0.7,0,1.1,0c0.4,0,0.5-0.2,0.7-0.6
		C24.7,57.4,24.9,57.6,24.9,57.9z M23,58.7l0.2,0.9c0.1,0.4,0.3,0.5,0.5,0.5c0.4,0,0.6-0.3,0.6-0.6c0-0.3-0.1-0.6-0.2-0.8
		C23.8,58.8,23,58.7,23,58.7z"/>
	<path d="M24.4,54.3c0.3,0.3,0.4,0.7,0.4,1.1c0,0.7-0.3,0.9-1,0.9c-0.9,0-2,0-2.9,0l-0.1,0.7c-0.1,0-0.2,0-0.3-0.1
		c-0.1-0.1-0.1-0.5-0.1-0.7l-0.8,0c-0.2-0.2-0.3-0.5-0.3-0.7c0.5,0,0.8,0,1.2,0c0-0.4,0-0.8,0-1.2c0.1,0,0.1,0,0.2,0
		c0.4,0,0.4,0.2,0.4,0.5c0,0.2,0,0.5-0.1,0.7h1.8c1.3,0,1.4-0.1,1.4-0.5c0-0.3-0.1-0.6-0.2-0.8C24.2,54.2,24.3,54.2,24.4,54.3z"/>
	<path d="M19.3,52.8c0,0.3-0.2,0.5-0.6,0.5s-0.6-0.3-0.6-0.6c0-0.3,0.3-0.5,0.5-0.5C19,52.2,19.3,52.4,19.3,52.8z M24.7,51.9
		c0,0.3,0,0.5,0,0.8c0,0.4,0,0.7,0,1.1c-0.2,0.1-0.3,0-0.3-0.2l-0.2-0.6h-3.1L21,53.9c-0.1,0.1-0.3,0-0.3-0.2l-0.3-1.4h3.8l0.2-0.8
		C24.6,51.5,24.7,51.7,24.7,51.9z"/>
	<path d="M24.9,49.3c0,1.4-0.8,1.8-2,1.8c-1.4,0-2.4-0.8-2.4-2.2c0-1.1,0.6-1.7,1.9-1.7C23.8,47.1,24.9,47.9,24.9,49.3z M21,49.1
		c0,0.8,0.6,1.2,1.6,1.2c1.1,0,1.7-0.5,1.7-1.3c0-0.8-0.7-1.1-1.6-1.1C21.7,47.9,21,48.3,21,49.1z"/>
	<path d="M24.7,42c0,0.3,0,0.6,0,1s0,0.6,0,0.9c-0.2,0.1-0.3,0-0.3-0.2l-0.2-0.5h-2.1c-0.6,0-1.1,0.1-1.1,0.8c0,0.4,0.2,0.6,0.5,1
		h2.6l0.2-0.7c0.2,0,0.3,0.2,0.3,0.4c0,0.3,0,0.5,0,0.8c0,0.3,0,0.6,0,0.9c-0.1,0-0.3,0-0.3-0.2l-0.2-0.5h-3.1L21,46.6
		c-0.1,0.1-0.3,0-0.3-0.2l-0.3-1.3h0.7c-0.4-0.4-0.7-0.8-0.7-1.4c0-1,0.6-1.3,1.5-1.3h2.2l0.2-0.8C24.6,41.6,24.7,41.8,24.7,42z"/>
</g>
<g>
	<path d="M175.2,80.4c-0.3,0.3-0.7,0.4-1.1,0.4c-0.7,0-0.9-0.3-0.9-1c0-0.9,0-2,0-2.9l-0.7-0.1c0-0.1,0-0.2,0.1-0.3
		c0.1-0.1,0.5-0.1,0.7-0.1l0-0.8c0.2-0.2,0.5-0.3,0.7-0.3c0,0.5,0,0.8,0,1.2c0.4,0,0.8,0,1.2,0c0,0.1,0,0.1,0,0.2
		c0,0.4-0.2,0.4-0.5,0.4c-0.2,0-0.5,0-0.7-0.1v1.8c0,1.3,0.1,1.4,0.5,1.4c0.3,0,0.6-0.1,0.8-0.2C175.4,80.1,175.3,80.3,175.2,80.4z"
		/>
	<path d="M177.6,80.7c-0.3,0-0.5,0-0.8,0c-0.4,0-0.7,0-1.1,0c-0.1-0.2,0-0.3,0.2-0.3l0.6-0.2V77l-0.8-0.1c-0.1-0.1,0-0.3,0.2-0.3
		l1.4-0.3v3.8l0.8,0.2C178,80.6,177.8,80.7,177.6,80.7z M176.7,75.2c-0.3,0-0.5-0.2-0.5-0.6s0.3-0.6,0.6-0.6c0.3,0,0.5,0.3,0.5,0.5
		C177.4,75,177.1,75.2,176.7,75.2z"/>
	<path d="M185.5,80.7c-0.3,0-0.6,0-1,0s-0.6,0-0.9,0c-0.1-0.1,0-0.3,0.2-0.3l0.5-0.2v-2.1c0-0.8-0.2-1.1-1-1.1
		c-0.4,0-0.7,0.3-0.9,0.5c0,0.2,0,0.3,0,0.4v2.2l0.7,0.2c0,0.2-0.2,0.3-0.4,0.3c-0.3,0-0.6,0-1,0c-0.3,0-0.6,0-0.9,0
		c-0.1-0.2,0-0.3,0.2-0.3l0.5-0.2v-2c0-0.7-0.1-1.1-0.8-1.1c-0.4,0-0.6,0.2-1,0.5v2.6l0.7,0.2c0,0.2-0.2,0.3-0.4,0.3
		c-0.3,0-0.5,0-0.8,0s-0.6,0-0.9,0c-0.1-0.1,0-0.3,0.2-0.3l0.5-0.2V77l-0.7-0.1c-0.1-0.1,0-0.3,0.2-0.3l1.3-0.3v0.7
		c0.4-0.4,0.9-0.7,1.4-0.7c0.6,0,1,0.2,1.1,0.7c0.4-0.4,0.9-0.7,1.5-0.7c0.9,0,1.3,0.5,1.3,1.5v2.2l0.8,0.2
		C185.9,80.6,185.7,80.7,185.5,80.7z"/>
	<path d="M189.5,78.2H187c0,0.1,0,0.2,0,0.3c0,1.1,0.5,1.6,1.4,1.6c0.4,0,0.8-0.1,1.1-0.4c0,0,0.1,0.1,0.1,0.2
		c0,0.4-0.7,0.8-1.7,0.8c-0.8,0-1.7-0.6-1.7-1.9c0-1.5,1-2.5,2-2.5c0.8,0,1.4,0.5,1.4,1.3C189.6,77.8,189.6,78.1,189.5,78.2z
		 M187.1,77.8l1.7,0c0.1-0.5-0.3-0.9-0.8-0.9C187.6,76.9,187.2,77.2,187.1,77.8z"/>
</g>
<g>
	<path d="M0.8,5.4c0,2.2,0.7,4,1.4,4.7c-0.1,0.2-0.2,0.2-0.4,0.2c-0.1,0-0.3,0-0.4-0.1C0.6,9.4,0,7.8,0,5.5c0-2.4,0.6-4,1.4-4.7
		c0.1-0.1,0.2-0.2,0.4-0.2c0.2,0,0.2,0,0.3,0.2C1.4,1.6,0.8,3.4,0.8,5.4z"/>
	<path d="M5.6,7.8c-0.3,0-0.5-0.2-0.7-0.5C4.6,7.6,4.2,7.8,3.7,7.8c-0.6,0-1.1-0.5-1.1-1.1c0-0.5,0.3-0.9,1.1-1l1.2-0.2
		c0,0,0-0.3,0-0.5c0-0.7-0.2-1.1-0.6-1.1c-0.6,0-0.9,0.2-0.9,0.8c-0.5,0-0.7-0.1-0.7-0.3c0-0.2,0.1-0.4,0.5-0.6
		C3.6,3.5,4,3.4,4.6,3.4c0.8,0,1.1,0.7,1.1,1.4c0,0.3,0,0.6,0,0.9c0,0.3,0,0.7,0,1.1c0,0.4,0.2,0.5,0.6,0.7C6.1,7.6,5.9,7.8,5.6,7.8
		z M4.8,5.9L3.9,6.2C3.6,6.2,3.4,6.4,3.4,6.6c0,0.4,0.3,0.6,0.6,0.6c0.3,0,0.6-0.1,0.8-0.2C4.8,6.7,4.8,5.9,4.8,5.9z"/>
	<path d="M8,5.5c0-2.2-0.7-4-1.4-4.7C6.7,0.7,6.9,0.6,7,0.6c0.1,0,0.3,0.1,0.4,0.2c0.8,0.9,1.4,2.4,1.4,4.7c0,2.4-0.6,4-1.4,4.8
		c-0.1,0.1-0.2,0.2-0.4,0.2c-0.1,0-0.2,0-0.3-0.2C7.4,9.4,8,7.5,8,5.5z"/>
</g>
<g>
	<path d="M0.8,112.7c0,2.2,0.7,4,1.4,4.7c-0.1,0.2-0.2,0.2-0.4,0.2c-0.1,0-0.3,0-0.4-0.1c-0.8-0.9-1.4-2.4-1.4-4.7
		c0-2.4,0.6-4,1.4-4.7c0.1-0.1,0.2-0.2,0.4-0.2c0.2,0,0.2,0,0.3,0.2C1.4,108.9,0.8,110.7,0.8,112.7z"/>
	<path d="M4.7,115.1c-0.8,0-1.2-0.1-1.4-0.2v-6.1l-0.8-0.1c-0.1-0.1,0-0.3,0.2-0.3l1.3-0.3v3.2c0.3-0.3,0.8-0.6,1.3-0.6
		c1.2,0,1.7,0.9,1.7,2C7,114.2,6,115.1,4.7,115.1z M5,111.3c-0.3,0-0.7,0.2-0.9,0.4v2.8c0.3,0.1,0.5,0.2,0.7,0.2
		c1,0,1.4-0.7,1.4-1.7C6.2,112,5.9,111.3,5,111.3z"/>
	<path d="M9,112.8c0-2.2-0.7-4-1.4-4.7c0.1-0.2,0.2-0.2,0.4-0.2c0.1,0,0.3,0.1,0.4,0.2c0.8,0.9,1.4,2.4,1.4,4.7c0,2.4-0.6,4-1.4,4.8
		c-0.1,0.1-0.2,0.2-0.4,0.2c-0.1,0-0.2,0-0.3-0.2C8.4,116.6,9,114.8,9,112.8z"/>
</g>
<g>
	<path d="M175.2,127.4c-0.3,0.3-0.7,0.4-1.1,0.4c-0.7,0-0.9-0.3-0.9-1c0-0.9,0-2,0-2.9l-0.7-0.1c0-0.1,0-0.2,0.1-0.3
		c0.1-0.1,0.5-0.1,0.7-0.1l0-0.8c0.2-0.2,0.5-0.3,0.7-0.3c0,0.5,0,0.8,0,1.2c0.4,0,0.8,0,1.2,0c0,0.1,0,0.1,0,0.2
		c0,0.4-0.2,0.4-0.5,0.4c-0.2,0-0.5,0-0.7-0.1v1.8c0,1.3,0.1,1.4,0.5,1.4c0.3,0,0.6-0.1,0.8-0.2
		C175.4,127.1,175.3,127.3,175.2,127.4z"/>
	<path d="M177.6,127.7c-0.3,0-0.5,0-0.8,0c-0.4,0-0.7,0-1.1,0c-0.1-0.2,0-0.3,0.2-0.3l0.6-0.2V124l-0.8-0.1c-0.1-0.1,0-0.3,0.2-0.3
		l1.4-0.3v3.8l0.8,0.2C178,127.6,177.8,127.7,177.6,127.7z M176.7,122.2c-0.3,0-0.5-0.2-0.5-0.6s0.3-0.6,0.6-0.6
		c0.3,0,0.5,0.3,0.5,0.5C177.4,122,177.1,122.2,176.7,122.2z"/>
	<path d="M185.5,127.7c-0.3,0-0.6,0-1,0s-0.6,0-0.9,0c-0.1-0.1,0-0.3,0.2-0.3l0.5-0.2v-2.1c0-0.8-0.2-1.1-1-1.1
		c-0.4,0-0.7,0.3-0.9,0.5c0,0.2,0,0.3,0,0.4v2.2l0.7,0.2c0,0.2-0.2,0.3-0.4,0.3c-0.3,0-0.6,0-1,0c-0.3,0-0.6,0-0.9,0
		c-0.1-0.2,0-0.3,0.2-0.3l0.5-0.2v-2c0-0.7-0.1-1.1-0.8-1.1c-0.4,0-0.6,0.2-1,0.5v2.6l0.7,0.2c0,0.2-0.2,0.3-0.4,0.3
		c-0.3,0-0.5,0-0.8,0s-0.6,0-0.9,0c-0.1-0.1,0-0.3,0.2-0.3l0.5-0.2V124l-0.7-0.1c-0.1-0.1,0-0.3,0.2-0.3l1.3-0.3v0.7
		c0.4-0.4,0.9-0.7,1.4-0.7c0.6,0,1,0.2,1.1,0.7c0.4-0.4,0.9-0.7,1.5-0.7c0.9,0,1.3,0.5,1.3,1.5v2.2l0.8,0.2
		C185.9,127.6,185.7,127.7,185.5,127.7z"/>
	<path d="M189.5,125.2H187c0,0.1,0,0.2,0,0.3c0,1.1,0.5,1.6,1.4,1.6c0.4,0,0.8-0.1,1.1-0.4c0,0,0.1,0.1,0.1,0.2
		c0,0.4-0.7,0.8-1.7,0.8c-0.8,0-1.7-0.6-1.7-1.9c0-1.5,1-2.5,2-2.5c0.8,0,1.4,0.5,1.4,1.3C189.6,124.8,189.6,125.1,189.5,125.2z
		 M187.1,124.8l1.7,0c0.1-0.5-0.3-0.9-0.8-0.9C187.6,123.9,187.2,124.2,187.1,124.8z"/>
</g>
<g>
	<path d="M23.6,86.5c-0.6,0-1.1-0.2-1.4-0.7c-0.3-0.5-0.5-1.3-0.5-2.3c0-0.5,0-1,0.1-1.4c0.1-0.4,0.2-0.7,0.4-1
		c0.2-0.3,0.4-0.4,0.6-0.6s0.5-0.2,0.8-0.2c0.6,0,1.1,0.2,1.4,0.7s0.5,1.2,0.5,2.2c0,1-0.2,1.8-0.5,2.4
		C24.7,86.2,24.3,86.5,23.6,86.5z M22.6,83.3c0,1,0.1,1.7,0.3,2.1c0.2,0.4,0.5,0.7,0.8,0.7c0.4,0,0.6-0.2,0.8-0.6
		c0.2-0.4,0.3-1.1,0.3-2c0-0.7,0-1.2-0.1-1.6c-0.1-0.4-0.2-0.7-0.4-0.9c-0.2-0.2-0.3-0.3-0.6-0.3c-0.2,0-0.4,0.1-0.5,0.2
		c-0.1,0.1-0.2,0.3-0.3,0.5c-0.1,0.2-0.1,0.5-0.2,0.8C22.6,82.6,22.6,82.9,22.6,83.3z"/>
</g>
<g>
	<path d="M158.8,91c0,0.2-0.1,0.3-0.1,0.4c0,0.1,0,0.2,0,0.3c0,0.1,0,0.2,0.1,0.3c0.1,0.1,0.2,0.1,0.3,0.1l0,0.2h-1.8l0-0.2
		c0.1,0,0.2,0,0.2-0.1c0.1,0,0.1-0.1,0.1-0.2s0.1-0.2,0.1-0.3c0-0.1,0.1-0.3,0.1-0.6l0.7-3.4c0.1-0.3,0.1-0.5,0.1-0.7
		c0-0.1,0-0.2-0.1-0.3c-0.1-0.1-0.2-0.1-0.3-0.1l0-0.2h1.8l0,0.2c-0.1,0-0.2,0-0.2,0.1c0,0-0.1,0.1-0.1,0.1s-0.1,0.2-0.1,0.3
		c0,0.1-0.1,0.3-0.2,0.6L158.8,91z"/>
	<path d="M162.5,87.3v1.2H162v-1.2h-1.1v-0.5h1.1v-1.2h0.5v1.2h1.1v0.5H162.5z"/>
</g>
<g>
	<path d="M58.5,143.3c0,0.2-0.1,0.3-0.1,0.4c0,0.1,0,0.2,0,0.3c0,0.1,0,0.2,0.1,0.3c0.1,0.1,0.2,0.1,0.3,0.1l0,0.2H57l0-0.2
		c0.1,0,0.2,0,0.2-0.1c0.1,0,0.1-0.1,0.1-0.2s0.1-0.2,0.1-0.3c0-0.1,0.1-0.3,0.1-0.6l0.7-3.4c0.1-0.3,0.1-0.5,0.1-0.7
		c0-0.1,0-0.2-0.1-0.3c-0.1-0.1-0.2-0.1-0.3-0.1l0-0.2H60l0,0.2c-0.1,0-0.2,0-0.2,0.1c0,0-0.1,0.1-0.1,0.1s-0.1,0.2-0.1,0.3
		c0,0.1-0.1,0.3-0.2,0.6L58.5,143.3z"/>
	<path d="M60.7,139.6v-0.5h2.8v0.5H60.7z"/>
</g>
<g>
	<path d="M159.3,142.5c0,0.2-0.1,0.3-0.1,0.4c0,0.1,0,0.2,0,0.3c0,0.1,0,0.2,0.1,0.3c0.1,0.1,0.2,0.1,0.3,0.1l0,0.2h-1.8l0-0.2
		c0.1,0,0.2,0,0.2-0.1c0.1,0,0.1-0.1,0.1-0.2s0.1-0.2,0.1-0.3c0-0.1,0.1-0.3,0.1-0.6l0.7-3.4c0.1-0.3,0.1-0.5,0.1-0.7
		c0-0.1,0-0.2-0.1-0.3c-0.1-0.1-0.2-0.1-0.3-0.1l0-0.2h1.8l0,0.2c-0.1,0-0.2,0-0.2,0.1c0,0-0.1,0.1-0.1,0.1s-0.1,0.2-0.1,0.3
		c0,0.1-0.1,0.3-0.2,0.6L159.3,142.5z"/>
	<path d="M163,138.8v1.2h-0.5v-1.2h-1.1v-0.5h1.1v-1.2h0.5v1.2h1.1v0.5H163z"/>
</g>
<g>
	<path d="M81.1,72.8c-0.3,0.4-0.6,0.9-1,1.4C80,74.7,80,75,80,75.2c0,0.2,0,0.3,0.1,0.3c0,0.1,0.1,0.1,0.2,0.1c0.1,0,0.1,0,0.2-0.1
		c0.1-0.1,0.2-0.1,0.3-0.2l0.2,0.2c-0.2,0.2-0.4,0.3-0.5,0.4C80.3,75.9,80.1,76,80,76c-0.3,0-0.5-0.2-0.5-0.7c0-0.1,0-0.2,0-0.3h0
		c-0.2,0.4-0.5,0.6-0.7,0.8c-0.2,0.2-0.4,0.2-0.7,0.2c-0.2,0-0.3,0-0.4-0.1c-0.1-0.1-0.2-0.2-0.3-0.4c-0.1-0.2-0.1-0.3-0.1-0.5
		c0-0.4,0.1-0.8,0.2-1.2c0.2-0.4,0.4-0.7,0.6-0.9c0.3-0.2,0.6-0.3,0.9-0.3c0.3,0,0.5,0.1,0.6,0.2s0.2,0.4,0.2,0.7l0,0l0.4-0.9h0.6
		L81.1,72.8z M79.6,74.3c0-0.2,0.1-0.4,0.1-0.6c0-0.3,0-0.5-0.1-0.6s-0.2-0.2-0.4-0.2c-0.2,0-0.4,0.1-0.6,0.3s-0.3,0.4-0.4,0.8
		s-0.2,0.6-0.2,1c0,0.2,0,0.4,0.1,0.5s0.2,0.2,0.3,0.2c0.2,0,0.4-0.1,0.6-0.3C79.2,75,79.4,74.7,79.6,74.3z"/>
	<path d="M83,75.6c0,0.1,0,0.2,0,0.2c0,0,0,0.1,0.1,0.1c0,0,0.1,0,0.2,0.1s0.2,0,0.4,0v0.2h-1.9V76c0.2,0,0.3,0,0.4,0
		c0.1,0,0.2,0,0.2-0.1c0,0,0.1-0.1,0.1-0.1c0,0,0-0.1,0-0.2v-1.6c0-0.1,0-0.1,0-0.1s-0.1,0-0.1,0c0,0-0.1,0-0.2,0.1
		c-0.1,0.1-0.2,0.1-0.4,0.2L81.7,74l1.2-0.6H83c0,0,0,0.1,0,0.2c0,0.1,0,0.3,0,0.4V75.6z"/>
</g>
<g>
	<path d="M142.2,72.8c-0.3,0.4-0.6,0.9-1,1.4c-0.1,0.4-0.1,0.7-0.1,0.9c0,0.2,0,0.3,0.1,0.3c0,0.1,0.1,0.1,0.2,0.1
		c0.1,0,0.1,0,0.2-0.1c0.1-0.1,0.2-0.1,0.3-0.2l0.2,0.2c-0.2,0.2-0.4,0.3-0.5,0.4c-0.1,0.1-0.3,0.1-0.4,0.1c-0.3,0-0.5-0.2-0.5-0.7
		c0-0.1,0-0.2,0-0.3h0c-0.2,0.4-0.5,0.6-0.7,0.8c-0.2,0.2-0.4,0.2-0.7,0.2c-0.2,0-0.3,0-0.4-0.1c-0.1-0.1-0.2-0.2-0.3-0.4
		c-0.1-0.2-0.1-0.3-0.1-0.5c0-0.4,0.1-0.8,0.2-1.2c0.2-0.4,0.4-0.7,0.6-0.9c0.3-0.2,0.6-0.3,0.9-0.3c0.3,0,0.5,0.1,0.6,0.2
		s0.2,0.4,0.2,0.7l0,0l0.4-0.9h0.6L142.2,72.8z M140.7,74.3c0-0.2,0.1-0.4,0.1-0.6c0-0.3,0-0.5-0.1-0.6s-0.2-0.2-0.4-0.2
		c-0.2,0-0.4,0.1-0.6,0.3s-0.3,0.4-0.4,0.8s-0.2,0.6-0.2,1c0,0.2,0,0.4,0.1,0.5s0.2,0.2,0.3,0.2c0.2,0,0.4-0.1,0.6-0.3
		C140.4,75,140.5,74.7,140.7,74.3z"/>
	<path d="M144.1,75.9c0.1,0,0.1,0,0.2,0c0,0,0.1,0,0.1,0c0,0,0,0,0.1-0.1c0,0,0-0.1,0.1-0.2h0.2l0,0.7h-2v-0.1
		c0.1-0.2,0.2-0.3,0.3-0.5c0.1-0.2,0.3-0.3,0.5-0.5c0.2-0.2,0.4-0.4,0.5-0.5c0.1-0.1,0.2-0.2,0.2-0.3c0-0.1,0.1-0.2,0.1-0.3
		c0-0.2,0-0.3-0.1-0.4s-0.2-0.1-0.4-0.1c-0.1,0-0.3,0-0.4,0.1c-0.1,0.1-0.2,0.2-0.2,0.3h-0.3v-0.5c0.2-0.1,0.4-0.1,0.6-0.2
		c0.2,0,0.3-0.1,0.5-0.1c0.2,0,0.3,0,0.4,0.1s0.2,0.1,0.3,0.2c0.1,0.1,0.1,0.1,0.1,0.2s0,0.2,0,0.3c0,0.1,0,0.2-0.1,0.3
		c0,0.1-0.1,0.2-0.2,0.3c-0.1,0.1-0.3,0.3-0.6,0.5c-0.3,0.3-0.5,0.5-0.6,0.7H144.1z"/>
</g>
<g>
	<path d="M120,59.9c0.1-0.2,0.1-0.4,0.1-0.5c0-0.1,0-0.2-0.1-0.2c-0.1,0-0.2-0.1-0.3-0.1l0-0.2l0.9,0h0.2l-0.6,2.4l0,0
		c0.2-0.3,0.4-0.5,0.6-0.6c0.2-0.1,0.4-0.2,0.6-0.2c0.2,0,0.4,0.1,0.5,0.2c0.1,0.1,0.2,0.3,0.2,0.5c0,0.1,0,0.3-0.1,0.6l-0.2,0.9
		c-0.1,0.2-0.1,0.4-0.1,0.5c0,0.1,0,0.2,0,0.2s0.1,0.1,0.1,0.1c0.1,0,0.1,0,0.2-0.1c0.1-0.1,0.2-0.2,0.3-0.3l0.2,0.2
		c-0.2,0.2-0.4,0.4-0.5,0.5c-0.1,0.1-0.3,0.1-0.5,0.1c-0.1,0-0.3-0.1-0.4-0.2s-0.1-0.2-0.1-0.4c0-0.1,0-0.4,0.1-0.7l0.1-0.6
		c0.1-0.2,0.1-0.4,0.1-0.5c0-0.1,0-0.2,0-0.2c0-0.2,0-0.3-0.1-0.3c-0.1-0.1-0.1-0.1-0.3-0.1c-0.1,0-0.2,0-0.3,0.1s-0.2,0.2-0.4,0.4
		c-0.1,0.2-0.2,0.3-0.3,0.5c-0.1,0.1-0.1,0.3-0.2,0.5l-0.3,1.5h-0.6L120,59.9z"/>
</g>
<g>
	<path d="M103.3,73.6c0-0.1,0-0.2,0.1-0.3c0-0.1,0-0.1,0-0.2c0-0.1,0-0.1,0-0.2c0,0-0.1-0.1-0.1-0.1s-0.1,0-0.3,0l0-0.2l0.9,0h0.2
		l-0.8,3.8c0,0.2-0.1,0.4-0.1,0.5c0,0.1,0,0.2,0,0.2c0,0,0.1,0.1,0.1,0.1c0.1,0,0.1,0,0.2-0.1c0.1-0.1,0.2-0.2,0.3-0.3l0.2,0.2
		c-0.2,0.2-0.4,0.4-0.5,0.5c-0.1,0.1-0.3,0.1-0.5,0.1c-0.1,0-0.3-0.1-0.4-0.2c-0.1-0.1-0.1-0.2-0.1-0.4c0-0.2,0-0.4,0.1-0.7
		L103.3,73.6z"/>
</g>
<g>
	<line class="st7" x1="61.8" y1="127" x2="61.8" y2="134.4"/>
</g>
<g>
	<line class="st7" x1="160.2" y1="127" x2="160.2" y2="134.4"/>
</g>
</svg>
