<?xml version="1.0" encoding="utf-8"?>
<!-- Generator: Adobe Illustrator 19.2.1, SVG Export Plug-In . SVG Version: 6.00 Build 0)  -->
<svg version="1.1" xmlns="http://www.w3.org/2000/svg" xmlns:xlink="http://www.w3.org/1999/xlink" x="0px" y="0px"
	 viewBox="0 0 84 84" style="enable-background:new 0 0 84 84;" xml:space="preserve">
<style type="text/css">
	.st1{display:inline;}
	.st2{fill:#FFFFFF;}
</style>
<g id="circle">
	<circle class="st1" cx="42" cy="42" r="42"/>
</g>
<g id="_x2B__copy" class="st0">
	<g class="st1">
		<path class="st2" d="M37.2,48.6v-9.7H22.5c-1,0-1.9-0.9-1.9-1.9v-7.1c0-1,0.9-1.9,1.9-1.9h14.8V13.1c0-1,0.9-1.8,1.9-1.8h7.1
			c1,0,1.9,0.8,1.9,1.8V28H63c1,0,1.8,0.9,1.8,1.9V37c0,1-0.8,1.9-1.8,1.9H48.1v9.7c0,1-0.9,1.8-1.9,1.8h-7.1
			C38.1,50.4,37.2,49.6,37.2,48.6z M21.5,61.6c0-1,0.9-1.9,1.9-1.9h37.8c1,0,1.8,0.9,1.8,1.9v7.1c0,1-0.8,1.9-1.8,1.9H23.5
			c-1,0-1.9-0.9-1.9-1.9V61.6z"/>
	</g>
</g>
</svg>