<?xml version="1.0" encoding="utf-8"?>
<!-- Generator: Adobe Illustrator 19.2.1, SVG Export Plug-In . SVG Version: 6.00 Build 0)  -->
<svg version="1.1" id="Layer_1" xmlns="http://www.w3.org/2000/svg" xmlns:xlink="http://www.w3.org/1999/xlink" x="0px" y="0px"
	 viewBox="0 0 34 34" style="enable-background:new 0 0 34 34;" xml:space="preserve">
<style type="text/css">
	.pt0{fill:#999999;}
	.pt1{fill:#FFFFFF;}
</style>
<g>
	<circle class="pt0" cx="17" cy="17" r="17"/>
	<path class="pt1" d="M10.3,20.1H7c-0.2,0-0.3-0.1-0.3-0.3v-5.6c0-0.2,0.1-0.3,0.3-0.3h3.3c0.2,0,0.3,0.1,0.3,0.3v5.6
		C10.6,20,10.5,20.1,10.3,20.1z"/>
	<path class="pt1" d="M23.4,20.1H12c-0.2,0-0.3-0.1-0.3-0.3v-5.6c0-0.2,0.1-0.3,0.3-0.3h11.4c0.2,0,0.3,0.1,0.3,0.3v5.6
		C23.7,20,23.5,20.1,23.4,20.1z"/>
	<path class="pt1" d="M28.4,17.2l-6.2,5.7c-0.2,0.2-0.5,0-0.5-0.2V11.3c0-0.3,0.3-0.4,0.5-0.2l6.2,5.7
		C28.5,16.9,28.5,17.1,28.4,17.2z"/>
</g>
</svg>
