<?xml version="1.0" encoding="utf-8"?>
<!-- Generator: Adobe Illustrator 19.2.1, SVG Export Plug-In . SVG Version: 6.00 Build 0)  -->
<svg version="1.1" id="Layer_1" xmlns="http://www.w3.org/2000/svg" xmlns:xlink="http://www.w3.org/1999/xlink" x="0px" y="0px"
	 viewBox="0 0 181.9 53.6" style="enable-background:new 0 0 181.9 53.6;" xml:space="preserve">
<style type="text/css">
	.st0{fill:#58595B;}
</style>
<g>
	<path class="st0" d="M13.8,41.7L0.7,28.5c-1-1-1-2.5,0-3.5l13.1-13.1c1-1,2.5-1,3.5,0L30.5,25c1,1,1,2.5,0,3.5L17.3,41.7
		C16.4,42.6,14.8,42.6,13.8,41.7z"/>
	<path class="st0" d="M174.2,53.6H17.4c-4.3,0-7.7-3.5-7.7-7.7V7.7c0-4.3,3.5-7.7,7.7-7.7h156.8c4.3,0,7.7,3.5,7.7,7.7v38.2
		C181.9,50.1,178.4,53.6,174.2,53.6z"/>
</g>
</svg>
