<?xml version="1.0" encoding="utf-8"?>
<!-- Generator: Adobe Illustrator 19.2.1, SVG Export Plug-In . SVG Version: 6.00 Build 0)  -->
<svg version="1.1" id="Layer_1" xmlns="http://www.w3.org/2000/svg" xmlns:xlink="http://www.w3.org/1999/xlink" x="0px" y="0px"
	 viewBox="0 0 633 329" style="enable-background:new 0 0 633 329;" xml:space="preserve">
<style type="text/css">
	.st0{fill:#D1D3D4;}
	.st1{font-family:'BrandonGrotesque-Black';}
	.st2{font-size:29.542px;}
	.st3{fill:#A7A9AC;}
	.st4{font-size:34px;}
	.st5{fill:#58595B;}
	.st6{fill:#BCBEC0;}
</style>
<text transform="matrix(1 0 0 1 559 89.3452)" class="st0 st1 st2">beta</text>
<text transform="matrix(1 0 0 1 177.7623 314.5829)" class="st3 st1 st4" style="text-decoration: underline;">Authorities made public</text>
<g>
	<g>
		<path class="st5" d="M170.3,101.3c14.4,0,25.1,4.5,34.8,13.4c1.3,1.2,1.3,2.9,0.1,4l-11.2,11.7c-1,1-2.6,1-3.6,0
			c-5.3-4.8-12.4-7.3-19.4-7.3c-16.3,0-28.2,13.5-28.2,29.7c0,16,12.1,29.2,28.4,29.2c6.8,0,14.1-2.4,19.3-6.9
			c1-0.9,2.9-0.9,3.7,0.1l11.2,12c1,1,0.9,2.9-0.1,3.9c-9.8,9.5-22.2,14-35,14c-28.8,0-52-22.9-52-51.7
			C118.3,124.5,141.5,101.3,170.3,101.3z"/>
		<path class="st5" d="M222.6,105.5c0-1.4,1.2-2.7,2.7-2.7h17.1c1.4,0,2.7,1.3,2.7,2.7v76.9h34.3c1.6,0,2.7,1.3,2.7,2.7v15.7
			c0,1.4-1.2,2.7-2.7,2.7h-54.1c-1.6,0-2.7-1.3-2.7-2.7V105.5z"/>
		<path class="st5" d="M296.2,105.5c0-1.4,1.3-2.7,2.7-2.7h17.3c1.4,0,2.7,1.3,2.7,2.7v95.3c0,1.4-1.3,2.7-2.7,2.7h-17.3
			c-1.4,0-2.7-1.3-2.7-2.7V105.5z"/>
		<path class="st5" d="M388,101.3c28.8,0,51.8,23.2,51.8,52c0,18.7-10.8,35.7-26.6,45.4l18.6,29.1c1.2,2,0,4.3-2.3,4.3h-19.4
			c-1.2,0-1.9-0.7-2.3-1.4l-15.3-25.8c-1.7,0.1-3.5,0.1-4.5,0.1c-28.8,0-51.7-22.9-51.7-51.7C336.3,124.5,359.2,101.3,388,101.3z
			 M388,181.9c15.8,0,28.8-13,28.8-28.7c0-15.8-13-28.9-28.8-28.9c-15.7,0-28.7,13.1-28.7,28.9C359.4,169,372.3,181.9,388,181.9z"/>
		<path class="st5" d="M456.3,105.5c0-1.4,1.3-2.7,2.7-2.7h17.7c1.6,0,2.7,1.3,2.7,2.7v58.3c0,10.1,7.5,18.1,17.7,18.1
			c10.4,0,18-8.1,18-18.1v-58.3c0-1.4,1.2-2.7,2.7-2.7h17.7c1.4,0,2.7,1.3,2.7,2.7v59.5c0,21.9-18.4,40-41.2,40
			c-22.6,0-40.9-18.1-40.9-40V105.5z"/>
		<path class="st5" d="M561.5,105.5c0-1.4,1.2-2.7,2.7-2.7h59.6c1.6,0,2.7,1.3,2.7,2.7v15.7c0,1.4-1.2,2.7-2.7,2.7H584v17.9h32.8
			c1.4,0,2.7,1.3,2.7,2.7v15.7c0,1.6-1.3,2.7-2.7,2.7H584v19.4h39.9c1.6,0,2.7,1.3,2.7,2.7v15.7c0,1.4-1.2,2.7-2.7,2.7h-59.6
			c-1.6,0-2.7-1.3-2.7-2.7V105.5z"/>
	</g>
	<g>
		<path class="st6" d="M111,202.8l-31.6-2.1l-30.5-14.3l-29.7-32.7l0-0.2L7.6,100.8l14.8-44.5l25.3-26.6L75,16l32.7-3.9l36,7.6
			l26.7,21.5l-27.1,27.6L116,54.1l-29.2,2.9L62.2,78.5l-8.1,25.9l4.7,24.5L75.7,150l28.1,9.2l40.2-13.1l26.1,26.8l-26.7,21l-0.2,0
			L111,202.8z M79.8,199.1l31,2l32-8.6l25-19.7L143.6,148l-39.8,13l-29.1-9.5l-17.4-21.8l-4.9-25.3l8.4-26.7l25.3-22l30.2-3
			L143,66.7l25-25.5l-25-20.1l-35.4-7.5l-32.2,3.9l-27,13.6L23.8,57.2L9.3,100.9l11.3,51.9l29.2,32.2L79.8,199.1z"/>
	</g>
	<g>
		<path class="st6" d="M110.9,202.7c0,0-0.1,0-0.1,0c-0.3-0.1-0.6-0.3-0.6-0.7l-6.7-39.7l-23.1,38c-0.2,0.3-0.5,0.4-0.9,0.4
			c-0.3-0.1-0.6-0.4-0.6-0.7l-3.3-47.5L50,186.9c-0.2,0.3-0.6,0.4-1,0.3c-0.3-0.1-0.5-0.5-0.5-0.9l9.1-55.5l-38.3,22.5
			c-0.3,0.2-0.7,0.1-1-0.2c-0.3-0.3-0.3-0.7-0.1-1L52.7,105l-44.8-4c-0.2,0-0.5-0.2-0.6-0.4c-0.1-0.2-0.2-0.5-0.1-0.7l15.8-43
			c0.1-0.3,0.4-0.5,0.7-0.5c0.3,0,0.6,0.1,0.8,0.4L53.9,103l-0.7,0.5l1,0.1c0.3,0,0.5,0.2,0.7,0.5s0.1,0.6-0.1,0.8l-32.9,45.1
			l36.5-21.4c0.3-0.2,0.6-0.1,0.9,0c0.3,0.2,0.4,0.5,0.3,0.8l-8.8,53.9l24.8-33.5c0.2-0.3,0.5-0.4,0.9-0.3c0.3,0.1,0.6,0.4,0.6,0.7
			l3.3,47.1l22.9-37.6c0.2-0.3,0.5-0.4,0.8-0.4c0.3,0.1,0.6,0.3,0.6,0.7l6.7,39.7l31.8-53.7c0.2-0.3,0.6-0.5,0.9-0.4
			c0.3,0.1,0.6,0.4,0.6,0.8l-0.7,46.9l-1.6,0l0.6-43.9l-31.4,53C111.4,202.6,111.2,202.7,110.9,202.7z M9.1,99.5l43.2,3.8L24,59
			L9.1,99.5z"/>
	</g>
	<g>
		<path class="st6" d="M61.8,78.2L48,30.7c-0.1-0.3,0-0.6,0.3-0.7c0.2-0.2,0.5-0.2,0.8,0l37.7,25.8L86,56.9L49.9,32.1l13.2,45.7
			L61.8,78.2z"/>
	</g>
	<g>
		<path class="st6" d="M143.2,67.3L142.8,22l-27.1,31.9c-0.1,0.2-0.4,0.2-0.6,0.2c-0.2-0.1-0.4-0.2-0.4-0.5l-7.4-39.6L87,56.6
			c-0.1,0.2-0.3,0.4-0.6,0.3c-0.2,0-0.5-0.2-0.5-0.4L74.6,16.2l1.2-0.3l10.8,38.7l20.3-42.7c0.1-0.2,0.4-0.4,0.6-0.3
			c0.3,0,0.5,0.2,0.5,0.5l7.5,40.1L142.9,20c0.2-0.2,0.4-0.3,0.7-0.2c0.2,0.1,0.4,0.3,0.4,0.6l0.5,46.9L143.2,67.3z"/>
	</g>
	<g>
		<path class="st6" d="M111.4,201.3c-0.1,0-0.2,0-0.3-0.1l-51.4-50.1l-40.4,1.1c-0.1,0-0.2-0.1-0.3-0.1c-0.1-0.1-0.1-0.2-0.1-0.3
			l7.5-33L7.7,100.5c-0.1-0.1-0.1-0.2-0.1-0.3c0-0.1,0.1-0.2,0.1-0.3l28.6-24.8l10.4-45.6c0-0.2,0.2-0.3,0.4-0.3l38.2,3.4l22.5-19.5
			l0.5,0.6l-21.9,19l82.3,7.4c0.2,0,0.3,0.2,0.4,0.4c0,0.2-0.1,0.4-0.3,0.4l-52.1,12.8l-0.2-0.8l49.8-12.2l-80.7-7.3L37.1,75.5
			l-9.7,43L60,150.3l16.1-0.4c0.1,0,0.3,0.1,0.3,0.2l35.3,50.6c0.1,0.2,0.1,0.4-0.1,0.5C111.6,201.2,111.5,201.3,111.4,201.3z
			 M60.8,151.1l47.8,46.6l-32.8-47L60.8,151.1z M27.1,119.4l-7.3,32l39.1-1L27.1,119.4z M8.6,100.2l18.1,17.6l9.4-41.4L8.6,100.2z
			 M47.4,30l-10,44.2l47.1-40.9L47.4,30z"/>
	</g>
	<g>
		<path class="st6" d="M62,78.7l-39.3-21c-0.3-0.2-0.5-0.5-0.4-0.9c0.1-0.4,0.4-0.6,0.8-0.6L84.7,55l59-36.2l0.8,1.4L85.3,56.4
			c-0.1,0.1-0.3,0.1-0.4,0.1l-58.7,1.2l36.6,19.6L62,78.7z"/>
	</g>
	<g>
		<path class="st6" d="M144,194.3c0,0-0.1,0-0.1,0L19.2,152.2c-0.2-0.1-0.3-0.2-0.3-0.4L22.7,57l0.8,0l-3.7,94.5l122.4,41.3
			l-39.9-33.7c-0.1-0.1-0.2-0.3-0.1-0.5c0.1-0.2,0.3-0.3,0.4-0.2l66.4,14.1l-0.2,0.8l-64.8-13.8l40.2,34c0.1,0.1,0.2,0.3,0.1,0.5
			C144.3,194.2,144.2,194.3,144,194.3z"/>
	</g>
	<g>
		<circle class="st0" cx="144" cy="66.8" r="4.4"/>
	</g>
	<g>
		<circle class="st0" cx="169.2" cy="41.2" r="4.4"/>
	</g>
	<g>
		<circle class="st0" cx="143.4" cy="20.4" r="3.4"/>
	</g>
	<g>
		<circle class="st0" cx="115.5" cy="53.3" r="4.4"/>
	</g>
	<g>
		<circle class="st0" cx="85.3" cy="56.5" r="4.4"/>
	</g>
	<g>
		<circle class="st0" cx="61.5" cy="78" r="4.4"/>
	</g>
	<g>
		<circle class="st0" cx="53.5" cy="103.4" r="4.4"/>
	</g>
	<g>
		<circle class="st0" cx="58.1" cy="129.2" r="4.4"/>
	</g>
	<g>
		<circle class="st0" cx="76.1" cy="150.3" r="6.7"/>
	</g>
	<g>
		<circle class="st0" cx="103.8" cy="160.1" r="2.7"/>
	</g>
	<g>
		<circle class="st0" cx="143.8" cy="147.1" r="4.4"/>
	</g>
	<g>
		<circle class="st0" cx="169" cy="172.9" r="4.4"/>
	</g>
	<g>
		<circle class="st0" cx="143.1" cy="193.3" r="2.1"/>
	</g>
	<g>
		<circle class="st0" cx="110.7" cy="201.3" r="4.4"/>
	</g>
	<g>
		<circle class="st0" cx="79.3" cy="199.2" r="4.4"/>
	</g>
	<g>
		<circle class="st0" cx="49.4" cy="185.7" r="2.6"/>
	</g>
	<g>
		<circle class="st0" cx="19.9" cy="152.3" r="4.4"/>
	</g>
	<g>
		<circle class="st0" cx="8.7" cy="100.2" r="4.4"/>
	</g>
	<g>
		<circle class="st0" cx="23.1" cy="56.8" r="8.7"/>
	</g>
	<g>
		<circle class="st0" cx="48" cy="30.5" r="4.4"/>
	</g>
	<g>
		<circle class="st0" cx="75.2" cy="16.7" r="4.4"/>
	</g>
	<g>
		<circle class="st0" cx="107.7" cy="12.9" r="4.4"/>
	</g>
</g>
</svg>
