<?xml version="1.0" encoding="utf-8"?>
<!-- Generator: Adobe Illustrator 19.2.1, SVG Export Plug-In . SVG Version: 6.00 Build 0)  -->
<svg version="1.1" id="Layer_1" xmlns="http://www.w3.org/2000/svg" xmlns:xlink="http://www.w3.org/1999/xlink" x="0px" y="0px"
	 viewBox="0 0 431 82.4" style="enable-background:new 0 0 431 82.4;" xml:space="preserve">
<style type="text/css">
	.st0{fill:#FBD7E7;}
</style>
<path class="st0" d="M361,31l-13.1-13.1c-1-1-1-2.5,0-3.5L361,1.3c1-1,2.5-1,3.5,0l13.1,13.1c1,1,1,2.5,0,3.5L364.5,31
	C363.5,32,362,32,361,31z"/>
<path class="st0" d="M423.3,82.4H7.7c-4.3,0-7.7-3.5-7.7-7.7V22.1c0-4.3,3.5-7.7,7.7-7.7h415.6c4.3,0,7.7,3.5,7.7,7.7v52.6
	C431,78.9,427.5,82.4,423.3,82.4z"/>
</svg>
