<?xml version="1.0" encoding="utf-8"?>
<!-- Generator: Adobe Illustrator 19.2.1, SVG Export Plug-In . SVG Version: 6.00 Build 0)  -->
<svg version="1.1" id="Layer_1" xmlns="http://www.w3.org/2000/svg" xmlns:xlink="http://www.w3.org/1999/xlink" x="0px" y="0px"
	 viewBox="0 0 18.8 12.2" style="enable-background:new 0 0 18.8 12.2;" xml:space="preserve">
<style type="text/css">
	.st0{fill:#A7A9AC;}
</style>
<path class="st0" d="M12.5,0c-1.2,0-2.3,0.4-3.3,1C8.3,0.3,7.2,0,6,0C2.7,0-0.1,2.7-0.1,6.1s2.7,6.1,6.1,6.1c1.2,0,2.3-0.4,3.3-1
	c0.9,0.6,2.1,1,3.3,1c3.4,0,6.1-2.7,6.1-6.1S15.9,0,12.5,0z M9.3,8.5C8.8,7.8,8.4,7,8.4,6.1c0-0.9,0.3-1.8,0.8-2.4
	c0.5,0.7,0.8,1.5,0.8,2.4C10.1,7,9.8,7.8,9.3,8.5z M1.9,6.1C1.9,3.8,3.8,2,6,2c0.6,0,1.2,0.1,1.7,0.4c-0.8,1-1.3,2.3-1.3,3.7
	c0,1.4,0.5,2.7,1.3,3.7C7.2,10,6.6,10.2,6,10.2C3.8,10.2,1.9,8.3,1.9,6.1z M12.5,10.2c-0.6,0-1.2-0.1-1.7-0.4c0.8-1,1.3-2.3,1.3-3.7
	c0-1.4-0.5-2.7-1.3-3.7C11.4,2.1,11.9,2,12.5,2c2.3,0,4.1,1.8,4.1,4.1C16.6,8.3,14.8,10.2,12.5,10.2z"/>
</svg>
