<svg class="magnifier" xmlns="http://www.w3.org/2000/svg" viewBox="0 0 409.6 409.6">
	<defs><style>
		.mag-1{fill:#FFF;}
		.mag-1:hover{fill:#FF0}
	</style></defs>
<title>magnifier</title>
<path class="mag-1" d="M398.35,344.05l-94-94a180.78,180.78,0,0,1-54.3,54.3l94,94a38.4,38.4,0,1,0,54.3-54.3h0Zm0,0"/>
<path class="mag-1" d="M307.2,153.6A153.6,153.6,0,1,0,153.6,307.2,153.6,153.6,0,0,0,307.2,153.6h0ZM153.6,268.8A115.2,115.2,0,1,1,268.8,153.6,115.33,115.33,0,0,1,153.6,268.8h0Zm0,0"/>
<path class="mag-1" d="M64,153.6H89.6a64.07,64.07,0,0,1,64-64V64A89.71,89.71,0,0,0,64,153.6h0Zm0,0"/>
</svg>