<?xml version="1.0" encoding="utf-8"?>
<!-- Generator: Adobe Illustrator 19.2.1, SVG Export Plug-In . SVG Version: 6.00 Build 0)  -->
<svg version="1.1" id="Layer_1" xmlns="http://www.w3.org/2000/svg" xmlns:xlink="http://www.w3.org/1999/xlink" x="0px" y="0px"
	 viewBox="0 0 34 34" style="enable-background:new 0 0 34 34;" xml:space="preserve">
<style type="text/css">
	.st0{fill:#989898;}
	.st1{fill:none;stroke:#FFFFFF;stroke-miterlimit:10;}
	.st2{fill:#FFFFFF;}
	.st3{clip-path:url(#SVGID_2_);}
	.st4{fill:none;stroke:#989898;stroke-width:4;stroke-miterlimit:10;}
	.st5{fill:none;stroke:#FFFFFF;stroke-width:2;stroke-miterlimit:10;}
</style>
<circle class="st0" cx="17" cy="17" r="17"/>
<line class="st1" x1="25" y1="19" x2="9.3" y2="19"/>
<polygon class="st2" points="28.2,19 17.5,19 17.5,7.4 25.8,9.7 "/>
<g>
	<defs>
		<circle id="SVGID_1_" cx="17.1" cy="17" r="17"/>
	</defs>
	<clipPath id="SVGID_2_">
		<use xlink:href="#SVGID_1_"  style="overflow:visible;"/>
	</clipPath>
	<g class="st3">
		<path class="st4" d="M18.2,41h-1.8c-4.9,0-8.8-3.9-8.8-8.8v-16c0-4.9,3.9-8.8,8.8-8.8h1.8c4.9,0,8.8,3.9,8.8,8.8v16
			C27,37,23.1,41,18.2,41z"/>
		<path class="st5" d="M18.2,41h-1.8c-4.9,0-8.8-3.9-8.8-8.8v-16c0-4.9,3.9-8.8,8.8-8.8h1.8c4.9,0,8.8,3.9,8.8,8.8v16
			C27,37,23.1,41,18.2,41z"/>
	</g>
</g>
<path class="st2" d="M10.6,19.5v-3.3c0-3.2,2.6-5.8,5.8-5.8h1.8c3.2,0,5.8,2.6,5.8,5.8v3.3h1v-3.3c0-3.7-3-6.8-6.8-6.8h-1.8
	c-3.7,0-6.8,3-6.8,6.8v3.3H10.6z"/>
</svg>
