<?xml version="1.0" encoding="utf-8"?>
<!-- Generator: Adobe Illustrator 19.2.1, SVG Export Plug-In . SVG Version: 6.00 Build 0)  -->
<svg version="1.1" id="Layer_1" xmlns="http://www.w3.org/2000/svg" xmlns:xlink="http://www.w3.org/1999/xlink" x="0px" y="0px"
	 viewBox="0 0 34 34" style="enable-background:new 0 0 34 34;" xml:space="preserve">
<style type="text/css">
	.pt0{fill:#999999;}
	.pt1{fill:#FFFFFF;}
</style>
<g>
	<circle class="pt0" cx="17" cy="17" r="17"/>
	<path class="pt1" d="M11.2,21.1V12c0-0.2,0.1-0.3,0.3-0.3h10.9c0.2,0,0.3,0.1,0.3,0.3v9.1c0,0.2-0.1,0.3-0.3,0.3H11.5
		C11.4,21.4,11.2,21.2,11.2,21.1z"/>
	
		<rect x="16.4" y="4" transform="matrix(-1.790023e-09 1 -1 -1.790023e-09 26.7432 -7.2537)" class="pt1" width="1.1" height="11.5"/>
	
		<rect x="16.7" y="2.2" transform="matrix(-3.580045e-09 1 -1 -3.580045e-09 24.9432 -9.0537)" class="pt1" width="0.6" height="11.5"/>
	
		<rect x="16.9" y="0.9" transform="matrix(-7.172829e-09 1 -1 -7.172829e-09 23.6215 -10.3754)" class="pt1" width="0.3" height="11.5"/>
	<path class="pt1" d="M16.8,28.1L6,20.6C5.7,20.4,5.9,20,6.2,20h21.7c0.3,0,0.4,0.4,0.2,0.5l-10.8,7.6
		C17.1,28.2,16.9,28.2,16.8,28.1z"/>
</g>
</svg>
