<?xml version="1.0" encoding="utf-8"?>
<!-- Generator: Adobe Illustrator 19.2.1, SVG Export Plug-In . SVG Version: 6.00 Build 0)  -->
<svg version="1.1" xmlns="http://www.w3.org/2000/svg" xmlns:xlink="http://www.w3.org/1999/xlink" x="0px" y="0px"
	 viewBox="0 0 84 84" style="enable-background:new 0 0 84 84;" xml:space="preserve">
<style type="text/css">
	.st1{display:inline;}
	.st2{fill:#FFFFFF;}
</style>
<g id="square">
	<rect width="84" height="84"/>
</g>
<g id="_x3D_" class="st0">
	<g class="st1">
		<path class="st2" d="M23.6,37V30c0-1,0.8-1.9,1.9-1.9H59c1.1,0,1.9,0.9,1.9,1.9V37c0,1-0.8,1.9-1.9,1.9H25.5
			C24.4,38.9,23.6,38,23.6,37z M23.6,57.9v-7c0-1,0.8-1.9,1.9-1.9H59c1.1,0,1.9,0.9,1.9,1.9v7c0,1-0.8,1.9-1.9,1.9H25.5
			C24.4,59.7,23.6,58.9,23.6,57.9z"/>
	</g>
</g>
</svg>