<?xml version="1.0" encoding="utf-8"?>
<!-- Generator: Adobe Illustrator 19.2.1, SVG Export Plug-In . SVG Version: 6.00 Build 0)  -->
<svg version="1.1" xmlns="http://www.w3.org/2000/svg" xmlns:xlink="http://www.w3.org/1999/xlink" x="0px" y="0px"
	 viewBox="0 0 84 84" style="enable-background:new 0 0 84 84;" xml:space="preserve">
<style type="text/css">
	.st1{display:inline;}
	.st2{fill:#FFFFFF;}
</style>
<g id="square">
	<rect width="84" height="84"/>
</g>
<g id="_x2B_">
	<g>
		<path class="st2" d="M36.7,47.3h-16c-1.1,0-2.1-1-2.1-2.1v-7.7c0-1.1,1-2.1,2.1-2.1h16V19.4c0-1.1,1-2,2.1-2h7.7
			c1.1,0,2.1,0.9,2.1,2v16.1h16.1c1.1,0,2,1,2,2.1v7.7c0,1.1-0.9,2.1-2,2.1H48.5v16c0,1.1-1,2-2.1,2h-7.7c-1.1,0-2.1-0.9-2.1-2V47.3
			z"/>
	</g>
</g>
</svg>