<?xml version="1.0" encoding="utf-8"?>
<!-- Generator: Adobe Illustrator 19.2.1, SVG Export Plug-In . SVG Version: 6.00 Build 0)  -->
<svg version="1.1" id="Layer_1" xmlns="http://www.w3.org/2000/svg" xmlns:xlink="http://www.w3.org/1999/xlink" x="0px" y="0px"
	 viewBox="0 0 84 84" style="enable-background:new 0 0 84 84;" xml:space="preserve">
<style type="text/css">
	.st0{fill:#FFFFFF;}
	.st1{fill:none;stroke:#FFFFFF;stroke-miterlimit:10;}
</style>
<g id="_x2B_">
	<g>
		<path class="st0" d="M36.7,47.3h-16c-1.1,0-2.1-1-2.1-2.1v-7.7c0-1.1,1-2.1,2.1-2.1h16v-16c0-1.1,1-2,2.1-2h7.7
			c1.1,0,2.1,0.9,2.1,2v16.1h16.1c1.1,0,2,1,2,2.1v7.7c0,1.1-0.9,2.1-2,2.1H48.5v16c0,1.1-1,2-2.1,2h-7.7c-1.1,0-2.1-0.9-2.1-2
			L36.7,47.3L36.7,47.3z"/>
	</g>
</g>
<g id="_x2B__copy">
	<g>
		<path class="st0" d="M37.2,48.6v-9.7H22.5c-1,0-1.9-0.9-1.9-1.9v-7.1c0-1,0.9-1.9,1.9-1.9h14.8V13.1c0-1,0.9-1.8,1.9-1.8h7.1
			c1,0,1.9,0.8,1.9,1.8V28H63c1,0,1.8,0.9,1.8,1.9V37c0,1-0.8,1.9-1.8,1.9H48.1v9.7c0,1-0.9,1.8-1.9,1.8h-7.1
			C38.1,50.4,37.2,49.6,37.2,48.6z M21.5,61.6c0-1,0.9-1.9,1.9-1.9h37.8c1,0,1.8,0.9,1.8,1.9v7.1c0,1-0.8,1.9-1.8,1.9H23.5
			c-1,0-1.9-0.9-1.9-1.9v-7.1H21.5z"/>
	</g>
</g>
<g id="_x2F_">
	<g>
		<path class="st0" d="M44.3,11.1c0.2-0.6,0.9-1.2,1.6-1.2h8.9c1.3,0,2,1,1.6,2.3L38.8,72.4c-0.2,0.6-1,1.2-1.6,1.2h-9
			c-1.2,0-2-1-1.6-2.3L44.3,11.1z"/>
	</g>
</g>
<g id="_x3D_">
	<g>
		<path class="st0" d="M23.6,37v-7c0-1,0.8-1.9,1.9-1.9H59c1.1,0,1.9,0.9,1.9,1.9v7c0,1-0.8,1.9-1.9,1.9H25.5
			C24.4,38.9,23.6,38,23.6,37z M23.6,57.9v-7c0-1,0.8-1.9,1.9-1.9H59c1.1,0,1.9,0.9,1.9,1.9v7c0,1-0.8,1.9-1.9,1.9H25.5
			C24.4,59.7,23.6,58.9,23.6,57.9z"/>
	</g>
</g>
<g id="_x2D_">
	<g>
		<g>
			<path class="st0" d="M21.5,46.9v-10c0-1.2,0.9-2.1,2.1-2.1h38.1c1.2,0,2.1,0.9,2.1,2.1v10c0,1.1-0.9,2-2.1,2H23.6
				C22.4,48.8,21.5,47.9,21.5,46.9z"/>
		</g>
	</g>
</g>
<g id="square">
	<rect y="0" class="st1" width="84" height="84"/>
</g>
<g id="circle_mask">
	<path class="st0" d="M0,42v42h42C18.8,84,0,65.2,0,42z"/>
	<path class="st0" d="M42,0H0v42C0,18.8,18.8,0,42,0z"/>
	<path class="st0" d="M42,84h42V42C84,65.2,65.2,84,42,84z"/>
	<path class="st0" d="M42,0c23.2,0,42,18.8,42,42V0H42z"/>
</g>
</svg>
