<?xml version="1.0" encoding="utf-8"?>
<!-- Generator: Adobe Illustrator 19.2.1, SVG Export Plug-In . SVG Version: 6.00 Build 0)  -->
<svg version="1.1" id="Layer_1" xmlns="http://www.w3.org/2000/svg" xmlns:xlink="http://www.w3.org/1999/xlink" x="0px" y="0px"
	 viewBox="0 0 182.1 107.2" style="enable-background:new 0 0 182.1 107.2;" xml:space="preserve">
<style type="text/css">
	.st0{fill:#58595B;}
</style>
<path class="st0" d="M14,44.7L0.9,31.6c-1-1-1-2.5,0-3.5L14,15c1-1,2.5-1,3.5,0l13.1,13.1c1,1,1,2.5,0,3.5L17.5,44.7
	C16.6,45.7,15,45.7,14,44.7z"/>
<path class="st0" d="M174.4,107.2H17.6c-4.3,0-7.7-3.5-7.7-7.7V7.7c0-4.3,3.5-7.7,7.7-7.7h156.8c4.3,0,7.7,3.5,7.7,7.7v91.8
	C182.1,103.7,178.6,107.2,174.4,107.2z"/>
</svg>
