<?xml version="1.0" encoding="utf-8"?>
<!-- Generator: Adobe Illustrator 19.2.1, SVG Export Plug-In . SVG Version: 6.00 Build 0)  -->
<svg version="1.1" id="logo" xmlns="http://www.w3.org/2000/svg" xmlns:xlink="http://www.w3.org/1999/xlink" x="0px" y="0px"
	 viewBox="0 0 78.7 31.4" style="enable-background:new 0 0 78.7 31.4;" xml:space="preserve">
<style type="text/css">
	.st0{enable-background:new    ;}
	.st1{fill:#E6E7E8;}
	.st2{fill:#FFFFFF;}
	.st3{fill:none;stroke:#FFFFFF;stroke-width:0.2;stroke-miterlimit:10;}
	.st4{fill:none;stroke:#FFFFFF;stroke-width:0.2;stroke-linejoin:round;}
	.st5{fill:none;stroke:#FFFFFF;stroke-width:0.17;stroke-linejoin:round;}
	.st6{fill:none;stroke:#FFFFFF;stroke-width:0.14;stroke-linejoin:round;}
	.st7{fill:none;stroke:#FFFFFF;stroke-width:0.1;stroke-linejoin:round;}
	.st8{fill:none;stroke:#FFFFFF;stroke-width:7.000000e-02;stroke-linejoin:round;}
</style>
<title>TNL_logoClique_wit</title>
<g class="st0">
	<path class="st1" d="M20.8,11.6c1.8,0,3.1,0.6,4.4,1.7c0.2,0.1,0.2,0.4,0,0.5l-1.4,1.5c-0.1,0.1-0.3,0.1-0.5,0
		c-0.7-0.6-1.5-0.9-2.4-0.9c-2,0-3.5,1.7-3.5,3.7c0,2,1.5,3.7,3.5,3.7c0.8,0,1.8-0.3,2.4-0.9c0.1-0.1,0.4-0.1,0.5,0l1.4,1.5
		c0.1,0.1,0.1,0.4,0,0.5c-1.2,1.2-2.8,1.7-4.4,1.7c-3.6,0-6.5-2.9-6.5-6.5C14.3,14.5,17.2,11.6,20.8,11.6z"/>
	<path class="st1" d="M27.3,12.1c0-0.2,0.1-0.3,0.3-0.3h2.1c0.2,0,0.3,0.2,0.3,0.3v9.6h4.3c0.2,0,0.3,0.2,0.3,0.3v2
		c0,0.2-0.1,0.3-0.3,0.3h-6.8c-0.2,0-0.3-0.2-0.3-0.3V12.1z"/>
	<path class="st1" d="M36.5,12.1c0-0.2,0.2-0.3,0.3-0.3H39c0.2,0,0.3,0.2,0.3,0.3V24c0,0.2-0.2,0.3-0.3,0.3h-2.2
		c-0.2,0-0.3-0.2-0.3-0.3V12.1z"/>
	<path class="st1" d="M48,11.6c3.6,0,6.5,2.9,6.5,6.5c0,2.3-1.4,4.5-3.3,5.7l2.3,3.6c0.1,0.3,0,0.5-0.3,0.5h-2.4
		c-0.1,0-0.2-0.1-0.3-0.2l-1.9-3.2c-0.2,0-0.4,0-0.6,0c-3.6,0-6.5-2.9-6.5-6.5C41.5,14.5,44.4,11.6,48,11.6z M48,21.7
		c2,0,3.6-1.6,3.6-3.6c0-2-1.6-3.6-3.6-3.6c-2,0-3.6,1.6-3.6,3.6C44.4,20.1,46,21.7,48,21.7z"/>
	<path class="st1" d="M56.5,12.1c0-0.2,0.2-0.3,0.3-0.3h2.2c0.2,0,0.3,0.2,0.3,0.3v7.3c0,1.3,0.9,2.3,2.2,2.3c1.3,0,2.3-1,2.3-2.3
		v-7.3c0-0.2,0.1-0.3,0.3-0.3h2.2c0.2,0,0.3,0.2,0.3,0.3v7.4c0,2.7-2.3,5-5.1,5c-2.8,0-5.1-2.3-5.1-5V12.1z"/>
	<path class="st1" d="M69.7,12.1c0-0.2,0.1-0.3,0.3-0.3h7.5c0.2,0,0.3,0.2,0.3,0.3v2c0,0.2-0.1,0.3-0.3,0.3h-5v2.2h4.1
		c0.2,0,0.3,0.2,0.3,0.3v2c0,0.2-0.2,0.3-0.3,0.3h-4.1v2.4h5c0.2,0,0.3,0.2,0.3,0.3v2c0,0.2-0.1,0.3-0.3,0.3H70
		c-0.2,0-0.3-0.2-0.3-0.3V12.1z"/>
</g>
<circle class="st2" cx="17.5" cy="7.3" r="0.5"/>
<circle class="st2" cx="20.6" cy="4.1" r="0.5"/>
<circle class="st2" cx="17.4" cy="1.5" r="0.4"/>
<circle class="st2" cx="13.9" cy="5.6" r="0.6"/>
<circle class="st2" cx="10.1" cy="6" r="0.6"/>
<circle class="st2" cx="7.2" cy="8.7" r="0.6"/>
<circle class="st2" cx="6.2" cy="11.9" r="0.6"/>
<circle class="st2" cx="6.7" cy="15.1" r="0.6"/>
<circle class="st2" cx="9" cy="17.7" r="0.8"/>
<circle class="st2" cx="12.4" cy="19" r="0.3"/>
<circle class="st2" cx="17.4" cy="17.3" r="0.5"/>
<circle class="st2" cx="20.6" cy="20.6" r="0.5"/>
<circle class="st2" cx="17.4" cy="23.1" r="0.3"/>
<circle class="st2" cx="13.3" cy="24.1" r="0.5"/>
<circle class="st2" cx="9.4" cy="23.8" r="0.5"/>
<circle class="st2" cx="5.6" cy="22.2" r="0.3"/>
<circle class="st2" cx="2" cy="18" r="0.5"/>
<circle class="st2" cx="0.6" cy="11.5" r="0.6"/>
<circle class="st2" cx="2.3" cy="6" r="1.1"/>
<circle class="st2" cx="5.5" cy="2.7" r="0.6"/>
<circle class="st2" cx="8.9" cy="1" r="0.6"/>
<circle class="st2" cx="12.9" cy="0.5" r="0.6"/>
<polygon class="st3" points="20.6,4.1 17.4,1.5 12.9,0.5 8.9,1 5.5,2.7 2.3,6 0.5,11.6 2,18.1 5.6,22.2 9.4,23.9 13.3,24.2 
	17.4,23.1 20.6,20.6 17.4,17.3 12.4,19 8.9,17.8 6.7,15.1 6.1,12 7.2,8.7 10.3,6 14,5.6 17.4,7.4 "/>
<polyline class="st4" points="6.1,11.9 2.4,6.1 0.5,11.5 6.2,12 1.8,18 6.8,15.1 5.6,22.2 9,17.7 9.4,23.9 12.4,19 13.3,24.2 
	17.4,17.2 17.4,23.1 "/>
<polyline class="st5" points="7.3,8.7 5.6,2.7 10.3,6 "/>
<polyline class="st6" points="17.4,7.4 17.4,1.5 13.9,5.6 12.9,0.5 10.3,6 8.9,0.9 "/>
<polyline class="st7" points="13,0.6 0.5,11.5 13.4,24 9,17.7 1.9,17.9 5.3,2.6 20.6,4 14,5.6 "/>
<polyline class="st4" points="17.5,1.4 10.1,5.9 2.3,6.1 7.3,8.7 "/>
<polyline class="st8" points="20.6,20.6 12.3,18.8 17.5,23.2 1.9,17.9 2.3,6.1 "/>
</svg>
