<svg id="logo" data-name="Layer 1" xmlns="http://www.w3.org/2000/svg" viewBox="0 0 78.66 31.41"><defs><style>.cls-1{font-size:18px;fill:#e6e7e8;font-family:Brandon Grotesque,"brandon-grotesque";font-weight:900;}.cls-2{fill:#fff;}.cls-3,.cls-4,.cls-5,.cls-6,.cls-7,.cls-8{fill:none;stroke:#fff;}.cls-3{stroke-miterlimit:10;}.cls-3,.cls-4{stroke-width:0.2px;}.cls-4,.cls-5,.cls-6,.cls-7,.cls-8{stroke-linejoin:round;}.cls-5{stroke-width:0.17px;}.cls-6{stroke-width:0.14px;}.cls-7{stroke-width:0.1px;}.cls-8{stroke-width:0.07px;}</style></defs><title>TNL_logoClique_wit</title><text class="cls-1" transform="translate(13.63 24.39)">CLIQUE</text><circle class="cls-2" cx="17.47" cy="7.3" r="0.55"/><circle class="cls-2" cx="20.62" cy="4.1" r="0.55"/><circle class="cls-2" cx="17.39" cy="1.5" r="0.43"/><circle class="cls-2" cx="13.9" cy="5.61" r="0.55"/><circle class="cls-2" cx="10.13" cy="6.01" r="0.55"/><circle class="cls-2" cx="7.15" cy="8.7" r="0.55"/><circle class="cls-2" cx="6.15" cy="11.87" r="0.55"/><circle class="cls-2" cx="6.73" cy="15.1" r="0.55"/><circle class="cls-2" cx="8.98" cy="17.73" r="0.84"/><circle class="cls-2" cx="12.44" cy="18.96" r="0.34"/><circle class="cls-2" cx="17.44" cy="17.33" r="0.55"/><circle class="cls-2" cx="20.59" cy="20.56" r="0.55"/><circle class="cls-2" cx="17.36" cy="23.1" r="0.27"/><circle class="cls-2" cx="13.3" cy="24.1" r="0.55"/><circle class="cls-2" cx="9.38" cy="23.85" r="0.55"/><circle class="cls-2" cx="5.64" cy="22.16" r="0.32"/><circle class="cls-2" cx="1.95" cy="17.99" r="0.55"/><circle class="cls-2" cx="0.55" cy="11.47" r="0.55"/><circle class="cls-2" cx="2.35" cy="6.04" r="1.09"/><circle class="cls-2" cx="5.47" cy="2.75" r="0.55"/><circle class="cls-2" cx="8.87" cy="1.04" r="0.55"/><circle class="cls-2" cx="12.93" cy="0.55" r="0.55"/><polygon class="cls-3" points="20.62 4.1 17.39 1.5 12.93 0.55 8.87 1.04 5.47 2.75 2.35 6.04 0.52 11.56 1.95 18.1 5.64 22.16 9.41 23.93 13.33 24.19 17.36 23.1 20.59 20.56 17.44 17.33 12.44 18.96 8.87 17.79 6.73 15.1 6.13 11.98 7.16 8.7 10.27 5.98 13.98 5.61 17.36 7.41 20.62 4.1"/><polyline class="cls-4" points="6.13 11.87 2.44 6.1 0.47 11.47 6.24 11.98 1.84 18.02 6.81 15.1 5.64 22.25 8.98 17.73 9.41 23.93 12.44 18.96 13.33 24.19 17.44 17.24 17.36 23.1"/><polyline class="cls-5" points="7.27 8.7 5.55 2.75 10.27 5.98"/><polyline class="cls-6" points="17.44 7.36 17.39 1.5 13.87 5.64 12.9 0.47 10.27 5.98 8.87 0.95"/><polyline class="cls-7" points="12.98 0.62 0.47 11.47 13.39 24.05 8.98 17.73 1.89 17.92 5.35 2.64 20.56 4.01 14.04 5.61"/><polyline class="cls-4" points="17.47 1.38 10.08 5.92 2.35 6.07 7.27 8.7"/><polyline class="cls-8" points="20.59 20.56 12.29 18.8 17.47 23.18 1.89 17.92 2.35 6.07"/></svg>