<?xml version="1.0" encoding="utf-8"?>
<!-- Generator: Adobe Illustrator 19.2.1, SVG Export Plug-In . SVG Version: 6.00 Build 0)  -->
<svg version="1.1" id="Layer_1" xmlns="http://www.w3.org/2000/svg" xmlns:xlink="http://www.w3.org/1999/xlink" x="0px" y="0px"
	 viewBox="0 0 84 84" style="enable-background:new 0 0 84 84;" xml:space="preserve">
<style type="text/css">
	.st0{fill:#414042;}
	.st1{fill:#FFFFFF;}
</style>
<circle class="st0" cx="42" cy="42" r="42"/>
<g>
	<path class="st1" d="M48.4,68.9c-2.6-0.1-5.5-0.1-8.6-0.1c-2.8,0-5.8,0-8.4,0.1c-0.8-1.6,0.1-3.3,1.6-3.8l2.9-0.8V39.5l-5-0.5
		c-0.5-2.3,0.1-4.1,2.9-4.6l14.9-2.2v32l4.8,0.8C53.7,67.7,51.5,68.9,48.4,68.9z M41.9,25.4c-4,0-6.5-2.6-6.5-6.3c0-3,1.9-6.7,7-6.7
		c3.7,0,6.4,3,6.4,6.1C48.8,22.1,46.7,25.4,41.9,25.4z"/>
</g>
</svg>
