<?xml version="1.0" encoding="utf-8"?>
<!-- Generator: Adobe Illustrator 19.2.1, SVG Export Plug-In . SVG Version: 6.00 Build 0)  -->
<svg version="1.1" id="svg" xmlns="http://www.w3.org/2000/svg" xmlns:xlink="http://www.w3.org/1999/xlink" x="0px" y="0px"
	 viewBox="0 0 84 84" style="enable-background:new 0 0 84 84;" xml:space="preserve">
<style type="text/css">
	.st0{fill:#FFFFFF;}
</style>
<path class="st0" d="M42,0C18.8,0,0,18.8,0,42c0,23.2,18.8,42,42,42s42-18.8,42-42C84,18.8,65.2,0,42,0z M42.4,12.4
	c3.7,0,6.4,3,6.4,6.1c0,3.6-2.1,6.9-6.9,6.9c-4,0-6.5-2.6-6.5-6.3C35.4,16.1,37.3,12.4,42.4,12.4z M48.4,68.9
	c-2.6-0.1-5.5-0.1-8.6-0.1c-2.8,0-5.8,0-8.4,0.1c-0.8-1.6,0.1-3.3,1.6-3.8l2.9-0.8V39.5l-5-0.5c-0.5-2.3,0.1-4.1,2.9-4.6l14.9-2.2
	v32l4.8,0.8C53.7,67.7,51.5,68.9,48.4,68.9z"/>
</svg>
